<svg xmlns="http://www.w3.org/2000/svg" width="429" height="345" fill="none"><path fill="#14549F" d="M401.312 143.643c0 76.609-61.687 138.711-137.778 138.711-76.093 0-137.778-62.102-137.778-138.711 0-76.607 61.685-138.71 137.778-138.71 76.091 0 137.778 62.103 137.778 138.71Z"/><path fill="#fff" d="M233.66 19.183c2.132 0 3.621.353 4.81 3.462.675 1.771.61 5.34.54 9.12-.078 4.232-.167 9.03.845 11.355 1.303 2.997 3.144 5.053 4.808 5.366.773.146 1.493-.109 2.135-.755 1.043-1.05 1.598-3.036 2.134-4.955.697-2.488 1.417-5.06 3.286-6.088 5.167-2.837 14.039-8.9 14.508-13.625.572-5.766-3.798-9.351-12.639-10.369-7.796-.897-22.307-2.566-26.551 3.7-.034.057-.044.356.218.822.521.922 1.828 1.998 3.803 1.998.413 0 .8-.009 1.165-.017.325-.007.638-.014.938-.014Zm11.425 30.408c-.205 0-.41-.02-.619-.058-2.037-.384-4.126-2.622-5.589-5.988-1.102-2.538-1.015-7.247-.931-11.8.068-3.673.131-7.142-.471-8.72-1.087-2.844-2.152-2.82-4.73-2.763-.371.008-.766.017-1.188.017-2.498 0-4.135-1.414-4.777-2.624-.386-.729-.433-1.406-.126-1.857 4.607-6.802 19.535-5.085 27.555-4.162 12.665 1.458 13.942 7.851 13.577 11.533-.631 6.359-13.581 13.643-15.055 14.453-1.478.811-2.137 3.165-2.772 5.44-.575 2.052-1.168 4.172-2.406 5.419-.728.733-1.573 1.11-2.468 1.11ZM191.315 142.368a3.431 3.431 0 0 0-1.75 3.153c.181 4.333-1.453 16.565-5.452 20.589-3.653 3.681-3.269 9.836-3.016 13.911.064 1.007.119 1.877.104 2.572-.148 6.9.481 9.814 7.741 13.062 1.051.471 2.014.88 2.895 1.252 5.456 2.319 7.947 3.374 8.454 9.489.133 1.618.281 4.266.469 7.617.591 10.635 1.486 26.708 3.163 31.77 2.145 6.478 6.854 17.492 9.354 20.009 1.223 1.231 3.292 2.147 4.301 1.494.497-.318 1.447-1.596-.435-6.545-.272-.716-.536-1.404-.789-2.065-3.134-8.159-4.861-12.655-.805-17.828 4.084-5.209 11.052-17.481 11.603-22.196.598-5.098 3.292-7.99 5.699-8.596 2.194-.554 6.816-2.222 8.087-3.755.699-.844-.135-3.232-.942-5.542-.538-1.538-1.093-3.126-1.402-4.684-.855-4.307-.851-7.175 6.426-10.693 2.417-1.167 3.619-3.159 3.387-5.608-.302-3.163-3.294-7.28-9.15-8.841-9.913-2.641-15.783-8.195-14.607-13.82.623-2.979-1.734-3.803-5.63-4.899-1.718-.483-3.496-.984-4.987-1.828-2.156-1.221-3.273-2.741-4.354-4.213-1.201-1.634-2.335-3.175-4.869-4.14-6.354-2.421-10.845-1.153-13.495.335Zm25.425 126.198c-1.408 0-3.072-.87-4.219-2.025-2.646-2.663-7.38-13.691-9.609-20.423-1.721-5.196-2.621-21.354-3.216-32.046-.18-3.212-.334-5.987-.467-7.587-.452-5.473-2.456-6.324-7.81-8.598-.883-.374-1.852-.786-2.912-1.261-7.813-3.494-8.527-6.797-8.372-14.054.014-.65-.038-1.501-.1-2.485-.266-4.264-.669-10.708 3.322-14.726 3.501-3.524 5.346-14.982 5.143-19.796a4.491 4.491 0 0 1 2.294-4.126c2.848-1.6 7.658-2.969 14.396-.403 2.825 1.077 4.107 2.821 5.346 4.506 1.016 1.381 2.065 2.808 4.021 3.917 1.381.781 3.095 1.263 4.753 1.729 3.56 1.003 7.24 2.038 6.383 6.143-1.037 4.955 4.654 10.127 13.839 12.574 5.439 1.45 9.525 5.467 9.935 9.77.274 2.88-1.179 5.31-3.983 6.666-6.746 3.26-6.643 5.509-5.844 9.525.293 1.487.836 3.038 1.361 4.542.987 2.825 1.84 5.264.756 6.571-1.524 1.843-6.484 3.564-8.646 4.109-1.985.5-4.367 3.119-4.901 7.688-.579 4.962-7.568 17.304-11.823 22.729-3.684 4.698-2.13 8.739.961 16.788.254.663.52 1.352.792 2.07 1.584 4.174 1.59 6.805.017 7.819-.412.266-.898.384-1.417.384ZM309.047 148.384c4.359 0 7.532.912 9.479 2.732 2.54 2.373 2.226 5.553 2.107 6.751-.014.145-.027.257-.027.329l-.004.433c-.135 14.559 1.112 17.764 1.655 18.467 2.276 2.944 6.833 10.889.021 21.029-5.397 8.032-4.584 24.067-1.077 28.123.763.883 1.569 1.105 2.46.676 3.201-1.535 6.489-5.562 9.969-9.825 3.108-3.805 6.322-7.743 9.911-10.524 7.845-6.072 17.75-31.554 13.668-38.953-3.097-5.613.86-10.611 4.038-14.627 1.587-2.008 3.089-3.904 3.553-5.587 1.489-5.395.735-7.877-1.4-11.099v-.001c-1.649-2.491-3.342-8.074 3.841-17.475 1.174-1.538 1.651-3.192 1.417-4.916-.513-3.781-4.215-7.093-6.377-8.731a1.298 1.298 0 0 1-.471-1.381 1.313 1.313 0 0 1 1.122-.959c3.794-.432 13.04.743 17.006 20.94 2.7 13.755 4.483 16.884 5.502 17.087.604.118 1.415-1.105 2.07-2.088.384-.579.781-1.177 1.201-1.647.953-1.064.743-2.583.477-4.506-.382-2.761-.855-6.197 2.163-9.684 3.097-3.579 4.626-8.902 5.363-12.779-9.787-39.6-36.266-72.574-72.727-90.608-.072 3.304-.828 9.587-5.277 12.77-3.393 2.428-8.235 2.554-14.386.373a.48.48 0 0 1-.05-.02c-.028-.014-2.921-1.347-5.186.29-1.871 1.353-3.837 5.127-2.576 15.43.878 7.175 2.409 8.534 3.245 8.706 2.166.446 5.296-4.922 7.169-8.13 1.247-2.139 1.82-3.095 2.331-3.352 1.393-.702 2.698-.703 3.674-.003 2.04 1.465 2.531 5.71 1.499 12.975.002.022-.106 1.578-1.647 2.897-1.748 1.496-4.552 2.067-8.332 1.7-3.949-.386-6.947.236-8.666 1.796a4.875 4.875 0 0 0-1.619 3.588c0 .263.01.575.023.927.105 2.93.3 8.385-4.314 12.485-3.074 2.73-3.545 8.319-1.761 10.809.982 1.369 2.494 1.526 4.375.456 3.015-1.717 5.657-5.196 8.21-8.561 3.112-4.102 6.051-7.977 9.58-8.653 3.159-.606 6.106 1.013 8.959 2.579 2.967 1.629 5.769 3.167 8.59 2.173 3.099-1.092 3.612-4.76 4.026-7.707.334-2.387.623-4.45 2.321-4.45 1.723 0 4.32 1.7 6.318 4.133 1.94 2.363 2.825 4.862 2.43 6.856-.408 2.049-2.325 3.576-4.181 5.053-2.519 2.007-4.694 3.74-3.492 6.459 1.199 2.717 3.099 3.431 4.939 4.121 1.537.577 3.127 1.174 3.878 2.988.514 1.244.043 2.604-1.298 3.734-2.511 2.117-8.474 3.571-13.873.174-3.733-2.35-5.625-1.469-7.293-.691-1.337.623-2.72 1.267-4.517-.239-1.303-1.094-2.189-2.608-2.969-3.944-1.583-2.707-2.607-4.185-5.297-3.07-2.353.975-4.278 2.455-6.32 4.023-2.188 1.68-4.669 3.586-8.058 5.137-7.377 3.376-11.44 7.091-11.44 10.459 0 1.468.317 3.02.65 4.664.6 2.952 1.28 6.297.518 10.515-1.464 8.1-.526 13.908 2.787 17.263 2.956 2.993 7.842 3.941 14.521 2.821 2.825-.475 5.35-.711 7.57-.711h-.001Zm13.765 79.816c-.867 0-1.697-.425-2.417-1.255-3.784-4.377-4.734-20.881.999-29.413 6.425-9.566 2.155-17.023.021-19.785-1.679-2.173-1.947-11.601-1.878-19.129l.003-.422c0-.093.014-.241.033-.435.114-1.153.381-3.854-1.773-5.868-2.684-2.508-8.117-3.095-16.147-1.748-7.042 1.18-12.241.131-15.454-3.123-3.571-3.615-4.606-9.739-3.077-18.2.724-4.017.068-7.256-.513-10.114-.346-1.698-.671-3.302-.671-4.876 0-4.883 6.558-8.909 12.061-11.427 3.281-1.501 5.606-3.287 7.852-5.014 2.097-1.612 4.08-3.133 6.561-4.162 3.674-1.524 5.173 1.038 6.624 3.516.773 1.323 1.573 2.69 2.734 3.666 1.278 1.07 2.069.701 3.383.089 1.725-.803 4.086-1.903 8.311.755 4.89 3.078 10.42 1.768 12.618-.086.566-.477 1.447-1.436 1.001-2.513-.574-1.387-1.763-1.833-3.268-2.398-1.854-.695-4.16-1.561-5.541-4.688-1.531-3.47 1.303-5.73 3.805-7.722 1.704-1.357 3.467-2.761 3.798-4.427.334-1.68-.47-3.858-2.208-5.974-1.751-2.133-4.113-3.742-5.494-3.742-.773 0-1.014 1.715-1.267 3.532-.429 3.062-1.016 7.256-4.726 8.564-3.273 1.153-6.417-.575-9.457-2.245-2.686-1.475-5.463-3-8.246-2.466-3.127.6-5.948 4.316-8.932 8.25-2.618 3.45-5.325 7.019-8.532 8.843-2.357 1.342-4.458 1.064-5.767-.761-2.074-2.894-1.596-9.104 1.919-12.225 4.24-3.767 4.057-8.896 3.957-11.651-.012-.367-.023-.691-.023-.965 0-.779.192-2.765 1.968-4.377 1.976-1.793 5.167-2.489 9.485-2.068 3.41.332 6.007-.161 7.509-1.426 1.207-1.017 1.305-2.172 1.309-2.22 1.258-8.88-.125-11.327-1.062-12-.817-.586-1.85-.275-2.574.089-.287.189-1.138 1.649-1.892 2.937-2.274 3.898-5.393 9.236-8.303 8.637-2.035-.42-3.334-3.476-4.085-9.62-1.065-8.694-.051-14.221 3.015-16.428 2.684-1.93 5.878-.558 6.233-.396 5.792 2.049 10.296 1.967 13.387-.244 4.464-3.195 4.867-9.981 4.836-12.75a.531.531 0 0 1 .764-.485c18.034 8.782 34.287 21.71 47.005 37.385 12.848 15.839 22.213 34.654 27.08 54.412.017.074.019.15.006.225-.753 4.016-2.341 9.599-5.627 13.393-2.701 3.122-2.282 6.161-1.913 8.841.281 2.021.543 3.931-.737 5.362-.369.413-.745.979-1.111 1.527-.916 1.377-1.864 2.801-3.163 2.543-1.522-.304-3.346-2.686-6.338-17.927-3.795-19.327-12.342-20.487-15.841-20.086a.242.242 0 0 0-.215.181.229.229 0 0 0 .088.252c2.293 1.737 6.223 5.273 6.789 9.436.274 2.014-.275 3.934-1.626 5.705-5.028 6.58-6.377 12.348-3.799 16.241 2.587 3.906 2.961 6.815 1.537 11.971-.521 1.892-2.088 3.87-3.745 5.965-3.138 3.966-6.694 8.459-3.938 13.453 4.658 8.439-6.398 34.462-13.949 40.309-3.495 2.707-6.668 6.594-9.739 10.355-3.557 4.358-6.917 8.473-10.333 10.112a3.02 3.02 0 0 1-1.31.314v.001ZM164.597 47.882c.097 5.73-1.147 10.9-3.695 15.369-7.905 13.864-8.278 21.1-8.953 34.237-.057 1.103-.116 2.245-.181 3.434-.845 15.309 18.327 41.638 22.675 44.212 1.045.619 1.896.748 2.531.385.976-.556 2.137-2.591 2.137-9.133 0-4.733-1.605-10.685-4.768-17.692-2.405-5.328-3.068-9.709-1.972-13.022a3.936 3.936 0 0 1 2.978-2.65c1.541-.316 3.165.291 4.341 1.623 2.181 2.47 7.274 4.449 9.493 3.088 1.795-1.099 2.015-4.624 2.192-7.456.114-1.813.211-3.378.65-4.373.52-1.177 1.905-2.126 3.508-3.226 2.158-1.48 4.843-3.321 6.258-6.331 2.676-5.686 7.395-8.061 11.958-10.358 1.822-.917 3.558-1.646 5.091-2.289 2.436-1.023 4.542-1.906 4.989-2.806.308-.621.302-1.772.296-3.103-.011-1.922-.023-4.314.787-6.927.452-1.45 1.098-2.977 1.723-4.453 1.223-2.892 2.488-5.883 1.681-7.182-.439-.71-1.721-2.409-4.098-2.88-2.443-.486-5.311.44-8.525 2.75-5.156 3.708-7.658 4.863-9.558 4.418-1.527-.358-2.448-1.748-3.216-3.197-1.172-2.213-.621-5.926 1.374-9.239 2.564-4.26 6.709-6.705 11.369-6.705 7.209 0 11.064-1.824 11.461-5.422.239-2.159-2.582-4.79-5.695-5.313-1.729-.29-2.635.158-5.637 1.644-2.34 1.158-5.877 2.909-11.924 5.344-6.937 2.794-10.775.813-13.86-.779-1.1-.568-2.143-1.107-3.225-1.39-6.045 4.522-16.653 13.65-22.185 19.422Zm11.592 98.906c-.693 0-1.459-.245-2.289-.737-5.258-3.115-24.022-30.217-23.196-45.187.066-1.188.124-2.329.181-3.43.661-12.863 1.061-20.626 9.092-34.71 2.485-4.357 3.678-9.416 3.551-15.038a.54.54 0 0 1 .148-.38c5.583-5.863 16.573-15.316 22.671-19.85a.53.53 0 0 1 .435-.093c1.299.294 2.471.9 3.715 1.54 3.04 1.57 6.488 3.35 12.973.739 6.009-2.42 9.523-4.16 11.85-5.311 3.068-1.52 4.217-2.087 6.286-1.74 3.748.628 6.881 3.717 6.577 6.48-.466 4.227-4.679 6.37-12.521 6.37-6.075 0-9.337 4.329-10.456 6.19-1.78 2.957-2.334 6.325-1.346 8.191.889 1.677 1.618 2.447 2.517 2.658 1.536.36 3.892-.791 8.694-4.245 3.463-2.49 6.609-3.477 9.354-2.931 2.789.553 4.284 2.536 4.797 3.363 1.096 1.768-.156 4.73-1.607 8.158-.614 1.453-1.25 2.955-1.685 4.355-.762 2.456-.749 4.757-.741 6.605.009 1.528.015 2.735-.405 3.582-.623 1.256-2.682 2.12-5.533 3.315-1.516.636-3.234 1.358-5.025 2.258-5.408 2.723-9.128 4.88-11.47 9.86-1.539 3.272-4.358 5.204-6.622 6.757-1.467 1.007-2.736 1.877-3.135 2.778-.361.82-.458 2.369-.562 4.008-.2 3.239-.431 6.91-2.696 8.298-2.942 1.803-8.609-.754-10.849-3.291-.934-1.059-2.15-1.526-3.33-1.285a2.881 2.881 0 0 0-2.179 1.942c-1.01 3.051-.361 7.172 1.932 12.249 3.226 7.145 4.86 13.245 4.86 18.13 0 5.744-.874 9.033-2.673 10.06-.401.228-.84.342-1.313.342ZM394.587 169.14c-.442 0-.722.625-1.179 1.869-.515 1.409-1.159 3.161-2.814 3.719-2.521.844-3.535 2.039-2.88 6.875.694 5.137-.389 12.114-3.406 14.899-.513.475-1.073.931-1.613 1.372-2.446 1.995-4.973 4.056-5.155 8.968-.232 6.341-5.836 12.515-9.738 14.871-3.397 2.053-8.533 5.155-8.533 10.256l-.002.963c-.006 2.859-.015 6.347.501 9.219 18.277-18.1 31.105-40.816 37.127-65.768-1.101-6.909-2.15-7.219-2.194-7.23a.552.552 0 0 0-.114-.012v-.001Zm-35.145 74.609a.53.53 0 0 1-.517-.412c-.739-3.141-.73-7.17-.722-10.407l.002-.961c0-5.701 5.663-9.122 9.046-11.166 3.592-2.17 9.01-8.121 9.225-14.001.199-5.391 3.039-7.71 5.545-9.753.553-.452 1.075-.877 1.565-1.331 2.725-2.515 3.716-9.21 3.072-13.972-.743-5.486.69-7.054 3.596-8.028 1.172-.395 1.695-1.818 2.156-3.074.492-1.341 1.047-2.859 2.523-2.53.838.188 1.938 1.288 3.03 8.208a.576.576 0 0 1-.008.207c-6.134 25.503-19.323 48.694-38.141 67.068a.522.522 0 0 1-.372.152Z"/><path fill="#fff" d="M263.534 5.466c-75.677 0-137.246 61.986-137.246 138.177 0 76.193 61.568 138.179 137.246 138.179 75.677 0 137.245-61.986 137.245-138.179 0-76.191-61.568-138.177-137.245-138.177Zm0 277.42c-36.945 0-71.678-14.483-97.802-40.784-26.123-26.299-40.509-61.266-40.509-98.459 0-37.192 14.386-72.158 40.509-98.458C191.856 18.885 226.588 4.4 263.534 4.4c36.943 0 71.678 14.485 97.8 40.785 26.124 26.3 40.51 61.266 40.51 98.458 0 37.193-14.386 72.16-40.51 98.459-26.122 26.301-60.857 40.784-97.8 40.784ZM69.927 332.072H55.912v29.876h14.015v-29.876Z"/><path fill="#14549F" d="M49.88 347.193c0 8.151 2.539 14.755 5.67 14.755 3.13 0 5.669-6.604 5.669-14.755 0-8.148-2.54-14.859-5.67-14.755-4.65.154-5.668 6.607-5.668 14.755Z"/><path fill="#fff" d="M55.62 332.969h-.054c-3.564.119-5.153 4.506-5.153 14.224 0 8.509 2.655 14.223 5.136 14.223 2.48 0 5.136-5.714 5.136-14.223 0-6.027-1.413-11.445-3.516-13.478-.511-.494-1.033-.746-1.55-.746Zm-.071 29.513c-3.477 0-6.201-6.716-6.201-15.289 0-7.458.735-15.106 6.183-15.288.835-.029 1.634.323 2.379 1.045 2.333 2.256 3.84 7.847 3.84 14.243 0 8.573-2.724 15.289-6.201 15.289Z"/><path fill="#14549F" d="M52.533 347.759c0 5.64 1.394 10.211 3.114 10.211s3.114-4.571 3.114-10.211c0-5.64-1.395-10.212-3.114-10.212-1.72 0-3.114 4.572-3.114 10.212Z"/><path fill="#fff" d="M55.646 338.079c-1.078 0-2.581 3.683-2.581 9.68 0 5.996 1.503 9.679 2.581 9.679s2.581-3.683 2.581-9.679c0-5.997-1.503-9.68-2.581-9.68Zm0 20.423c-2.394 0-3.646-5.405-3.646-10.743 0-5.34 1.252-10.744 3.646-10.744s3.646 5.404 3.646 10.744c0 5.338-1.252 10.743-3.646 10.743ZM111.476 317.828h115.935l-.108-122.608-115.938-4.101.111 126.709ZM68.898 365.511h14.784v-34.376H68.535l.363 34.376Z"/><path fill="#14549F" d="M62.537 348.323c0 9.493 2.849 17.188 6.362 17.188 3.514 0 6.363-7.695 6.363-17.188 0-9.494-2.849-17.188-6.363-17.188-3.513 0-6.362 7.694-6.362 17.188Z"/><path fill="#fff" d="M68.898 331.667c-2.815 0-5.83 6.693-5.83 16.655 0 9.963 3.015 16.656 5.83 16.656 2.816 0 5.83-6.693 5.83-16.656 0-9.962-3.014-16.655-5.83-16.655Zm0 34.375c-3.866 0-6.894-7.783-6.894-17.72 0-9.936 3.028-17.72 6.895-17.72 3.866 0 6.894 7.784 6.894 17.72 0 9.937-3.028 17.72-6.895 17.72ZM76.43 348.791c0 9.234 2.848 16.72 6.362 16.72 3.514 0 6.362-7.486 6.362-16.72 0-9.233-2.848-16.719-6.362-16.719-3.514 0-6.362 7.486-6.362 16.719Z"/><path fill="#14549F" d="M65.584 348.43c0 6.073 1.36 10.997 3.04 10.997 1.679 0 3.04-4.924 3.04-10.997 0-6.073-1.361-10.997-3.04-10.997-1.68 0-3.04 4.924-3.04 10.997Z"/><path fill="#fff" d="M68.623 337.965c-1.023 0-2.507 4.078-2.507 10.465s1.484 10.465 2.507 10.465c1.022 0 2.507-4.078 2.507-10.465s-1.485-10.465-2.507-10.465Zm0 21.994c-2.345 0-3.572-5.8-3.572-11.529s1.227-11.529 3.572-11.529c2.345 0 3.572 5.8 3.572 11.529s-1.227 11.529-3.572 11.529ZM127.164 330.468H95.682v46.521h31.482v-46.521Z"/><path fill="#14549F" d="M102.209 354.114c0 12.634-2.923 22.875-6.529 22.875-3.605 0-6.528-10.241-6.528-22.875 0-12.635 2.923-22.876 6.528-22.876 3.606 0 6.529 10.241 6.529 22.876ZM133.798 354.114c0 12.634-2.922 22.875-6.528 22.875-3.605 0-6.528-10.241-6.528-22.875 0-12.635 2.923-22.876 6.528-22.876 3.606 0 6.528 10.241 6.528 22.876Z"/><path fill="#14549F" d="M102.825 353.728c0 12.634-3.54 23.261-7.145 23.261-3.605 0-6.528-10.241-6.528-22.874 0-12.636 2.923-22.877 6.528-22.877 3.606 0 7.145 9.857 7.145 22.49Z"/><path fill="#fff" d="M95.68 331.77c-2.836 0-5.996 9.177-5.996 22.344 0 13.166 3.16 22.342 5.996 22.342 3.057 0 6.612-9.928 6.612-22.728 0-12.568-3.491-21.958-6.612-21.958Zm0 45.751c-4.586 0-7.06-12.059-7.06-23.407 0-11.349 2.474-23.408 7.06-23.408 4.161 0 7.677 10.543 7.677 23.022 0 12.676-3.588 23.793-7.677 23.793Z"/><path fill="#14549F" d="M99.325 356.329c0 8.136-1.561 14.733-3.487 14.733-1.925 0-3.486-6.597-3.486-14.733 0-8.137 1.56-14.734 3.486-14.734 1.926 0 3.487 6.597 3.487 14.734Z"/><path fill="#fff" d="M95.84 342.127c-1.205 0-2.955 5.533-2.955 14.203 0 8.667 1.75 14.2 2.955 14.2 1.204 0 2.953-5.533 2.953-14.2 0-8.67-1.75-14.203-2.953-14.203Zm0 29.467c-2.639 0-4.02-7.68-4.02-15.264 0-7.587 1.381-15.267 4.02-15.267 2.638 0 4.018 7.68 4.018 15.267 0 7.584-1.38 15.264-4.018 15.264ZM141.49 335.181h-31.482v46.094h31.482v-46.094Z"/><path fill="#14549F" d="M116.537 358.228c0 12.728-2.923 23.047-6.528 23.047-3.606 0-6.529-10.319-6.529-23.047s2.923-23.047 6.529-23.047c3.605 0 6.528 10.319 6.528 23.047Z"/><path fill="#fff" d="M148.127 358.228c0 12.728-2.923 23.047-6.529 23.047-3.605 0-6.528-10.319-6.528-23.047s2.923-23.047 6.528-23.047c3.606 0 6.529 10.319 6.529 23.047Z"/><path fill="#14549F" d="M116.747 358.612c0 12.728-3.133 22.663-6.739 22.663-3.605 0-6.789-10.319-6.789-23.047 0-12.729 3.184-23.487 6.789-23.487 3.606 0 6.739 11.143 6.739 23.871Z"/><path fill="#fff" d="M110.008 335.273c-2.954 0-6.258 9.817-6.258 22.955 0 12.886 3.304 22.515 6.258 22.515 2.935 0 6.206-9.088 6.206-22.131 0-13.144-3.336-23.339-6.206-23.339Zm0 46.534c-4.038 0-7.322-10.576-7.322-23.579 0-11.55 2.799-24.019 7.322-24.019 4.491 0 7.271 12.667 7.271 24.403 0 13.007-3.194 23.195-7.271 23.195Z"/><path fill="#14549F" d="M112.84 357.943c0 8.621-1.778 15.61-3.972 15.61-2.193 0-3.972-6.989-3.972-15.61 0-8.622 1.779-15.611 3.972-15.611 2.194 0 3.972 6.989 3.972 15.611Z"/><path fill="#fff" d="M108.868 342.864c-1.436 0-3.44 5.737-3.44 15.079 0 9.341 2.004 15.078 3.44 15.078s3.439-5.737 3.439-15.078c0-9.342-2.003-15.079-3.439-15.079Zm0 31.221c-2.957 0-4.505-8.121-4.505-16.142 0-8.022 1.548-16.143 4.505-16.143s4.504 8.121 4.504 16.143c0 8.021-1.547 16.142-4.504 16.142ZM214.167 333.7h-31.483v45.751h31.483V333.7Z"/><path fill="#14549F" d="M189.212 356.574c0 12.634-2.923 22.877-6.529 22.877-3.604 0-6.527-10.243-6.527-22.877 0-12.633 2.923-22.874 6.527-22.874 3.606 0 6.529 10.241 6.529 22.874Z"/><path fill="#fff" d="M220.802 356.574c0 12.634-2.923 22.877-6.529 22.877-3.605 0-6.527-10.243-6.527-22.877 0-12.633 2.922-22.874 6.527-22.874 3.606 0 6.529 10.241 6.529 22.874Z"/><path fill="#14549F" d="M190.354 356.868c0 12.633-4.065 22.583-7.671 22.583-3.604 0-6.527-10.243-6.527-22.877 0-12.633 2.923-22.874 6.527-22.874 3.606 0 7.671 10.534 7.671 23.168Z"/><path fill="#fff" d="M182.682 334.233c-2.836 0-5.995 9.174-5.995 22.342 0 13.167 3.159 22.344 5.995 22.344 2.842 0 7.139-8.795 7.139-22.051 0-13.131-4.265-22.635-7.139-22.635Zm0 45.75c-4.586 0-7.061-12.061-7.061-23.408 0-11.348 2.475-23.409 7.061-23.409 4.293 0 8.203 11.297 8.203 23.702 0 12.097-3.91 23.115-8.203 23.115Z"/><path fill="#14549F" d="m28.21 350.668 8.368-.92 1.924-13.949-10.867 1.81.575 13.059Z"/><path fill="#fff" d="m28.187 338.057.53 12.02 7.39-.813 1.768-12.821-9.688 1.614Zm.022 13.144a.538.538 0 0 1-.346-.127.536.536 0 0 1-.186-.382l-.575-13.06a.532.532 0 0 1 .444-.547l10.868-1.812a.532.532 0 0 1 .615.598l-1.924 13.951a.533.533 0 0 1-.469.456l-8.369.921c-.019.002-.039.002-.058.002Z"/><path fill="#14549F" d="m111.365 198.243 118.867 4.965.325-7.857-118.868-4.967-.324 7.859Z"/><path fill="#fff" d="M8.866 358.543h12.852v-28.075H8.55l.315 28.075Z"/><path fill="#fff" d="M15.412 344.887c0 7.543 2.476 13.655 5.53 13.655 3.055 0 5.531-6.112 5.531-13.655 0-7.54-2.476-13.655-5.53-13.655-3.055 0-5.53 6.115-5.53 13.655Z"/><path fill="#14549F" d="M4.143 344.887c0 7.754 1.669 13.656 4.723 13.656 3.055 0 5.531-6.284 5.531-14.038 0-7.753-2.476-14.037-5.53-14.037-3.055 0-4.724 6.666-4.724 14.419Z"/><path fill="#fff" d="M8.866 331c-2.429 0-4.192 5.84-4.192 13.887 0 7.851 1.685 13.124 4.192 13.124 2.414 0 4.998-5.427 4.998-13.506S11.279 331 8.866 331Zm0 28.075c-3.876 0-5.257-7.329-5.257-14.188 0-6.898 1.377-14.954 5.257-14.954 3.4 0 6.063 6.401 6.063 14.572 0 8.17-2.663 14.57-6.063 14.57Z"/><path fill="#14549F" d="M5.984 344.594c0 4.96 1.183 8.98 2.643 8.98 1.46 0 2.642-4.02 2.642-8.98 0-4.962-1.183-8.983-2.642-8.983-1.46 0-2.643 4.021-2.643 8.983Z"/><path fill="#fff" d="M8.628 336.143c-.736 0-2.11 2.902-2.11 8.451 0 5.547 1.374 8.448 2.11 8.448.737 0 2.11-2.901 2.11-8.448 0-5.549-1.373-8.451-2.11-8.451Zm0 17.963c-2.084 0-3.175-4.785-3.175-9.512 0-4.728 1.09-9.515 3.175-9.515s3.175 4.787 3.175 9.515c0 4.727-1.09 9.512-3.175 9.512Z"/><path fill="#14549F" d="m110.533 331.804-15.307.089-5.584 13.577.059 11.398-10.89-.131-.794-18.581-1.576-4.58-.827-1.772-22.606 1.493-3.016 16.451H36.336V327.33l73.67-1.947.527 6.421Z"/><path fill="#fff" d="m79.323 356.209 9.844.12-.056-10.857c0-.07.013-.14.04-.205l5.584-13.577a.535.535 0 0 1 .489-.33l14.732-.086-.438-5.347-72.649 1.92v21.369h12.68l2.937-16.014a.532.532 0 0 1 .488-.435l22.606-1.495a.537.537 0 0 1 .518.306l.826 1.772a.417.417 0 0 1 .021.052l1.577 4.58a.535.535 0 0 1 .029.15l.772 18.077Zm10.38 1.191h-.007l-10.89-.131a.534.534 0 0 1-.525-.511l-.79-18.503-1.543-4.481-.66-1.415-21.83 1.442-2.941 16.044a.533.533 0 0 1-.524.437H36.337a.533.533 0 0 1-.532-.534V327.33c0-.29.23-.526.518-.533l73.67-1.946a.535.535 0 0 1 .545.487l.526 6.422a.531.531 0 0 1-.527.576l-14.953.089-5.408 13.148.058 11.293a.536.536 0 0 1-.532.534Z"/><path fill="#14549F" d="m27.733 336.942 8.845-1.119.706-57.318-9.76 3.845.21 54.592Z"/><path fill="#fff" d="m28.057 282.713.205 53.625 7.789-.987.69-56.061-8.684 3.423Zm-.325 54.76a.53.53 0 0 1-.532-.53l-.21-54.591a.53.53 0 0 1 .337-.496l9.761-3.848a.543.543 0 0 1 .498.057.537.537 0 0 1 .23.446l-.706 57.317a.532.532 0 0 1-.466.522l-8.845 1.119a.753.753 0 0 1-.067.004Z"/><path fill="#14549F" d="m27.557 294.09.23 55.715h-14s1.741-19.591-6.013-18.237c-4.272.745-3.224 18.237-3.224 18.237H.533l.99-46.83s5.774-8.874 7.544-8.87c5.398.013 18.49-.015 18.49-.015Z"/><path fill="#fff" d="M14.36 349.273h12.891l-.225-54.651c-2.511.006-13.242.025-17.96.015-.88.002-4.317 4.373-7.016 8.503l-.973 46.133h2.91c-.168-3.4-.6-17.48 3.695-18.229 1.386-.243 2.595.097 3.59 1.013 3.782 3.476 3.274 14.519 3.088 17.216Zm13.426 1.064h-14a.532.532 0 0 1-.53-.579c.01-.133 1.139-13.385-2.704-16.917-.75-.688-1.628-.933-2.687-.75-2.77.486-3.178 11.103-2.785 17.682a.532.532 0 0 1-.531.564H.533a.535.535 0 0 1-.38-.158.537.537 0 0 1-.153-.385l.989-46.829a.532.532 0 0 1 .086-.279c1.391-2.139 6.079-9.113 7.99-9.113h.003c5.336.012 18.356-.015 18.488-.015.277.013.532.236.533.53l.23 55.715a.532.532 0 0 1-.533.534ZM27.523 282.35c4.795-2.28 8.814-3.737 8.814-3.737l-8.814 3.737Z"/><path fill="#fff" d="M27.523 282.884a.531.531 0 0 1-.229-1.013c4.762-2.266 8.82-3.744 8.86-3.759a.531.531 0 1 1 .363 1.001c-.04.015-4.052 1.476-8.765 3.719a.534.534 0 0 1-.229.052Z"/><path fill="#14549F" d="M27.524 282.35c-6.27 2.984-13.866 7.376-15.532 11.757l15.565-.017-.033-11.74Z"/><path fill="#fff" d="M26.993 283.197c-7.654 3.718-12.516 7.28-14.172 10.378l14.201-.017-.03-10.361ZM11.99 294.641a.535.535 0 0 1-.497-.722c1.738-4.572 9.552-9.076 15.8-12.049a.533.533 0 0 1 .761.48l.034 11.738a.538.538 0 0 1-.155.378.536.536 0 0 1-.377.156l-15.565.019ZM27.731 337.474a.533.533 0 0 1-.066-1.062l8.381-1.058a.532.532 0 1 1 .134 1.055l-8.381 1.06a.514.514 0 0 1-.068.005ZM11.875 303.188c-2.148 0-5.362.29-5.48 2.002-.188 2.722-.215 9.384-.219 12.12a.756.756 0 0 0 .758.758h6.338c.418 0 .758-.34.758-.758v-13.323a.754.754 0 0 0-.707-.756 24.203 24.203 0 0 0-1.448-.043Zm1.397 15.945H6.934a1.81 1.81 0 0 1-1.29-.535 1.807 1.807 0 0 1-.533-1.288c.003-2.749.031-9.438.221-12.194.205-2.964 5.134-3.121 8.053-2.95.959.057 1.71.856 1.71 1.821v13.323a1.825 1.825 0 0 1-1.823 1.823Z"/><path fill="#fff" d="M14.443 316.709h1.455c.61 0 1.104-.494 1.104-1.104v-7.735c0-.61-.494-1.104-1.104-1.104h-2.532a1.24 1.24 0 0 0-1.241 1.241v6.384a2.319 2.319 0 0 0 2.318 2.318ZM18.229 337.416h3.46v-5.572h-3.46v5.572Zm3.992 1.065h-4.525a.533.533 0 0 1-.532-.532v-6.637c0-.294.238-.532.532-.532h4.525c.294 0 .532.238.532.532v6.637a.533.533 0 0 1-.532.532Z"/><path fill="#14549F" d="m36.578 327.33 74.899-1.918-.616-135.028-73.821 65.335-.462 71.61v.001Z"/><path fill="#fff" d="m37.57 255.96-.456 70.823 73.827-1.89-.609-133.33-72.763 64.397Zm-.993 71.902a.534.534 0 0 1-.532-.536l.461-71.611a.537.537 0 0 1 .18-.395l73.821-65.334a.53.53 0 0 1 .57-.087.53.53 0 0 1 .315.483l.617 135.029a.532.532 0 0 1-.519.534l-74.9 1.917h-.013Z"/><path fill="#fff" d="M105.105 319.623a.533.533 0 0 1-.533-.532V204.828a.533.533 0 0 1 1.065 0l.001 114.263a.533.533 0 0 1-.533.532ZM96.189 319.853a.533.533 0 0 1-.533-.532V212.547a.532.532 0 0 1 1.065 0v106.774a.533.533 0 0 1-.532.532ZM87.275 320.121a.533.533 0 0 1-.533-.532v-99.322a.533.533 0 1 1 1.065 0v99.322a.533.533 0 0 1-.532.532ZM69.447 320.659a.532.532 0 0 1-.533-.534v-84.421a.532.532 0 0 1 1.065 0v84.421a.532.532 0 0 1-.532.534ZM78.36 320.389a.532.532 0 0 1-.532-.532v-91.873a.533.533 0 0 1 1.065 0v91.873a.532.532 0 0 1-.532.532ZM60.658 320.923a.532.532 0 0 1-.532-.532L60 243.426a.533.533 0 1 1 1.065-.002l.126 76.965a.531.531 0 0 1-.532.534ZM51.617 321.196a.533.533 0 0 1-.533-.532v-69.52a.532.532 0 0 1 1.065 0v69.52a.533.533 0 0 1-.532.532ZM42.583 321.468a.533.533 0 0 1-.532-.534l.117-62.073a.53.53 0 1 1 1.065.002l-.117 62.073c0 .293-.24.532-.533.532Z"/><path fill="#14549F" d="M227.41 317.828H111.164v7.054H227.41v-7.054Z"/><path fill="#fff" d="M111.698 324.351H226.88v-5.991H111.698v5.991Zm115.714 1.064H111.165a.532.532 0 0 1-.532-.532v-7.055c0-.294.238-.532.532-.532h116.247c.293 0 .532.238.532.532v7.055a.533.533 0 0 1-.532.532Z"/><path fill="#14549F" d="M194.535 337.024h-50.496v10.038h50.496v-10.038Z"/><path fill="#fff" d="M144.573 346.53h49.431v-8.974h-49.431v8.974Zm49.963 1.064H144.04a.532.532 0 0 1-.532-.532v-10.038c0-.296.238-.535.532-.535h50.496c.293 0 .532.239.532.535v10.038a.533.533 0 0 1-.532.532Z"/><path fill="#14549F" d="m121.899 373.45 21.708-.108c3.041 0 4.798-2.492 4.798-5.298 0 0 .139-11.347-.023-15.712-.331-8.887-3.084-13.372-3.084-13.372h-30.753s1.509 5.95 2.326 12.823c.472 3.972-.4 16.878-.4 16.878 0 2.806 2.387 4.789 5.428 4.789ZM200.454 373.45l21.004-.108c3.04 0 4.797-2.492 4.797-5.298 0 0 .139-11.347-.023-15.712-.332-8.887-3.083-13.372-3.083-13.372h-30.754s1.731 5.743 1.809 12.663c.04 3.621.116 14.645.116 14.645v2.393c0 2.806 3.094 4.789 6.134 4.789Z"/><path fill="#14549F" d="m112.952 338.037 1.298 2.262h113.161v-15.417l-116.878.53.531 9.321 1.888 3.304ZM230.558 202.95v-7.6l-119.913-4.763v8.528l119.913 3.835Z"/><path fill="#fff" d="M230.558 203.485a.533.533 0 0 1-.533-.535v-7.088l-118.849-4.719v7.973a.532.532 0 0 1-1.065 0v-8.529a.535.535 0 0 1 .554-.532l119.914 4.764a.53.53 0 0 1 .511.532v7.599a.534.534 0 0 1-.532.535ZM216.361 374.005c-3.45 0-7.287-.023-10.33-.055l-.53-.004c-4.092-.04-7.322-.07-9.187-1.246-1.565-.986-2.498-2.774-2.627-5.036-.126-2.234-.084-4.839-.04-7.599.032-1.888.064-3.837.049-5.86-.053-6.731-1.062-11.924-1.375-13.374h-45.097a.533.533 0 0 1 0-1.067h45.524c.245 0 .458.169.517.408.015.059 1.432 5.976 1.495 14.025.017 2.035-.017 3.993-.046 5.885-.047 2.738-.089 5.327.035 7.521.112 1.936.849 3.389 2.133 4.198 1.609 1.013 4.863 1.043 8.63 1.081l.53.004c5.084.051 12.38.08 16.385.019h.009a.532.532 0 0 1 .008 1.064 419.55 419.55 0 0 1-6.083.036Z"/><path fill="#14549F" d="m227.41 318.166 46.779.321V194.948l-46.247 8.26-.532 114.958Z"/><path fill="#fff" d="m227.945 317.638 45.713.312V195.585l-45.185 8.071-.528 113.982Zm46.245 1.383h-.002l-46.781-.323a.53.53 0 0 1-.528-.534l.532-114.958c0-.256.186-.476.439-.522l46.247-8.26a.526.526 0 0 1 .435.116.53.53 0 0 1 .192.407v123.54a.534.534 0 0 1-.534.534Z"/><path fill="#14549F" d="m227.411 324.883-116.878.53v8.75s2.415 2.451 3.89 6.06c.83 2.033 1.864 6.647 2.448 11.56.471 3.972-.4 16.878-.4 16.878 0 2.806 2.386 4.789 5.427 4.789l21.709-.108c3.041 0 4.798-2.491 4.798-5.297 0 0 .139-11.348-.024-15.713-.226-6.085-1.588-10.103-2.424-12.033h46.791c.509 2.09 1.398 6.408 1.455 11.324.04 3.621.116 14.646.116 14.646v2.392c0 2.806 3.094 4.789 6.134 4.789l21.004-.108c3.04 0 4.797-2.491 4.797-5.297 0 0 .139-11.348-.023-15.713-.226-6.085-1.588-10.103-2.424-12.033h3.604v-15.416Z"/><path fill="#fff" d="M145.957 339.764h46.791c.245 0 .458.169.517.408.524 2.149 1.413 6.497 1.47 11.446.042 3.622.118 14.646.118 14.646v2.397c0 2.546 2.895 4.256 5.6 4.256l20.999-.109c2.935 0 4.269-2.469 4.269-4.764 0-.12.138-11.392-.023-15.691-.226-6.043-1.588-10.015-2.382-11.843a.537.537 0 0 1 .49-.746h3.072v-14.348l-115.813.526v8.007c.567.615 2.55 2.891 3.85 6.073.908 2.223 1.929 7.033 2.484 11.698.472 3.976-.362 16.449-.398 16.976.001 2.431 2.06 4.221 4.897 4.221l21.705-.109c2.934 0 4.268-2.469 4.268-4.764.002-.12.137-11.392-.022-15.691-.225-6.043-1.589-10.015-2.381-11.843a.534.534 0 0 1 .489-.746Zm54.498 34.218c-3.222 0-6.668-2.137-6.668-5.321v-2.393s-.076-11.018-.117-14.639c-.052-4.548-.823-8.581-1.342-10.798H146.75c.827 2.128 1.958 5.982 2.163 11.482.161 4.327.025 15.624.023 15.737 0 2.891-1.831 5.824-5.33 5.824l-21.706.108c-3.4 0-5.963-2.287-5.963-5.321.01-.165.865-12.938.404-16.815-.544-4.579-1.536-9.278-2.412-11.421-1.414-3.463-3.753-5.866-3.776-5.889a.532.532 0 0 1-.153-.374v-8.75c0-.293.237-.53.53-.532l116.878-.53h.003c.139 0 .274.055.375.154.1.099.157.237.157.378v15.417a.533.533 0 0 1-.532.532H224.6c.828 2.128 1.957 5.982 2.162 11.482.161 4.327.026 15.624.024 15.737 0 2.891-1.831 5.824-5.33 5.824l-21.001.108Z"/><path fill="#fff" d="M110.533 325.945a.531.531 0 0 1-.533-.532v-7.585a.532.532 0 1 1 1.065 0v7.585a.532.532 0 0 1-.532.532ZM227.412 340.831h-3.605a.533.533 0 0 1 0-1.066h3.073v-21.599a.532.532 0 1 1 1.064 0v22.133a.533.533 0 0 1-.532.532ZM166.026 236.236a.532.532 0 0 1-.249-1.003l61.919-32.496a.532.532 0 1 1 .494.944l-61.917 32.496a.55.55 0 0 1-.247.059Z"/><path fill="#14549F" d="M167.996 283.951v32.564l13.174.397c.051.054.137.016.137-.06v-35.908s-13.121 3.017-13.311 3.007Z"/><path fill="#fff" d="m168.529 315.997 12.245.369v-34.755c-8.406 1.932-11.252 2.565-12.245 2.772v31.614Zm12.695 1.474a.606.606 0 0 1-.184-.03l-13.06-.395a.533.533 0 0 1-.517-.532V283.95a.53.53 0 0 1 .486-.53c.523-.084 8.182-1.833 13.239-2.996a.531.531 0 0 1 .65.519v35.909a.616.616 0 0 1-.614.619Z"/><path fill="#14549F" d="m181.305 316.939 36.371-.131c-.078.082-.028-35.968-.028-35.968l-36.343.104v35.995Z"/><path fill="#fff" d="M181.838 281.473v34.931l35.292-.128c-.004-.258-.007-.592-.011-1.02-.004-.986-.008-2.393-.012-4.082-.007-3.372-.007-7.867-.007-12.363.002-7.69.013-15.378.015-17.437l-35.277.099Zm-.532 35.998a.532.532 0 0 1-.533-.532v-35.996c0-.293.237-.532.53-.534l36.344-.101c.139.021.279.055.378.156a.524.524 0 0 1 .156.376c-.017 12.006-.033 34.83.021 35.888a.532.532 0 0 1-.523.612l-36.371.131h-.002Z"/><path fill="#14549F" d="M209.367 289.045h-19.685v19.686h19.685v-19.686Z"/><path fill="#fff" d="M190.213 308.199h18.621V289.58h-18.621v18.619Zm19.153 1.064h-19.685a.533.533 0 0 1-.533-.532v-19.683c0-.296.239-.535.533-.535h19.685c.294 0 .532.239.532.535v19.683a.532.532 0 0 1-.532.532Z"/><path fill="#fff" d="M206.518 303.626h-13.989v2.363h13.989v-2.363ZM204.47 292.937h-2.363v8.112h2.363v-8.112Z"/><path fill="#fff" d="m206.421 294.504-3.133-3.131-3.132 3.131h6.265ZM196.941 292.937h-2.363v8.112h2.363v-8.112Z"/><path fill="#fff" d="m198.89 294.504-3.134-3.131-3.131 3.131h6.265Z"/><path fill="#14549F" d="m167.994 211.854-.053 36.152 13.227-3.191c.051.053.137.015.137-.059v-35.911s-13.121 3.018-13.311 3.009Z"/><path fill="#fff" d="m168.527 212.287-.051 35.041 12.298-2.965v-34.849c-8.408 1.933-11.255 2.566-12.247 2.773Zm-.585 36.251a.536.536 0 0 1-.329-.114.54.54 0 0 1-.203-.42l.053-36.152a.534.534 0 0 1 .486-.53c.521-.084 8.182-1.833 13.239-2.996a.532.532 0 0 1 .65.519v35.911a.617.617 0 0 1-.69.612l-13.081 3.155a.522.522 0 0 1-.125.015Z"/><path fill="#14549F" d="m181.305 244.841 36.371-.131c-.078.084-.028-35.966-.028-35.966l-36.343.101v35.996Z"/><path fill="#fff" d="M181.838 209.378v34.929l35.292-.127c-.007-.26-.007-.591-.011-1.02-.004-.986-.01-2.394-.012-4.081-.007-3.375-.009-7.87-.007-12.363.002-7.691.013-15.379.015-17.437l-35.277.099Zm-.532 35.997a.532.532 0 0 1-.533-.534v-35.995c0-.294.237-.53.53-.532l36.344-.102a.51.51 0 0 1 .378.154.544.544 0 0 1 .156.378c-.017 12.004-.033 34.83.021 35.888a.528.528 0 0 1-.523.61l-36.371.133h-.002Z"/><path fill="#14549F" d="M209.367 216.949h-19.685v19.686h19.685v-19.686Z"/><path fill="#fff" d="M190.213 236.103h18.621v-18.622h-18.621v18.622Zm19.153 1.064h-19.685a.533.533 0 0 1-.533-.532v-19.686c0-.293.239-.532.533-.532h19.685c.294 0 .532.239.532.532v19.686a.532.532 0 0 1-.532.532Z"/><path fill="#fff" d="M206.518 231.527h-13.989v2.365h13.989v-2.365ZM204.47 220.841h-2.365v8.111h2.365v-8.111Z"/><path fill="#fff" d="m206.421 222.408-3.133-3.134-3.132 3.134h6.265ZM196.941 220.841h-2.363v8.111h2.363v-8.111Z"/><path fill="#fff" d="m198.89 222.408-3.134-3.134-3.131 3.134h6.265Z"/><path fill="#14549F" d="M131.186 284.001v32.564l13.173.397c.051.055.137.017.137-.059v-35.909s-13.12 3.018-13.31 3.007Z"/><path fill="#fff" d="m131.717 316.05 12.246.368v-34.756c-8.407 1.932-11.253 2.565-12.246 2.772v31.616Zm12.697 1.472a.607.607 0 0 1-.185-.03l-13.06-.395a.532.532 0 0 1-.517-.532v-32.564a.534.534 0 0 1 .486-.53c.523-.086 8.182-1.832 13.238-2.996a.532.532 0 0 1 .652.52v35.908a.613.613 0 0 1-.614.619Z"/><path fill="#14549F" d="m144.496 316.99 36.371-.131c-.079.082-.028-35.968-.028-35.968l-36.343.103v35.996Z"/><path fill="#fff" d="M145.03 281.524v34.931l35.291-.129a977.624 977.624 0 0 1-.023-5.101c-.007-3.372-.007-7.868-.007-12.363.005-7.69.013-15.378.015-17.437l-35.276.099Zm-.533 35.997a.536.536 0 0 1-.532-.532v-35.995c0-.293.237-.532.531-.534l36.342-.101h.002a.52.52 0 0 1 .376.156.52.52 0 0 1 .156.376c-.016 12.006-.033 34.829.022 35.887a.536.536 0 0 1-.524.613l-36.371.13h-.002Z"/><path fill="#14549F" d="M172.474 289.098h-19.603v19.633h19.603v-19.633Z"/><path fill="#fff" d="M153.403 308.199h18.538V289.63h-18.538v18.569Zm19.07 1.065H152.87a.533.533 0 0 1-.532-.533v-19.633c0-.295.238-.534.532-.534h19.603c.294 0 .532.239.532.534v19.633a.533.533 0 0 1-.532.533Z"/><path fill="#fff" d="M163.879 306.495c-.959 0-1.74-.781-1.74-1.742v-12.887a.533.533 0 1 1 1.064 0v12.887a.677.677 0 1 0 1.351 0v-.948a.533.533 0 0 1 1.067 0v.948c0 .961-.782 1.742-1.742 1.742Z"/><path fill="#14549F" d="M156.383 299.21a.532.532 0 0 1-.526-.597c.338-2.775 3.26-4.943 6.814-4.943 3.556 0 6.476 2.168 6.814 4.943a.532.532 0 0 1-.525.597h-12.577Z"/><path fill="#fff" d="M162.671 294.202c-3.219 0-5.98 1.966-6.286 4.474h12.574c-.308-2.508-3.068-4.474-6.288-4.474Zm6.288 5.541h-12.577c-.303 0-.592-.131-.794-.357a1.072 1.072 0 0 1-.26-.836c.376-3.085 3.533-5.412 7.343-5.412 3.811 0 6.968 2.327 7.344 5.409a1.064 1.064 0 0 1-1.056 1.196Z"/><path fill="#14549F" d="M167.941 248.006v32.564l13.174.397c.051.055.138.017.138-.059v-35.911s-13.122 3.017-13.312 3.009Z"/><path fill="#fff" d="m168.476 280.053 12.245.369v-34.756c-8.406 1.932-11.252 2.566-12.245 2.773v31.614Zm12.695 1.473a.61.61 0 0 1-.184-.029l-13.059-.395a.534.534 0 0 1-.518-.532v-32.564a.53.53 0 0 1 .486-.53c.523-.087 8.182-1.835 13.239-2.996a.532.532 0 0 1 .65.517v35.911a.616.616 0 0 1-.614.618Z"/><path fill="#14549F" d="m181.254 280.995 36.371-.131c-.078.082-.027-35.968-.027-35.968l-36.344.101v35.998Z"/><path fill="#fff" d="M181.785 245.529v34.931l35.292-.129c-.004-.257-.006-.591-.01-1.02-.005-.986-.011-2.392-.013-4.081-.006-3.372-.009-7.868-.006-12.363.002-7.69.012-15.379.014-17.437l-35.277.099Zm-.532 35.997a.532.532 0 0 1-.532-.532v-35.997c0-.294.236-.53.53-.532l36.343-.102a.61.61 0 0 1 .378.157c.1.099.157.234.157.376-.017 12.004-.034 34.829.021 35.887a.533.533 0 0 1-.524.612l-36.371.131h-.002Z"/><path fill="#14549F" d="M209.957 250.375h-19.603v19.633h19.603v-19.633Z"/><path fill="#fff" d="M190.887 269.476h18.537v-18.569h-18.537v18.569Zm19.071 1.066h-19.604a.533.533 0 0 1-.532-.534v-19.633c0-.294.239-.532.532-.532h19.604c.293 0 .532.238.532.532v19.633a.533.533 0 0 1-.532.534Z"/><path fill="#fff" d="M201.365 267.774c-.961 0-1.74-.783-1.74-1.744v-12.887a.532.532 0 1 1 1.064 0v12.887a.677.677 0 1 0 1.352 0v-.948a.532.532 0 1 1 1.064 0v.948c0 .961-.781 1.744-1.74 1.744Z"/><path fill="#14549F" d="M193.866 260.487a.53.53 0 0 1-.524-.597c.336-2.775 3.258-4.943 6.814-4.943 3.554 0 6.476 2.168 6.814 4.943a.532.532 0 0 1-.526.597h-12.578Z"/><path fill="#fff" d="M200.156 255.479c-3.22 0-5.98 1.966-6.286 4.476h12.574c-.308-2.51-3.07-4.476-6.288-4.476Zm6.288 5.541h-12.576a1.064 1.064 0 0 1-1.056-1.194c.376-3.084 3.533-5.411 7.344-5.411 3.811 0 6.966 2.327 7.342 5.411a1.065 1.065 0 0 1-1.054 1.194Z"/><path fill="#14549F" d="m132.752 251.682-.063 31.606 11.501-2.577c.045.049.121.015.121-.052v-31.635s-11.391 2.667-11.559 2.658Z"/><path fill="#fff" d="m133.283 252.115-.06 30.507 10.555-2.363v-30.564c-7.064 1.653-9.575 2.223-10.495 2.42Zm-.594 31.704a.534.534 0 0 1-.533-.532l.063-31.605c0-.148.061-.287.167-.386a.52.52 0 0 1 .315-.144c.481-.08 7.114-1.622 11.488-2.646a.525.525 0 0 1 .452.102.528.528 0 0 1 .202.416v31.634a.605.605 0 0 1-.676.604l-11.362 2.545a.571.571 0 0 1-.116.012Z"/><path fill="#14549F" d="m144.311 280.735 32.041-.117c-.069.074-.025-31.685-.025-31.685l-32.016.091v31.711Z"/><path fill="#fff" d="M144.842 249.556V280.2l30.963-.112c-.005-.219-.005-.494-.007-.834-.006-.87-.01-2.109-.012-3.596-.007-2.973-.007-6.932-.007-10.891.002-6.7.011-13.395.013-15.3l-30.95.089Zm-.532 31.711a.53.53 0 0 1-.533-.532v-31.711c0-.294.238-.533.531-.533l32.016-.09c.156.01.279.057.378.156a.528.528 0 0 1 .156.378c-.015 10.558-.029 30.638.019 31.607a.533.533 0 0 1-.523.611l-32.042.114h-.002Z"/><path fill="#14549F" d="M168.957 256.163h-17.269v17.298h17.269v-17.298Z"/><path fill="#fff" d="M152.219 272.928h16.206v-16.231h-16.206v16.231Zm16.738 1.065h-17.27a.533.533 0 0 1-.533-.533v-17.297c0-.294.239-.532.533-.532h17.27c.293 0 .532.238.532.532v17.297a.533.533 0 0 1-.532.533Z"/><path fill="#fff" d="M161.389 271.553a1.598 1.598 0 0 1-1.598-1.598v-11.354a.533.533 0 0 1 1.065 0v11.354a.532.532 0 1 0 1.063 0v-.834a.532.532 0 1 1 1.066 0v.834c0 .883-.718 1.598-1.596 1.598Z"/><path fill="#14549F" d="M154.783 265.071a.468.468 0 0 1-.463-.526c.297-2.443 2.872-4.353 6.003-4.353 3.132 0 5.706 1.91 6.002 4.353a.467.467 0 0 1-.462.526h-11.08Z"/><path fill="#fff" d="M154.857 264.539h10.952c-.294-2.12-2.692-3.815-5.487-3.815-2.774 0-5.157 1.67-5.465 3.815Zm11.005 1.064h-11.08c-.285 0-.557-.122-.747-.335a1.001 1.001 0 0 1-.244-.786c.334-2.749 3.142-4.823 6.531-4.823 3.39 0 6.196 2.074 6.532 4.823a1.002 1.002 0 0 1-.992 1.121Z"/><path fill="#14549F" d="m110.645 317.137 22.865.013c-.069.084-.025-36.012-.025-36.012l-32.016.101s9.176 35.947 9.176 35.898Z"/><path fill="#fff" d="m111.054 316.605 21.909.013c-.005-.26-.007-.591-.009-1.018-.006-.988-.01-2.397-.012-4.086-.006-3.378-.007-7.88-.006-12.38.003-7.703.011-15.401.014-17.462l-30.799.097c1.168 4.574 7.988 31.289 8.903 34.836Zm22.453 1.079-22.831-.013c-.437.053-.448.005-.947-1.942l-8.779-34.357a.532.532 0 0 1 .514-.665l32.017-.103h.002a.536.536 0 0 1 .532.534c-.015 12.038-.03 34.916.02 35.94a.533.533 0 0 1-.528.606Z"/><path fill="#fff" d="M115.276 285.806h4.556v-3.101h-4.556v3.101Zm5.089 1.065h-5.622a.533.533 0 0 1-.532-.532v-4.167c0-.295.239-.532.532-.532h5.622c.294 0 .532.237.532.532v4.167a.532.532 0 0 1-.532.532Z"/><path fill="#14549F" d="M132.752 219.591v32.091l11.559-2.658v-32.089s-11.392 2.667-11.559 2.656Z"/><path fill="#fff" d="M133.284 220.024v30.989l10.494-2.412v-30.995c-7.063 1.651-9.575 2.222-10.494 2.418Zm-.533 32.19a.53.53 0 0 1-.532-.532v-32.091a.533.533 0 0 1 .482-.53c.48-.08 7.113-1.622 11.488-2.646a.535.535 0 0 1 .654.52v32.089a.532.532 0 0 1-.413.519l-11.559 2.658a.544.544 0 0 1-.12.013Z"/><path fill="#14549F" d="m144.311 249.024 32.016-.091v-32.089l-32.016.091v32.089Z"/><path fill="#fff" d="M144.842 217.465v31.024l30.952-.086v-31.025l-30.952.087Zm-.532 32.095a.533.533 0 0 1-.533-.532v-32.093c0-.296.238-.532.531-.535l32.016-.088c.152-.017.279.055.378.154a.54.54 0 0 1 .156.378v32.091a.534.534 0 0 1-.532.534c-.027 0-.05 0-.076-.002l-31.879.089c-.02.002-.04.004-.061.004Z"/><path fill="#fff" d="M158.12 220.887h4.555v-2.601h-4.555v2.601Zm5.089 1.064h-5.622a.532.532 0 0 1-.532-.532v-3.665c0-.294.238-.532.532-.532h5.622c.293 0 .532.238.532.532v3.665a.532.532 0 0 1-.532.532Z"/><path fill="#14549F" d="m89.799 252.28.374 29.052 11.063-.023c.045.048.122.015.122-.053v-31.635s-11.392 2.667-11.56 2.659Z"/><path fill="#fff" d="m90.336 252.71.362 28.088 10.126-.021v-30.484c-7.048 1.649-9.564 2.221-10.488 2.417Zm-.164 29.154a.532.532 0 0 1-.532-.526l-.374-29.052a.538.538 0 0 1 .163-.391.522.522 0 0 1 .318-.145c.48-.081 7.114-1.622 11.489-2.646a.53.53 0 0 1 .653.517v31.635a.605.605 0 0 1-.381.566.597.597 0 0 1-.384.019l-10.951.023h-.001Z"/><path fill="#14549F" d="m101.357 281.332 32.042-.116c-.069.074-.025-31.686-.025-31.686l-32.017.091v31.711Z"/><path fill="#fff" d="M101.889 250.151v30.647l30.964-.112c-.005-.22-.006-.494-.008-.834-.006-.87-.01-2.11-.012-3.596-.006-2.973-.007-6.932-.006-10.894.003-6.697.011-13.393.013-15.298l-30.951.087Zm-.532 31.713a.534.534 0 0 1-.533-.532v-31.711c0-.293.238-.532.531-.532l32.017-.091h.001a.536.536 0 0 1 .533.534c-.015 10.558-.03 30.639.019 31.608a.534.534 0 0 1-.525.61l-32.041.114h-.002Z"/><path fill="#fff" d="M115.165 253.574h4.556v-2.599h-4.556v2.599Zm5.088 1.066h-5.621a.532.532 0 0 1-.532-.534v-3.664c0-.295.238-.534.532-.534h5.621c.294 0 .532.239.532.534v3.664a.532.532 0 0 1-.532.534Z"/><path fill="#14549F" d="m89.799 220.951.374 29.052 11.063-.023c.045.047.122.015.122-.053v-31.635s-11.392 2.667-11.56 2.659Z"/><path fill="#fff" d="m90.336 221.381.362 28.088 10.126-.021v-30.484c-7.048 1.649-9.563 2.221-10.488 2.417Zm-.164 29.154a.532.532 0 0 1-.532-.525l-.374-29.053a.53.53 0 0 1 .481-.536c.482-.083 7.114-1.624 11.489-2.648a.543.543 0 0 1 .452.101.537.537 0 0 1 .201.418v31.635a.604.604 0 0 1-.765.585l-10.951.023h-.001Z"/><path fill="#14549F" d="m101.357 250.003 32.042-.116c-.069.074-.025-31.686-.025-31.686l-32.017.091v31.711Z"/><path fill="#fff" d="M101.889 218.822v30.647l30.964-.112c-.005-.219-.006-.494-.008-.836-.006-.868-.01-2.107-.012-3.594-.006-2.973-.007-6.934-.006-10.893.003-6.698.011-13.394.013-15.298l-30.951.086Zm-.532 31.713a.53.53 0 0 1-.533-.532v-31.711c0-.293.238-.532.531-.532l32.017-.091h.001a.533.533 0 0 1 .533.535c-.015 10.557-.03 30.638.019 31.607a.53.53 0 0 1-.525.608l-32.041.116h-.002Z"/><path fill="#fff" d="M115.165 222.245h4.556v-2.599h-4.556v2.599Zm5.088 1.064h-5.621a.53.53 0 0 1-.532-.532v-3.665c0-.294.238-.533.532-.533h5.621c.294 0 .532.239.532.533v3.665a.53.53 0 0 1-.532.532Z"/><path fill="#14549F" d="m110.643 317.137-37.125-1.241V185.35l37.125 13.191v118.596Z"/><path fill="#fff" d="m74.051 315.381 36.06 1.208V198.917l-36.06-12.813v129.277Zm36.593 2.291c-.006 0-.012 0-.018-.002l-37.125-1.242a.533.533 0 0 1-.515-.532V185.351a.53.53 0 0 1 .711-.501l37.125 13.191a.533.533 0 0 1 .354.5v118.597a.534.534 0 0 1-.532.534ZM343.378 307.667c-.648 2.356 2.983 5.496 7.931 6.858 4.949 1.364 9.675.524 10.325-1.833.648-2.354-2.983-5.496-7.931-6.858-4.947-1.362-9.675-.523-10.325 1.833Zm12.582 8.59c-1.52 0-3.199-.226-4.934-.703-5.693-1.569-9.504-5.157-8.674-8.17.829-3.013 5.939-4.145 11.634-2.576 5.693 1.567 9.504 5.154 8.674 8.167-.576 2.097-3.226 3.282-6.7 3.282Z"/><path fill="#14549F" d="m370.282 331.787-43.971 4.432 19.019-60.478 24.952-.277v56.323Zm-49.968 9.833 54.896-5.644v-64.365l-32.815-.127-22.081 70.137v-.001Z"/><path fill="#fff" d="m345.719 276.269-18.657 59.338 42.684-4.301v-55.303l-24.027.266Zm-19.409 60.482a.532.532 0 0 1-.507-.692l19.017-60.479a.538.538 0 0 1 .502-.374l24.952-.274h.007c.139 0 .274.055.373.154a.529.529 0 0 1 .159.378v56.323a.531.531 0 0 1-.48.53l-43.968 4.432-.055.002Zm16.472-64.733-21.717 68.99 53.612-5.513v-63.352l-31.895-.125Zm-22.469 70.135a.53.53 0 0 1-.411-.197.525.525 0 0 1-.095-.496l22.078-70.135a.534.534 0 0 1 .509-.373h.002l32.815.126c.293.002.53.239.53.532v64.366a.533.533 0 0 1-.477.53l-54.896 5.644c-.019.002-.036.002-.055.002v.001Z"/><path fill="#14549F" d="M427.153 320.231h-35.525l-43.867 1.655-1.79 13.641h17.728l1.052 5.401 47.513-3.554 14.889-17.143Z"/><path fill="#fff" d="M346.58 334.994h17.12a.53.53 0 0 1 .521.431l.961 4.937 46.825-3.503 13.979-16.096h-34.357l-43.396 1.638-1.653 12.593Zm18.169 6.466a.53.53 0 0 1-.521-.431l-.967-4.97h-17.29a.531.531 0 0 1-.527-.602l1.79-13.641a.533.533 0 0 1 .509-.462l43.865-1.656h35.546a.53.53 0 0 1 .401.881l-14.889 17.143a.518.518 0 0 1-.361.182l-47.513 3.556h-.043Z"/><path fill="#14549F" d="M366.972 338.31v-17.986h-8.129l-5.327 20.135 13.456-2.149ZM358.842 320.125l-30.642-.847-6.464 13.622 32.055 1.721 5.051-14.496Z"/><path fill="#fff" d="m322.557 332.41 30.863 1.657 4.679-13.429-29.568-.817-5.974 12.589Zm31.234 2.743h-.027l-32.055-1.721a.53.53 0 0 1-.454-.76l6.463-13.622a.53.53 0 0 1 .496-.304l30.643.847a.536.536 0 0 1 .488.707l-5.051 14.496a.531.531 0 0 1-.503.357Z"/><path fill="#14549F" d="M373.964 361.5c0-11.298-7.239-20.456-16.166-20.456-1.482 0-4.282.015-4.282.015v-7.427l13.592-1.013-.161 7.435 46.616-4.92-.008 11.1-6.47 18.132-34.023 3.87c.581-2.111.902-4.375.902-6.736Z"/><path fill="#fff" d="M357.797 340.512c9.208 0 16.698 9.415 16.698 20.988 0 2.08-.243 4.135-.725 6.12l32.926-3.744 6.326-17.733.006-10.418-46.027 4.858a.53.53 0 0 1-.587-.54l.146-6.85-12.511.933v6.398c.885-.006 2.667-.012 3.748-.012Zm15.264 28.256a.532.532 0 0 1-.513-.673c.585-2.127.883-4.344.883-6.595 0-10.986-7.013-19.924-15.634-19.924-1.483 0-4.278.015-4.278.015h-.002a.527.527 0 0 1-.376-.155.53.53 0 0 1-.159-.378v-7.426c0-.279.216-.509.495-.53l13.589-1.013a.534.534 0 0 1 .573.542l-.148 6.829 46.014-4.857a.53.53 0 0 1 .589.53l-.008 11.103c0 .061-.009.12-.03.177l-6.469 18.132a.536.536 0 0 1-.442.351l-34.023 3.868c-.021.002-.04.004-.061.004Z"/><path fill="#fff" d="M351.656 344.462h6.141c7.434 0 13.463 7.629 13.463 17.038s-6.029 17.036-13.463 17.036h-6.141c-7.434 0-13.461-7.627-13.461-17.036 0-9.409 6.027-17.038 13.461-17.038Z"/><path fill="#14549F" d="M344.336 361.5c0 9.409 6.028 17.036 13.463 17.036s13.463-7.627 13.463-17.036c0-9.409-6.028-17.035-13.463-17.035s-13.463 7.626-13.463 17.035Z"/><path fill="#fff" d="M357.798 344.996c-7.129 0-12.931 7.403-12.931 16.504 0 9.101 5.802 16.504 12.931 16.504 7.131 0 12.931-7.403 12.931-16.504 0-9.101-5.8-16.504-12.931-16.504Zm0 34.072c-7.718 0-13.995-7.88-13.995-17.568 0-9.688 6.277-17.57 13.995-17.57 7.718 0 13.995 7.882 13.995 17.57s-6.277 17.568-13.995 17.568Z"/><path fill="#14549F" d="m351.583 331.751-23.742-1.947 18.567-55.531 23.733-1.092-18.558 58.57Zm-31.177 3.68 34.321 2.636 22.078-70.137-34.211 1.417-22.188 66.084Z"/><path fill="#fff" d="m328.562 329.329 22.642 1.856 18.199-57.438-22.606 1.041-18.235 54.541Zm23.022 2.954-.044-.002-23.74-1.945a.535.535 0 0 1-.462-.701l18.566-55.531a.535.535 0 0 1 .48-.363l23.733-1.091a.532.532 0 0 1 .532.692l-18.558 58.57a.533.533 0 0 1-.507.371Zm-30.454 2.671 33.218 2.549 21.724-69.009-33.09 1.368-21.852 65.092Zm33.598 3.645c-.012 0-.027 0-.04-.002l-34.321-2.633a.536.536 0 0 1-.464-.701l22.188-66.087a.534.534 0 0 1 .481-.363l34.213-1.415a.533.533 0 0 1 .53.693l-22.078 70.134a.531.531 0 0 1-.509.374Z"/><path fill="#14549F" d="M314.908 371.142h7.813V241.487l8.615.233v-11.979l-16.428-1.229v142.63Z"/><path fill="#fff" d="M315.441 370.61h6.747V241.487a.532.532 0 0 1 .547-.532l8.068.218v-10.938l-15.362-1.149V370.61Zm7.279 1.064h-7.813a.533.533 0 0 1-.532-.532v-142.63a.533.533 0 0 1 .572-.53l16.428 1.229a.531.531 0 0 1 .492.53v11.979c0 .143-.059.28-.161.382a.536.536 0 0 1-.386.15l-8.068-.218v129.108a.533.533 0 0 1-.532.532Z"/><path fill="#fff" d="M309.898 370.768V228.926l5.009-.414v142.63l-5.009-.374Z"/><path fill="#fff" d="m310.431 370.274 3.945.294V229.09l-3.945.326v140.858Zm4.477 1.4c-.013 0-.026 0-.038-.002l-5.011-.372a.534.534 0 0 1-.492-.532V228.926c0-.279.211-.509.488-.532l5.011-.412a.534.534 0 0 1 .576.53v142.63a.535.535 0 0 1-.534.532ZM326.324 374.203V225.585l5.011-.411v149.91l-5.011-.881Z"/><path fill="#fff" d="m326.857 373.756 3.947.694V225.752l-3.947.323v147.681Zm4.479 1.86a.419.419 0 0 1-.093-.009l-5.009-.88a.533.533 0 0 1-.441-.524V225.585c0-.277.213-.509.49-.53l5.008-.412a.54.54 0 0 1 .406.138.54.54 0 0 1 .171.392v149.911a.531.531 0 0 1-.532.532Z"/><path fill="#14549F" d="m404.694 328.888-43.969 3.775 19.019-60.478 24.95-.364v57.067Zm-49.965 9.179 54.895-4.99v-65.109l-32.817-.038-22.078 70.137Z"/><path fill="#fff" d="m380.135 272.713-18.663 59.353 42.688-3.666v-56.038l-24.025.351Zm-19.411 60.482a.528.528 0 0 1-.507-.69l19.017-60.479a.533.533 0 0 1 .5-.373l24.952-.364a.563.563 0 0 1 .382.155.527.527 0 0 1 .159.378v57.066a.532.532 0 0 1-.488.53l-43.968 3.777h-.047Zm16.472-64.733-21.719 69 53.614-4.871V268.5l-31.895-.038Zm-22.469 70.137a.53.53 0 0 1-.413-.199.528.528 0 0 1-.093-.494l22.078-70.137a.53.53 0 0 1 .507-.371h.002l32.815.038a.53.53 0 0 1 .532.532v65.109a.533.533 0 0 1-.483.53l-54.896 4.989c-.015.002-.032.002-.049.002v.001Z"/><path fill="#14549F" d="m409.623 341.62 17.53-1.894v-18.803l-17.53 1.497v19.2Z"/><path fill="#fff" d="M410.154 322.908v18.119l16.466-1.78v-17.745l-16.466 1.406Zm-.532 19.244a.532.532 0 0 1-.532-.532v-19.2c0-.276.211-.509.488-.532l17.527-1.497a.526.526 0 0 1 .406.139.527.527 0 0 1 .173.393v18.803a.53.53 0 0 1-.475.528l-17.53 1.896c-.019.002-.038.002-.057.002Z"/><path fill="#14549F" d="M377.801 338.909v-12.443l31.823-2.785v11.869l-31.823 3.359Z"/><path fill="#fff" d="M378.332 326.954v11.362l30.758-3.246v-10.809l-30.758 2.693Zm-.532 12.487a.533.533 0 0 1-.532-.532v-12.443c0-.275.211-.505.485-.53l31.823-2.785a.522.522 0 0 1 .406.137.537.537 0 0 1 .173.393v11.869c0 .272-.205.5-.478.527l-31.82 3.36a.546.546 0 0 1-.057.004Z"/><path fill="#14549F" d="M331.337 375.084V225.173l16.425 1.571v11.977l-8.612-.574.044 138.632-53.69 8.805v-4.026l45.833-6.474Z"/><path fill="#fff" d="M286.037 382.02v2.937l52.624-8.63-.045-138.18a.53.53 0 0 1 .566-.53l8.047.534v-10.923l-15.361-1.47v149.325c0 .266-.196.49-.458.528l-45.373 6.409Zm-.534 4.097a.534.534 0 0 1-.532-.533v-4.026c0-.266.196-.49.458-.528l45.375-6.409V225.174c0-.15.063-.294.173-.395a.541.541 0 0 1 .409-.135l16.426 1.571a.53.53 0 0 1 .481.53v11.976a.533.533 0 0 1-.568.53l-8.045-.534.047 138.063c0 .261-.19.483-.448.525l-53.69 8.806a.6.6 0 0 1-.086.006Z"/><path fill="#14549F" d="m397.786 298.459-12.173.65-4.373 21.814 16.419-.692.127-21.772Z"/><path fill="#fff" d="m386.053 299.62-4.16 20.742 15.235-.642.12-20.7-11.195.6Zm-4.814 21.835a.539.539 0 0 1-.406-.185.543.543 0 0 1-.116-.452l4.373-21.812a.533.533 0 0 1 .492-.429l12.175-.65a.533.533 0 0 1 .56.534l-.127 21.772a.534.534 0 0 1-.511.53l-16.417.692h-.023Z"/><path fill="#14549F" d="m393.712 298.459-12.175.325-4.373 22.139 16.419-.692.129-21.772Z"/><path fill="#fff" d="m381.979 299.305-4.16 21.057 15.235-.642.122-20.714-11.197.299Zm-4.815 22.15a.531.531 0 0 1-.521-.635l4.373-22.14a.534.534 0 0 1 .509-.428l12.173-.325a.503.503 0 0 1 .386.152.53.53 0 0 1 .161.382l-.129 21.772a.532.532 0 0 1-.509.53l-16.419.692h-.024ZM345.739 331.804a.534.534 0 0 1-.507-.695L352 310.017a.531.531 0 1 1 1.013.325l-6.767 21.092a.532.532 0 0 1-.507.37Z"/><path fill="#14549F" d="m328.394 329.418-38.823 5.3-26.36-5.703 37.961-4.05 27.222 4.453Z"/><path fill="#fff" d="m276.02 331.629 3.661.644 32.275-4.823-3.114-.456-32.822 4.635Zm3.655 1.714a.473.473 0 0 1-.093-.008l-7.059-1.24a.53.53 0 0 1-.439-.532.534.534 0 0 1 .458-.519l36.226-5.114a.553.553 0 0 1 .152 0l6.757.988a.53.53 0 0 1 0 1.051l-35.924 5.368a.532.532 0 0 1-.078.006Z"/><path fill="#14549F" d="M289.572 381.809v-47.091l38.941-4.977v45.786l-38.941 6.282Z"/><path fill="#fff" d="M290.103 335.186v45.998l37.875-6.111v-44.728l-37.875 4.841Zm-.532 47.157a.522.522 0 0 1-.344-.129.528.528 0 0 1-.188-.405v-47.091c0-.269.199-.494.465-.528l38.94-4.977a.527.527 0 0 1 .418.129.526.526 0 0 1 .182.399v45.786c0 .26-.19.484-.448.526l-38.94 6.282a.408.408 0 0 1-.085.008Z"/><path fill="#fff" d="M300.66 343.648v21.235l18.48-3.002v-20.546l-18.48 2.313Zm-.532 22.394a.534.534 0 0 1-.534-.531v-22.334c0-.268.2-.494.466-.528l19.547-2.445a.537.537 0 0 1 .418.128.535.535 0 0 1 .179.399v21.604a.532.532 0 0 1-.447.526l-19.545 3.175a.593.593 0 0 1-.084.006Z"/><path fill="#fff" d="M312.1 361.167h-.074a2.503 2.503 0 0 1-1.78-.802 2.778 2.778 0 0 1-.752-1.92v-13.262c0-.349.254-.646.577-.678a.621.621 0 0 1 .485.16c.14.127.22.309.22.501l.004 13.298c0 .372.135.718.38.978.239.253.553.395.889.399.002-.002.006-.002.009-.002.339 0 .66-.14.901-.397.247-.26.382-.608.382-.978l-.002-.473a.67.67 0 0 1 .184-.464.624.624 0 0 1 .458-.201c.353 0 .64.298.64.663l.002.454c0 .724-.266 1.406-.752 1.922-.473.502-1.1.785-1.771.802Z"/><path fill="#14549F" d="m289.56 381.547.012-46.829-26.842-5.324v41.99l26.83 10.163Z"/><path fill="#fff" d="m263.261 371.017 25.765 9.759.013-45.621-25.778-5.112v40.974Zm26.297 11.062a.507.507 0 0 1-.187-.034l-26.83-10.162a.534.534 0 0 1-.344-.497v-41.992a.534.534 0 0 1 .636-.521l26.842 5.321a.534.534 0 0 1 .428.524l-.012 46.829c0 .175-.085.34-.228.439a.54.54 0 0 1-.305.093Z"/><path fill="#fff" d="m275.776 347.79-2.798-4.468-2.779 3.039 1.428.363v6.905l2.704.701v-6.92l1.445.38Z"/><path fill="#fff" d="m267.9 359.273 16.835 5.462v-20.359l-16.835-4.173v19.07Zm17.367 6.729a.499.499 0 0 1-.164-.027l-17.898-5.809a.536.536 0 0 1-.369-.507v-20.135c0-.165.076-.319.205-.421a.541.541 0 0 1 .456-.097l17.899 4.434c.237.06.404.273.404.518v21.51a.533.533 0 0 1-.533.534ZM274.215 335.786l3.862.779v-3.14l-3.862-.808v3.169Zm4.394 1.962a.49.49 0 0 1-.106-.011l-4.928-.992a.537.537 0 0 1-.427-.524v-4.259a.531.531 0 0 1 .642-.522l4.929 1.033a.53.53 0 0 1 .422.521v4.221a.534.534 0 0 1-.532.533Z"/><path fill="#fff" d="m266.157 329.536 23.419 4.677 35.281-4.538-23.702-4.172-34.998 4.033Zm23.4 5.748a.46.46 0 0 1-.104-.011l-26.827-5.355a.531.531 0 0 1 .045-1.051l38.44-4.43a.486.486 0 0 1 .152.004l27.224 4.793a.532.532 0 0 1-.023 1.052l-38.84 4.993c-.023.002-.044.005-.067.005ZM423.963 193.972c-.686 0-1.349.224-1.902.65a3.098 3.098 0 0 0-1.191 2.074 3.131 3.131 0 0 0 2.699 3.505 3.129 3.129 0 0 0 3.503-2.701 3.132 3.132 0 0 0-3.109-3.528Zm.011 7.319a4.199 4.199 0 0 1-4.162-4.73 4.163 4.163 0 0 1 1.601-2.783 4.168 4.168 0 0 1 3.095-.836 4.195 4.195 0 0 1 3.619 4.696 4.199 4.199 0 0 1-4.153 3.653ZM399.857 253.156a.532.532 0 0 1-.42-.86c10.463-13.463 17.634-28.74 21.314-45.404a.53.53 0 0 1 .635-.405.53.53 0 0 1 .406.633c-3.716 16.823-10.955 32.241-21.515 45.831a.53.53 0 0 1-.42.205ZM395.144 243.855a.523.523 0 0 1-.316-.106.529.529 0 0 1-.112-.743c23.685-31.992 25.963-81.85 25.984-82.35a.538.538 0 0 1 .553-.511c.294.013.524.26.512.553-.022.505-2.311 50.681-26.192 82.941a.531.531 0 0 1-.429.216ZM46.697 142.292c-5.638 0-10.224 4.587-10.224 10.224 0 5.638 4.587 10.224 10.224 10.224 5.638 0 10.224-4.586 10.224-10.224 0-5.637-4.586-10.224-10.224-10.224Zm0 21.513c-6.225 0-11.289-5.064-11.289-11.289 0-6.224 5.064-11.288 11.29-11.288 6.224 0 11.288 5.064 11.288 11.288 0 6.225-5.064 11.289-11.289 11.289ZM91.605 29.187a.533.533 0 0 1-.533-.533v-4.13a.533.533 0 0 1 1.065 0v4.13a.533.533 0 0 1-.532.533ZM91.605 38.81a.533.533 0 0 1-.533-.533v-4.13a.533.533 0 1 1 1.065 0v4.13a.532.532 0 0 1-.532.532ZM88.859 31.933h-4.131a.532.532 0 0 1 0-1.065h4.13a.533.533 0 0 1 0 1.065ZM98.482 31.932H94.35a.532.532 0 0 1 0-1.064h4.13a.532.532 0 1 1 0 1.064ZM202.541 130.154c-3.762 0-6.811-3.07-6.811-6.857 0-3.788 3.049-6.858 6.811-6.858 3.761 0 6.81 3.07 6.81 6.858 0 3.787-3.049 6.857-6.81 6.857Zm0-21.855c-8.228 0-14.896 6.715-14.896 14.998 0 2.07.929 4.966 2.326 8.145 3.52 8.014 9.999 17.826 11.979 20.759a.71.71 0 0 0 1.18 0c2.764-4.092 14.306-21.613 14.306-28.904 0-8.283-6.668-14.998-14.895-14.998Z"/><path fill="#14549F" d="m177.939 32.973.067-.025-10.566 3.343c-4.913 1.554-15.431 8.318-14.221 12.144 1.209 3.82 13.704 3.308 18.617 1.754 0 0 10.201-3.101 10.469-3.186 2.418-.766 3.385-4.523 2.16-8.392-1.214-3.831-4.121-6.334-6.526-5.638Z"/><path fill="#fff" d="M175.986 41.296c1.224 3.87 4.117 6.405 6.459 5.663 2.339-.741 3.245-4.479 2.021-8.348-1.227-3.869-4.118-6.404-6.46-5.663-2.341.742-3.245 4.48-2.02 8.348Z"/><path fill="#fff" d="M153.883 46.792c-.234.57-.287 1.067-.155 1.483 1.052 3.326 12.978 2.979 17.949 1.406l8.047-2.545c-1.005-.51-1.972-1.41-2.785-2.618l-8.022 2.537c-3.203 1.013-9.626 1.174-15.034-.263Zm8.702 5.105c-4.641 0-9.101-.863-9.872-3.301-.25-.787-.113-1.69.407-2.683a.532.532 0 0 1 .617-.265c5.303 1.51 11.719 1.385 14.857.392l8.41-2.66a.535.535 0 0 1 .615.227c1.136 1.839 2.654 2.964 4.022 2.946a.533.533 0 0 1 .169 1.04L172 50.697c-2.192.693-5.858 1.2-9.415 1.2Z"/><path fill="#fff" d="m178.047 33.495-10.444 3.303c-2.538.803-6.339 2.914-9.246 5.136-3.346 2.558-5.076 4.928-4.629 6.34.446 1.411 3.224 2.354 7.433 2.521 3.655.146 7.982-.312 10.516-1.114.107-.032 10.207-3.103 10.468-3.186 2.099-.664 2.927-4.2 1.812-7.723-1.117-3.529-3.752-5.9-5.87-5.288a.534.534 0 0 1-.04.01Zm-15.513 18.392c-.48 0-.953-.009-1.416-.027-3.407-.136-7.63-.813-8.406-3.264-.776-2.454 2.29-5.438 4.999-7.508 2.994-2.288 6.93-4.47 9.569-5.305l10.131-3.204c.117-.037.226-.072.33-.1a.257.257 0 0 1 .027-.01h.013v-.005l.065-.023.003.004c2.7-.733 5.821 1.89 7.124 6.005 1.334 4.213.234 8.193-2.507 9.06-.266.085-10.057 3.062-10.473 3.188-2.31.731-6.037 1.19-9.459 1.19Z"/><path fill="#14549F" d="M172.963 53.301 128.838.564l-5.848 2.21s14.924 41.65 16.179 47.274c1.254 5.623.993 15.608.993 15.608l32.801-12.354Z"/><path fill="#fff" d="M126.276 2.101c6.225 11.356 20.073 36.83 21.507 41.275 1.515 4.695 2.217 12.471 2.405 14.867l19.984-7.448-41.5-49.599-2.396.905Zm23.433 57.42a.53.53 0 0 1-.531-.496c-.007-.1-.68-9.965-2.409-15.322-1.469-4.553-16.997-33.013-21.721-41.628a.531.531 0 0 1 .279-.754L128.65.066a.532.532 0 0 1 .596.157l42.226 50.466a.536.536 0 0 1-.223.84l-21.354 7.96a.532.532 0 0 1-.186.033Z"/><path fill="#fff" d="M123.667 3.086c1.764 4.93 14.833 41.52 16.021 46.846 1.063 4.765 1.054 12.463 1.02 14.95l31.365-11.814-43.402-51.872-5.004 1.89Zm16.494 63.103a.533.533 0 0 1-.532-.546c.002-.1.245-9.985-.981-15.48-1.233-5.526-16.011-46.794-16.16-47.21a.533.533 0 0 1 .313-.678l5.848-2.208a.532.532 0 0 1 .596.156l44.127 52.737a.534.534 0 0 1-.222.84l-32.801 12.355a.538.538 0 0 1-.188.034Z"/><path fill="#fff" d="m53.94 90.917 1.322 4.181 44.113-3.338a177.023 177.023 0 0 0 36.345-6.623c31.357-9.187 85.78-25.234 97.963-29.488 18.523-6.464 17.758-11.852 17.507-13.623-.329-2.31-6.256-4.409-8.514-5.023a.548.548 0 0 1-.135-.057c-9.89-5.946-21.778-1.756-21.896-1.713L82.795 74.709a.538.538 0 0 1-.271.006L32.488 62.671l-10.45 3.306 38.316 20.76a.532.532 0 0 1-.014.943l-6.4 3.237Zm.942 5.276a.532.532 0 0 1-.508-.371l-1.586-5.016a.533.533 0 0 1 .267-.635l5.898-2.983-38.526-20.873a.533.533 0 0 1 .093-.975l11.789-3.73a.537.537 0 0 1 .285-.01l50.043 12.047L220.315 34.22c.091-.033 12.406-4.374 22.712 1.775 1.182.327 8.742 2.544 9.217 5.88.49 3.447-.866 8.728-18.21 14.78-12.205 4.26-66.649 20.314-98.015 29.504a178.099 178.099 0 0 1-36.564 6.663l-44.533 3.37a.565.565 0 0 1-.04.002Z"/><path fill="#14549F" d="m60.745 86.176-6.01-26.295 5.319-1.845L76.768 80.2l-16.023 5.976Z"/><path fill="#fff" d="m55.363 60.228 5.769 25.236 14.784-5.514-16.05-21.283-4.503 1.561Zm5.386 26.48a.531.531 0 0 1-.52-.413L54.22 60a.533.533 0 0 1 .344-.622l5.32-1.845a.532.532 0 0 1 .6.183l16.713 22.163a.533.533 0 0 1-.239.82l-16.022 5.976a.534.534 0 0 1-.186.033Z"/><path fill="#14549F" d="m175.007 82.858.067-.024-10.566 3.342c-4.913 1.554-15.431 8.319-14.22 12.144 1.208 3.821 13.703 3.309 18.618 1.754 0 0 10.201-3.1 10.468-3.186 2.417-.766 3.384-4.523 2.16-8.392-1.215-3.831-4.122-6.334-6.527-5.638Z"/><path fill="#fff" d="M173.056 91.181c1.225 3.87 4.117 6.405 6.459 5.663 2.34-.741 3.246-4.479 2.021-8.348-1.227-3.869-4.118-6.404-6.459-5.663-2.342.742-3.246 4.48-2.021 8.348Z"/><path fill="#fff" d="M150.953 96.678c-.234.569-.287 1.066-.155 1.482 1.052 3.326 12.98 2.979 17.949 1.407l8.047-2.546c-1.005-.51-1.972-1.41-2.785-2.618l-8.022 2.537c-3.203 1.014-9.625 1.174-15.034-.262Zm8.703 5.104c-4.642 0-9.102-.863-9.873-3.301-.249-.787-.113-1.69.407-2.682a.531.531 0 0 1 .618-.266c5.302 1.51 11.718 1.385 14.856.392l8.41-2.66a.534.534 0 0 1 .615.228c1.136 1.838 2.669 2.961 4.022 2.945a.533.533 0 0 1 .169 1.04l-9.81 3.104c-2.192.693-5.857 1.2-9.414 1.2Z"/><path fill="#fff" d="m175.115 83.38-10.441 3.303c-2.538.802-6.339 2.914-9.246 5.136-3.346 2.558-5.077 4.928-4.63 6.34.446 1.411 3.225 2.354 7.433 2.522 3.655.145 7.982-.313 10.516-1.115.109-.032 10.207-3.103 10.469-3.186.988-.313 1.731-1.256 2.09-2.657.384-1.49.285-3.289-.279-5.066-1.117-3.529-3.75-5.9-5.867-5.288a.665.665 0 0 1-.045.01Zm-15.511 18.392c-.48 0-.953-.009-1.415-.027-3.407-.136-7.631-.813-8.406-3.264-.777-2.454 2.289-5.438 4.998-7.508 2.994-2.288 6.93-4.47 9.57-5.305l10.131-3.204c.116-.037.226-.072.327-.1.011-.003.019-.006.027-.01h.015l-.002-.004.068-.024.002.005c2.698-.734 5.821 1.89 7.124 6.004.623 1.966.729 3.973.296 5.654-.456 1.769-1.451 2.979-2.802 3.406-.266.085-10.057 3.062-10.473 3.188-2.31.731-6.037 1.189-9.46 1.189Z"/><path fill="#14549F" d="m82.649 74.198 137.814-39.466s11.09-4.012 21 1.008c.946.48 9.328 3.003 10.255 6.21.889 3.077-.96 8.305-17.859 14.202-12.355 4.313-68.636 20.896-97.989 29.496a177.212 177.212 0 0 1-36.455 6.643l-44.533 3.37-1.586-5.015 6.805-3.442-39.42-21.356 11.789-3.73 50.179 12.08Z"/><path fill="#fff" d="M22.046 65.974 60.259 86.43l20.481-5.532-53.308-16.626-5.386 1.703ZM60.194 87.53a.53.53 0 0 1-.251-.063L20.43 66.317a.532.532 0 0 1 .09-.977l6.75-2.135a.53.53 0 0 1 .32 0l55.215 17.22a.533.533 0 0 1-.02 1.023l-22.453 6.064a.538.538 0 0 1-.138.018ZM54.418 92.43l.844 2.668 44.113-3.337a177.047 177.047 0 0 0 36.345-6.624c31.357-9.186 85.78-25.234 97.963-29.488 16.945-5.912 18.252-11.028 17.524-13.55-.435-1.503-2.931-2.932-5.279-3.993.587.575 1.087 1.213 1.377 1.893.148.346.255.912-.066 1.638-.796 1.798-3.834 3.66-8.786 5.385C195.948 61.84 155.458 73.55 118.109 81.83c-34.825 7.72-55.733 9.969-63.69 10.6Zm.464 3.764a.532.532 0 0 1-.508-.372l-1.174-3.71a.533.533 0 0 1 .468-.692c7.064-.53 72.246-6.297 184.435-45.404 6.438-2.241 7.853-4.11 8.163-4.81.133-.303.154-.568.059-.79-.899-2.111-4.497-3.908-5.023-4.162a2.533 2.533 0 0 1-.081-.038.532.532 0 0 1 .463-.959c.013.005.04.018.08.038.18.079.551.217.974.375 2.808 1.047 8.651 3.225 9.491 6.133 1.018 3.524-1.311 8.96-18.195 14.852-12.205 4.261-66.649 20.314-98.015 29.504a178.098 178.098 0 0 1-36.564 6.664l-44.533 3.37a.512.512 0 0 1-.04 0Z"/><path fill="#fff" d="M235.021 33.625a27.792 27.792 0 0 0-4.713-.41c2.372 1.4 4.46 3.353 4.399 4.609-.076 1.581-3.182 4.032-4.832 5.225a1.308 1.308 0 0 0-.34 1.756l.765 1.22c.397.632 1.244.809 1.854.382 4.178-2.921 7.306-6.052 6.985-8.111-.313-1.996-2.306-3.6-4.118-4.671Z"/><path fill="#fff" d="m53.94 90.917 1.322 4.181 44.113-3.337a177.03 177.03 0 0 0 36.345-6.624c31.357-9.187 85.78-25.234 97.963-29.488 16.945-5.913 18.252-11.028 17.524-13.55-.693-2.393-6.613-4.6-8.841-5.431-.574-.215-.954-.356-1.144-.453-9.593-4.86-20.47-1.022-20.577-.982L82.795 74.709a.537.537 0 0 1-.271.006L32.488 62.671l-10.45 3.306 38.316 20.76a.532.532 0 0 1-.014.943l-6.4 3.237Zm.942 5.276a.532.532 0 0 1-.508-.371l-1.586-5.016a.533.533 0 0 1 .267-.635l5.898-2.983-38.526-20.872a.533.533 0 0 1 .093-.976l11.789-3.73a.53.53 0 0 1 .285-.009l50.043 12.046L220.315 34.22c.429-.156 11.388-4.02 21.388 1.045.137.07.553.225 1.035.405 2.808 1.047 8.651 3.225 9.491 6.133 1.018 3.524-1.311 8.96-18.195 14.852-12.205 4.261-66.649 20.314-98.015 29.504a178.092 178.092 0 0 1-36.564 6.663l-44.533 3.37a.495.495 0 0 1-.04.002Z"/><path fill="#14549F" d="m40.184 119.492 6.376-1.592 24.516-25.635-16.766 1.587-14.126 25.64Z"/><path fill="#fff" d="m54.64 94.356-13.402 24.323 5.043-1.258L69.703 92.93 54.64 94.356Zm-14.457 25.668a.533.533 0 0 1-.466-.789l14.126-25.64a.532.532 0 0 1 .416-.273l16.766-1.588a.534.534 0 0 1 .435.899l-24.516 25.635a.529.529 0 0 1-.256.149l-6.376 1.591a.519.519 0 0 1-.129.016Z"/><path fill="#14549F" d="m174.231 70.175-71.588 84.81-10.621 1.605s31.574-47.745 35.57-54.47c3.996-6.725 8.449-21.532 8.449-21.532l38.19-10.413Z"/><path fill="#fff" d="M140.915 98.5c-1.935 3.233-10.808 15.27-20.201 28.013-8.217 11.146-16.696 22.65-20.555 28.309l2.207-.334 70.352-83.346-23.27 6.383c-1.512 4.647-5.179 15.375-8.533 20.975ZM99.04 156.06a.533.533 0 0 1-.443-.826c3.474-5.228 12.516-17.493 21.26-29.355 9.377-12.721 18.235-24.738 20.145-27.927 3.365-5.62 7.08-16.579 8.521-21.03a.533.533 0 0 1 .366-.35l25.201-6.912a.53.53 0 0 1 .589.226.528.528 0 0 1-.042.63L103.05 155.33a.527.527 0 0 1-.327.183l-3.603.545c-.027.004-.054.004-.08.004Z"/><path fill="#fff" d="M136.466 81.024c-.654 2.141-4.688 15.096-8.415 21.368-3.636 6.117-30.358 46.583-34.924 53.492l9.239-1.395 70.354-83.35-36.254 9.885Zm-44.443 76.097a.533.533 0 0 1-.444-.825c.315-.478 31.612-47.811 35.556-54.448 3.917-6.592 8.353-21.266 8.397-21.414a.534.534 0 0 1 .37-.36l38.189-10.413a.532.532 0 0 1 .547.857l-71.587 84.81c-.084.1-.2.165-.328.184l-10.62 1.605c-.028.004-.054.004-.08.004ZM41.009 196.185a.532.532 0 0 1-.377-.911l2.921-2.92a.531.531 0 1 1 .753.752l-2.92 2.922a.532.532 0 0 1-.377.157ZM34.204 202.988a.531.531 0 0 1-.376-.908l2.92-2.922a.532.532 0 1 1 .753.753l-2.92 2.921a.527.527 0 0 1-.377.156ZM37.125 196.185a.531.531 0 0 1-.376-.157l-2.921-2.922a.531.531 0 1 1 .753-.752l2.92 2.92a.534.534 0 0 1-.376.911ZM43.93 202.988a.527.527 0 0 1-.377-.156l-2.92-2.921a.533.533 0 0 1 .752-.753l2.921 2.922a.531.531 0 0 1-.376.908ZM420.948 134.505c-1.575.707-2.291 2.592-1.596 4.202a3.11 3.11 0 0 0 1.742 1.691 3.02 3.02 0 0 0 2.352-.061c1.575-.707 2.291-2.592 1.596-4.203a3.111 3.111 0 0 0-1.742-1.69 3.02 3.02 0 0 0-2.352.061Zm1.25 7.167a4.11 4.11 0 0 1-1.491-.281 4.18 4.18 0 0 1-2.333-2.262c-.925-2.141.034-4.652 2.137-5.596a4.083 4.083 0 0 1 3.175-.082 4.176 4.176 0 0 1 2.334 2.262c.925 2.141-.036 4.652-2.137 5.595a4.104 4.104 0 0 1-1.685.364ZM362.363 44.333c-3.516 0-6.365-2.87-6.365-6.408 0-3.539 2.849-6.408 6.365-6.408 3.515 0 6.364 2.87 6.364 6.408 0 3.539-2.849 6.408-6.364 6.408Zm0-20.422c-7.689 0-13.92 6.274-13.92 14.014 0 1.935.87 4.641 2.175 7.612 3.288 7.488 9.342 16.658 11.193 19.398a.664.664 0 0 0 1.103 0c2.584-3.825 13.368-20.197 13.368-27.01 0-7.74-6.231-14.014-13.919-14.014ZM323.119 183.357c-3.752 0-6.795-3.061-6.795-6.841 0-3.778 3.043-6.841 6.795-6.841s6.795 3.063 6.795 6.841c0 3.78-3.043 6.841-6.795 6.841Zm0-21.803c-8.208 0-14.861 6.7-14.861 14.962 0 2.067.927 4.956 2.32 8.127 3.514 7.994 9.975 17.786 11.952 20.71a.71.71 0 0 0 1.178 0c2.758-4.084 14.274-21.563 14.274-28.837 0-8.262-6.656-14.962-14.863-14.962ZM359.997 76.495c-.015 0-.027 0-.042-.002a.533.533 0 0 1-.49-.572c.169-2.104.294-4.243.374-6.358a.533.533 0 0 1 1.064.04c-.08 2.13-.207 4.283-.376 6.402a.531.531 0 0 1-.53.49ZM358.46 89.18a.532.532 0 0 1-.526-.619c.34-2.086.642-4.207.898-6.303a.534.534 0 0 1 .591-.465c.293.035.5.3.466.593a156.416 156.416 0 0 1-.905 6.347.533.533 0 0 1-.524.447Zm-2.595 12.51a.533.533 0 0 1-.517-.663 153.05 153.05 0 0 0 1.425-6.205.53.53 0 1 1 1.041.216c-.433 2.088-.915 4.19-1.434 6.249a.534.534 0 0 1-.515.403Zm-3.649 12.244a.53.53 0 0 1-.502-.706 148.85 148.85 0 0 0 1.946-6.062.533.533 0 0 1 1.02.304 148.924 148.924 0 0 1-1.961 6.105.53.53 0 0 1-.503.359Zm-4.552 11.946a.53.53 0 0 1-.492-.732 410.128 410.128 0 0 0 2.341-5.94.533.533 0 1 1 .993.382 386.374 386.374 0 0 1-2.348 5.956.531.531 0 0 1-.494.334Zm-5.028 11.756a.534.534 0 0 1-.483-.755 233.995 233.995 0 0 0 2.573-5.837.534.534 0 0 1 .98.418 241.362 241.362 0 0 1-2.586 5.863.531.531 0 0 1-.484.311Zm-4.656 9.153a.528.528 0 0 1-.272-.074.536.536 0 0 1-.184-.731 65.832 65.832 0 0 0 1.856-3.37.532.532 0 0 1 .946.488 64.142 64.142 0 0 1-1.888 3.427.531.531 0 0 1-.458.26Z"/><path fill="#fff" d="M332.995 157.708a.533.533 0 0 1-.532-.507c-.188-3.629-.412-8.731-.412-12.424a.532.532 0 0 1 1.064 0c0 3.328.184 7.817.359 11.322 1.801-1.463 4.339-3.482 6.803-5.443 1.098-.874 2.165-1.723 3.117-2.483a.533.533 0 1 1 .665.832c-.952.76-2.021 1.611-3.119 2.485-2.861 2.276-5.821 4.632-7.608 6.096a.531.531 0 0 1-.337.122ZM333.431 57.9a.53.53 0 0 1-6.92-.597.533.533 0 0 1 .52-.545 86.434 86.434 0 0 1 6.427.078.533.533 0 0 1-.027 1.064Zm-19.124.967a.533.533 0 0 1-.07-1.06c2.171-.29 4.316-.526 6.381-.698a.532.532 0 0 1 .089 1.06c-2.046.172-4.177.405-6.329.693a.52.52 0 0 1-.071.005Zm-12.589 2.224a.532.532 0 0 1-.112-1.053c2.118-.458 4.235-.876 6.29-1.241a.533.533 0 1 1 .188 1.048c-2.044.363-4.147.778-6.252 1.234a.54.54 0 0 1-.114.012Zm-12.397 3.123a.53.53 0 0 1-.511-.386.53.53 0 0 1 .365-.658 204.742 204.742 0 0 1 6.189-1.667.533.533 0 0 1 .26 1.033c-2.029.512-4.101 1.07-6.157 1.658a.523.523 0 0 1-.146.02Zm-12.186 3.872a.532.532 0 0 1-.175-1.035 229.687 229.687 0 0 1 6.079-2.028.532.532 0 1 1 .323 1.015 230.573 230.573 0 0 0-6.052 2.018.52.52 0 0 1-.175.03Zm-11.957 4.546a.532.532 0 0 1-.203-1.026c1.97-.81 3.978-1.604 5.965-2.36a.532.532 0 1 1 .378.996 239.552 239.552 0 0 0-5.938 2.35.524.524 0 0 1-.202.04Zm-11.69 5.181a.533.533 0 0 1-.228-1.014c1.909-.909 3.866-1.809 5.82-2.675a.533.533 0 1 1 .432.974 238.207 238.207 0 0 0-5.796 2.663.53.53 0 0 1-.228.052Zm-11.379 5.819a.532.532 0 0 1-.255-1 218.186 218.186 0 0 1 5.663-2.999.532.532 0 1 1 .485.948 219.355 219.355 0 0 0-5.637 2.985.53.53 0 0 1-.256.066ZM231.1 90.129a.533.533 0 0 1-.288-.982 196.08 196.08 0 0 1 5.469-3.346.535.535 0 0 1 .731.188.534.534 0 0 1-.19.73 194.996 194.996 0 0 0-5.437 3.327.531.531 0 0 1-.285.083Zm-10.533 7.244a.528.528 0 0 1-.426-.214.53.53 0 0 1 .107-.745 165.39 165.39 0 0 1 5.214-3.734.533.533 0 0 1 .604.877 160.483 160.483 0 0 0-5.18 3.71.536.536 0 0 1-.319.106Zm-9.877 8.11a.53.53 0 0 1-.357-.926 125.342 125.342 0 0 1 4.86-4.191.534.534 0 0 1 .676.824 124.998 124.998 0 0 0-4.82 4.155.536.536 0 0 1-.359.138ZM335.84 62.95a.533.533 0 0 1-.239-1.009l.756-.378c2.705-1.353 4.717-2.361 6.926-3.737-.215-.202-.433-.406-.648-.61-2.01-1.893-4.088-3.85-5.98-5.215a.533.533 0 0 1 .623-.864c1.949 1.405 4.052 3.387 6.085 5.303l1.149 1.08a.535.535 0 0 1-.074.837c-2.491 1.6-4.637 2.673-7.604 4.158l-.755.379a.533.533 0 0 1-.239.056Z"/></svg>