<svg width="22" height="16" viewBox="0 0 22 16" fill="none" xmlns="http://www.w3.org/2000/svg">
<path d="M1.40001 15.2H20.6C21.26 15.2 21.8 14.66 21.8 14C21.8 13.34 21.26 12.8 20.6 12.8H1.40001C0.740012 12.8 0.200012 13.34 0.200012 14C0.200012 14.66 0.740012 15.2 1.40001 15.2ZM1.40001 9.2H20.6C21.26 9.2 21.8 8.66 21.8 8C21.8 7.34 21.26 6.8 20.6 6.8H1.40001C0.740012 6.8 0.200012 7.34 0.200012 8C0.200012 8.66 0.740012 9.2 1.40001 9.2ZM0.200012 2C0.200012 2.66 0.740012 3.2 1.40001 3.2H20.6C21.26 3.2 21.8 2.66 21.8 2C21.8 1.34 21.26 0.800003 20.6 0.800003H1.40001C0.740012 0.800003 0.200012 1.34 0.200012 2Z" fill="#091A28"/>
</svg>
