<svg width="620" height="697" fill="none" xmlns="http://www.w3.org/2000/svg"><path d="M702.404 554.277 373.667 734.804 79.097 634.152l305.216-177.011 318.091 97.136Z" fill="url(#a)"/><path d="M426.571 302.864c64.697-29.953 168.546-28.483 231.969 3.296 45.364 22.725 57.578 54.785 37.279 82.178-6.934-13.047-20.68-25.494-41.543-35.944-63.422-31.778-167.284-33.248-231.968-3.295-18.413 8.526-31.485 18.707-39.57 29.61-14.15-26.609.429-55.741 43.833-75.845Z" fill="#CD7436"/><path d="m330.819 472.427 2.315-110.796 416.428-1.225-2.327 115.721h-.135c1.225 32.06-19.417 64.084-62.197 87.826-82.154 45.585-214.033 43.331-294.57-5.011-39.692-23.828-59.404-54.405-59.477-84.738h-.086l.024-.944c0-.281.013-.551.025-.833Z" fill="#14549F"/><path d="M395.584 275.19c82.141-45.573 214.021-43.331 294.558 5.022 80.548 48.354 79.238 124.493-2.904 170.066-82.153 45.585-214.021 43.331-294.57-5.023-80.536-48.354-79.238-124.493 2.904-170.065h.012Z" fill="#fff"/><path d="M545.532 483.281c53.34 0 103.703-11.65 141.827-32.795 39.803-22.088 62.038-51.992 62.589-84.2.552-32.207-20.642-62.858-59.673-86.294-20.471-12.288-44.495-21.819-71.422-28.336-26.008-6.285-53.45-9.482-81.566-9.482-53.339 0-103.702 11.65-141.815 32.795-39.815 22.088-62.037 51.992-62.589 84.212-.551 32.207 20.643 62.859 59.674 86.282 20.471 12.288 44.495 21.819 71.422 28.336 26.008 6.285 53.438 9.482 81.553 9.482Zm-8.257-240.617c57.946 0 112.18 13.402 152.743 37.744 38.871 23.338 59.979 53.83 59.44 85.866-.551 32.036-22.688 61.793-62.331 83.783-38.051 21.108-88.329 32.734-141.595 32.734-57.934 0-112.18-13.402-152.742-37.757-38.872-23.337-59.98-53.83-59.441-85.865.539-32.036 22.688-61.793 62.332-83.783 38.051-21.108 88.34-32.734 141.594-32.734v.012Z" fill="#14549F"/><path d="M426.613 302.853c64.672-29.941 168.497-28.458 231.931 3.308 52.912 26.449 61.009 65.701 24.624 95.47-7.215 5.832-16.183 11.406-26.89 16.355-64.745 29.941-168.583 28.458-232.03-3.308-9.384-4.692-17.31-9.825-23.84-15.215-37.867-30.995-28.973-71.104 26.193-96.61h.012Z" fill="#14549F"/><mask id="b" style="mask-type:luminance" maskUnits="userSpaceOnUse" x="333" y="69" width="427" height="370"><path d="M376.482 139.757C470.274 35.6 596.714 70.172 679.492 97.981c67.649 22.726 90.607 147.095 76.433 213.188-9.139 42.621-41.506 75.588-77.082 98.117-61.438 38.908-198.977 40.28-273.854-4.668-26.559-15.95-49.848-38.835-61.633-75.06-21.427-65.86-4.594-147.941 33.126-189.814v.013Z" fill="#fff"/></mask><g mask="url(#b)"><path d="M543.259 90.88c107.304 0 194.309 86.994 194.309 194.31 0 107.317-86.992 194.298-194.309 194.298S348.962 392.507 348.962 285.19c0-107.316 86.98-194.31 194.297-194.31Z" fill="#30A5FF"/><path d="M450.619 312.031c1.36-1.201 2.107.637 3.479-.331 1.373-.968 3.602-1.642 4.546-.453.931 1.188 2.107 1.139 1.519-.931-.601-2.083 2.364-1.826 3.381-3.222 1.017-1.397 1.997-1.483 5.133-2.156 3.136-.674 3.969-1.483 5.366-1.654 1.396-.172 1.911 3.087 3.54 3.908 1.63.808-1.629-3.945-.919-4.802.723-.846 5.293-.503 6.861-1.887 1.568-1.384 2.781 1.629 5.292 4.692 2.536 3.05 1.63.282-.882-2.499-2.524-2.781-3.932-3.933-5.035-5.672-1.103-1.728.845-2.12 2.879-3.676 2.034-1.568 1.519-4.618 2.916-6.48 1.396-1.862 2.082-.123 3.087-2.291 1.017-2.169 5.194-3.357 8.257-5.207 3.063-1.85 4.141-.637 5.929.588 1.777 1.225 6.934.123 7.253-1.053.306-1.176.502-.723 3.026-1.201 2.536-.478 2.033.037 2.119-2.327.086-2.365 2.585-3.051 4.839-3.774 2.242-.722 2.364-.722 2.916-2.83.551-2.119 1.004-2.241 5.586-3.173 4.57-.931 3.173-4.067 8.049-4.618 4.863-.551 2.45 1.482 4.631 3.173 2.18 1.69 4.802-.625 6.664-2.536s1.911.257 5.537.882c3.639.637 2.708.502 2.12-1.899-.6-2.413 2.009-2.144 4.435-2.671 2.45-.526 6.529.417 7.963 1.52 1.445 1.102-.503 5.978-.16 7.865.331 1.898 5.207-.834 3.296-3.296-1.899-2.462-1.311-2.928-.551-5.255.759-2.328-2.622-2.5-3.002-4.325-.392-1.813 2.928-.172 4.619 1.446 1.678 1.604 3.675 1.31 4.728 1.862 1.066.551 2.928.428 4.705.294 1.788-.123 4.189 1.445 4.018 3.859-.172 2.413.135 3.773 1.74 3.81 1.604.036 3.05 1.151 3.393 3.173.343 2.033 3.308-3.124 6.309-4.484 3.014-1.36 5.256.159 7.669 1.225 2.414 1.054 3.81.723 6.407-.221 2.61-.943 4.741-4.349 5.317-7.277.576-2.927-1.948-4.949-1.825-7.362.122-2.414-1.225-3.773-1.36-6.015-.123-2.242.429-1.519-.845-3.002-1.274-1.482 3.773-1.825 6.309-2.842 2.536-1.017 7.277.257 10.805.233 3.516-.037 3.43.11 1.605-1.495-1.826-1.605-3.516-6.395-5.133-9.739-1.605-3.345-2.622-5.881-4.607-9.776-1.984-3.896 2.071-1.103 3.553-.552 1.483.552 4.655-1.102 7.326-.588 2.659.503 3.602 7.155 7.963 10.169 4.361 3.013 3.688-.27 7.828-.013 4.153.258 5.415-3.344 6.567-5.843 1.139-2.5.968-7.118.968-7.118 0-4.239-6.432-18.548-7.914-19.516-1.483-.98-3.467-1.274-8.343-3.087-4.876-1.813-5.047-.808-8.772.037-3.724.845-2.67.037-5.243-1.899-2.585-1.948-1.654-.931-6.101-2.033-4.447-1.103-3.136.98-6.481 2.119-3.356 1.139-3.675.294-5.708 1.813-2.034 1.519-.049 7.032-.895 8.465-.845 1.446-2.033 4.19-5.329 5.55-3.308 1.36-3.638-4.655-3.847-6.432-.208-1.788.343-5.329 1.311-7.62.968-2.291 1.875-4.079 1.274-7.019-.612-2.941-8.857-8.049-14.946-9.568-6.088-1.519-7.546-4.104-6.652-6.052.882-1.948-.135-5.035-.135-6.015 0-.98-.208-1.568-1.176-1.103-.98.466-2.45-1.531-4.961-2.205-2.487-.674-1.789-3.259-3.884-4.239-2.119-.968-4.189-.588-7.203-.759-3.002-.16 3.393-5.256-3.43-7.032-6.812-1.777-9.482-.294-9.776-2.242-.307-1.948-.883-1.519-2.916-1.654-2.034-.122 0 .76 2.119 2.585 2.12 1.813-.71 3.21-3.981 2.487-3.259-.711-6.224-2.487-7.914-3.467-1.691-.968-4.018.159-3.884-1.74.123-1.899 3.369-1.666 4.986-1.813 1.63-.147.98-.465 2.499-1.066 1.532-.588 1.14-1.519 2.328-2.291 1.188-.759.037-1.225.208-2.413.172-1.188-1.482-.637-2.793-1.985-1.311-1.359 3.222-1.996 6.334-1.617 3.112.368 6.529 1.189 8.453 2.156 1.911.956 3.026 1.287 2.854.637-.159-.649-3.418-2.633-5.157-2.474-1.74.159-2.365.086-3.394-.76-1.004-.845-.245-1.825-5.292-1.69-5.047.122-10.413 1.519-13.672-.76-3.271-2.279-3.773-1.69-7.105-2.426-3.32-.735-2.781-3.038-2.475-3.846.306-.809 2.034-1.519 2.622-2.12.6-.6 1.225-.379 2.291-.343 1.053.049-.429-.294 1.225-1.862 1.653-1.568 5.255-.98 6.137-1.605.882-.637 1.617-.673 2.708-.416 1.102.257.563-.98-.209-1.973-.759-.992 4.313-3.062 7.069-5.108 2.744-2.034 2.414.037 2.646 1.384.245 1.336 3.063 1.323 4.043 1.875.968.551 2.205-.343 3.136-1.226.931-.894.968-1.862.515-3.319-.466-1.446 1.066-.674 2.07 0 1.005.673 2.928-1.728 4.288-2.573 1.347-.845 7.191-.257 8.416-.306 1.225-.062 2.291.563 2.365 2.879.085 2.327 1.531 1.408 2.29 3.516.76 2.119-2.119 2.241-2.327 3.515-.221 1.262 3.32 3.259 6.775 3.553 3.442.294 2.658 6.897 2.756 8.637.086 1.74 1.776 3.308 3.504 3.05 1.752-.257 2.781-5.206 2.499-7.926-.27-2.707-.037-3.81 2.082-3.553 2.12.258 3.137-.294 4.79-1.065 1.654-.76 2.157 0 3.639-2.034 1.482-2.034 4.361-1.225 6.174-.355 1.813.87 2.034.576 1.458-1.397-.563-1.972 1.005-1.213.049-2.818-.968-1.604-5.77-3.27-8.649-3.895-2.879-.637-3.724-.931-5.794-2.034-2.083-1.09-4.717 0-5.869-.71-1.139-.699-3.528-2.291-4.532-2.794-1.005-.49-2.205.258-3.565-.367-1.348-.613-4.962-.49-5.893-1.323-.931-.821 1.139-1.752.319-2.732-.833-.992-3.271.478-4.656.943-1.372.478-1.151-.906-1.911-1.923-.759-1.005-.821 1.066-2.658 2.193-1.826 1.127 4.043-.098 2.817 1.458-1.212 1.543-5.868-2.095-6.958-1.042-1.078 1.054 9.262 2.879 10.94 3.504 1.678.637.416 1.397-3.259 1.299-3.663-.098-5.917.747-7.62 1.702-1.715.956-8.502 1.764-9.653.49-1.152-1.274 5.255-1.286 5.157-1.984-.098-.699-4.925.551-6.076-.282-1.152-.845 1.935-.809 3.393-2.095 1.458-1.286-3.16-.87-5.819-.122-2.671.735-1.629-.294-2.131-1.213-.478-.919 2.18-.968 5.635-1.654 3.467-.674 1.115-.858.698-1.63-.404-.784 3.198-.906 5.66-1.127 2.462-.22 2.695-1.078 1.874-2.192-.833-1.115 3.235-.319 4.741.281 1.507.613 1.642.723 4.19.025 2.561-.698 6.15 2.891 6.763 1.74.624-1.152 2.242-.503 3.944.134 1.691.637-.318 1.47-1.531 2.585-1.213 1.115 3.148 1.679 3.81 2.426.662.747 2.168-.086 1.005-.747-1.176-.662-.784-1.826 1.09-1.985 1.874-.16 3.822 2.021 4.753 2.193.931.171-.208-.662.049-2.218.257-1.555 3.259 2.132 4.533 3.186 1.262 1.065 4.043.208 6.236.882 2.18.661 5.488 1.065 6.652.514 1.151-.539.024-1.029-3.112-1.764-3.124-.735.245-1.286 3.394-.086 3.16 1.213 3.026 1.434 2.952 2.781-.061 1.348 1.985.956 3.945.037 1.96-.919 3.32 2.046 3.785.968.478-1.09 1.213-.576 1.213-.576 28.532 11.381 52.556 31.668 52.556 31.668 5.268 4.166 5.28 8.625 9.69 11.443 4.411 2.817 7.62 10.756 11.259 14.982 3.638 4.239 5.843 14.481 4.41 18.119-1.446 3.639 1.691 12.79.845 15.24-.845 2.45 2.205 4.57 1.336 6.946-.87 2.365-1.336 3.896-.735 8.208.588 4.325-5.501 5.587-6.861 3.724-1.36-1.862 2.757-19.907 1.776-21.683-.992-1.777-1.604.931-1.359 3.479.257 2.536-2.622 10.67-3.896 14.983-1.274 4.324.588 9.224 0 16.011-.6 6.775-21.145 13.721-23.999 14.726-2.867 1.017-3.051-3.872-5.783-3.173-2.719.698-7.681 7.877-11.111 8.637-3.43.759-3.296 2.352-5.905 2.474-2.609.123-4.202 5.648-6.738 6.346-2.536.698-1.397.515-.956 1.838.454 1.335-.183 4.006-3.05 5.145-2.854 1.139-1.397 4.19-4.055 6.603-2.671 2.414-4.704 1.336-7.755 2.867-3.05 1.531-4.055 4.447-7.362 1.017-3.308-3.43-2.536-3.43-5.967-1.238-3.43 2.193-1.139 10.009-.514 14.701.637 4.692 7.877 6.101 9.274 9.911 1.396 3.81 2.291 14.138 4.324 16.171 2.022 2.034-.686 6.775-1.017 14.395-.343 7.62-11.344 16.943-17.273 25.236-5.917 8.294-23.546 13.244-26.253 20.484-2.696 7.252.906 29.01.661 31.607-.257 2.597.441 7.424-.514 10.793-.956 3.356 2.266 11.491 2.878 11.809.613.319.454.49.613 1.14.159.661.637.527 1.348.857.722.343-1.201 4.423-1.507 5.293-.294.869-.172 1.151.968 2.241 1.139 1.091.698 2.377.526 3.198-.171.821-.526 2.315.748 3.516 1.261 1.213 1.433 2.438-.515 2.671-1.948.232-1.825-1.838-2.756-3.957-.919-2.12-1.287.257-.699 2.143.601 1.887.307 4.239.49 5.979.172 1.727 1.568-.453 2.218-1.127.649-.662 1.176 1.433 2.205 2.18 1.029.76 3.455.233 3.455.993 0 .759-2.634.894-3.614.637-.993-.258-1.299-.331-1.997.012-.699.355.478.698.429 1.311-.037.625-.135.906 1.127.857 1.249-.049 1.163 1.127.379 1.618-.771.49-.637.171-1.506 1.225-.858 1.053-.785 1.666-.454 2.352.343.673-1.507 1.727-2.499 1.727-.992 0-.686.919-.416 1.605.269.686 1.212 1.433-4.815 4.03-6.027 2.61-15.62 1.777-17.274.846-1.653-.931 5.66-4.839 7.62-7.069 1.973-2.217-6.921-4.569-8.881-6.799-1.961-2.23 2.977-3.749-.27-5.207-3.234-1.458-6.089-4.067-6.223-6.603-.123-2.536-3.051-1.837-5.391-4.19-2.352-2.352 1.581-3.05-2.928-3.05-4.508 0-13.279-5.145-14.982-5.844-1.715-.698.122-2.597 1.899-5.782 1.788-3.173.894-1.838-4.19-.698-5.084 1.139-4.888-.784-9.789-5.256-4.888-4.471-3.283-5.476-6.652-7.632-3.356-2.156-1.127.514.76 3.43 1.911 2.928-10.928 2.989-14.664-10.229-3.737-13.207-18.352-15.24-22.419-25.727s-30.982-25.849-34.278-47.57c-3.283-21.733 20.643-17.947 21.99-19.135l.049.11Z" fill="#14549F"/><path d="M581.4 106.182s2.18-.331 1.911.343c-.27.661-1.58.747-2.242.49-.649-.27-1.47-.27-1.176-.674.294-.416 1.397-.135 1.519-.147l-.012-.012ZM575.117 105.74c.637-.343 1.875-1.813 3.7-.49.416.307 1.482 1.189.453 1.091a29.116 29.116 0 0 0-2.658-.147c-.919 0-2.144-.098-1.507-.454h.012ZM573.656 104.884c.539-.11.514.122.808.49.294.355-.061.809-.612.735-.551-.073-.772-1.09-.184-1.225h-.012ZM574.203 106.855c.502.147.956.784.907 1.176-.037.404-.515.49-1.164.38-.637-.111-1.495-.184-1.25-.76.245-.576.331-1.139 1.495-.809l.012.013ZM578.601 106.756c.269.086 1.666.405 1.752.858.085.453-.466.772-1.336.857-.87.086-1.274.172-1.703-.428-.441-.601-.808-.613-.453-1.029.355-.405 1.127-.441 1.74-.258ZM530.98 139.811c.502-1.532-.196-2.781.723-3.088.931-.318.429.049 1.335.735.821.625 2.095 1.961 2.291 2.414.196.453-1.629 1.776-1.911 2.144-.282.367-.6-.588-.87-.233-.269.355-.233 1.078-1.445.735-1.213-.331-1.973-.38-1.422-1.213.539-.845.797.037 1.299-1.494ZM513.701 132.214c1.813-.698 4.361-1.029 5.647-.857 1.299.183 4.092.147 3.026-.968-1.078-1.127-3.209-3.847-1.801-4.055 1.397-.208 2.781 1.421 4.227 1.445 1.421.025.502 1.948 1.213 2.61.833.759.747 2.719 1.482 3.038.723.319 2.781.417 2.597 1.139-.183.735-2.536-.281-2.156.49.392.772 2.671 1.176 2.083 1.617-.588.454-2.61.356-4.753-.073-2.12-.429-2.781.147-3.235.612-.453.466-1.176.417-2.033.233-.858-.183-2.254-.723-1.532-.085.735.637 2.144 1.237 1.875 1.813-.27.563-.76 1.31-1.887.245-1.127-1.066-3.43-1.274-3.81-2.058-.38-.785-2.046-1.115-1.127-2.193.919-1.078.723-1.213 0-1.556-.723-.356-1.629-.699.184-1.397ZM511.643 136.613c1.384-.49 2.401 1.225 2.989 1.96.588.735-.612.699-.772 1.556-.159.858-2.254.478-3.148.135-.882-.343-1.078-3.087-1.336-4.031-.245-.955 1.667.613 2.267.392v-.012ZM581.106 222.833c.919-.514 3.467-3.724 5.917-3.81 2.462-.085 3.565-2.119 6.444-3.222 2.879-1.102 4.998-2.878 7.51-3.283 2.499-.416 7.571-1.213 12.483-.612 4.913.588 3.626.955 6.432 2.536 3.54 1.996 1.445 3.981 0 4.483-1.434.515-8.049-2.29-11.504-1.445-3.479.845-6.615 1.69-8.465 1.862-1.874.171-1.776 2.622-3.479 3.724-1.691 1.103.086 3.136-.931 2.879-1.005-.257-9.225.588-13.966 0-4.753-.6-1.36-2.634-.429-3.136l-.012.024ZM564.172 226.814c2.291-1.274 6.113-1.788 8.135-2.095 2.842-.428 5.414 1.924 5.414 3.541 0 1.605 4.827 1.69 6.591 1.948 1.765.257.601 2.621-2.695 3.271-3.295.637-7.277.453-8.624 2.229-1.36 1.777-3.565-1.445-5.758-2.229-2.193-.797-3.639-1.066-6.089 0-2.438 1.065-1.899-.466-2.756-2.426-.846-1.96 3.516-2.965 5.794-4.239h-.012ZM551.335 231.632c1.299-.098 3.185.196 4.067.931.883.735-1.653 2.07-3.234 2.34-1.592.269-1.592.906-2.952.269-1.36-.637-2.377-1.078-3.051-1.678-.661-.601 2.451-1.642 5.17-1.85v-.012ZM594.739 203.624c3.724-.932 2.879 2.278 2.046 4.312-.821 2.033-1.789 2.621-4.337 2.707-2.536.086-1.176-3.81-.796-5.084.392-1.274 1.923-1.666 3.087-1.948v.013ZM503.565 96.26c5.526-.944 9.568-1.9 18.744-3.43 9.164-1.532 14.517-1.017 17.69-.723 3.173.306 6.297.294 7.363.33 2.107.086 4.704 0 7.069.478 2.364.466-1.617 1.225-5.048 1.9-3.43.673-7.411-.38-11.76-.258-4.362.122-4.705 2.07-7.547 2.793-2.83.723.429 1.274-1.225 1.69-1.654.43-.466.76-1.74 1.434-1.261.686-1.984 2.756-8.759 6.101-6.775 3.344-6.566 2.119-9.984 2.928-3.43.808-6.53 2.205-9.446 2.842-2.915.637.037-6.015.343-8.086.294-2.082-5.255-.428-4.79-2.327.478-1.911-2.487-.049-5.206-1.483-2.72-1.433 8.759-3.234 14.284-4.177l.012-.012ZM474.9 104.456c2.095-.882 7.559-2.536 7.375-.882-.196 1.654-.601 3.136-1.973 3.369-5.267.894-8.257 1.482-8.146.404.11-1.078.649-1.984 2.744-2.879v-.012ZM434.099 126.395c4.643.061 11.111-1.629 7.007 2.977-3.148 3.541-4.741 5.415-7.448 6.444-2.708 1.017-6.297 1.556-5.133-2.377 1.176-3.932.931-7.105 5.574-7.044ZM394.976 165.512c2.964-4.741 2.756-8.76 6.1-11.173 3.345-2.413 28.398-30.137 20.239-13.892-1.189 2.389-11.688 9.911-8.637 10.327 3.05.429 4.055 1.776 1.102 5.256-2.964 3.467-7.044 4.545-8.085 9.163-1.054 4.631-3.197 6.554-6.138 8.012-2.952 1.458-2.033-.943-3.981.331-1.948 1.286-2.781 2.303-2.708-1.09.086-3.382-.845-2.205 2.12-6.934h-.012Z" fill="#14549F"/><path d="M383.876 175.913c13.832-16.379 4.435.539 8.319.318 3.896-.22 4.042-.33 4.141 1.225.269 4.362-2.291 11.173-1.605 14.824.673 3.638 1.09 7.203.808 7.706-.306.514.208.588-4.447 1.948-4.667 1.359-5.255 2.793-2.45 2.45 2.793-.343 4.484-1.446 3.479 1.36-1.017 2.793 1.042 4.055.674 6.174-.355 2.119-4.717 6.358-1.09 6.272 3.626-.085 6.627-1.188 4.753 6.015-1.874 7.192-3.148 13.611-3.063 18.058.086 4.459-3.65 12.851-9.053 21.99-5.415 9.139-9.825 19.038-15.166 16.33-5.33-2.695-6.261-6.933-9.14-2.952-2.878 3.982-7.705 6.517-8.134-.6-.429-7.118-2.034-14.125 1.838-31.693 3.859-17.555 16.318-53.058 30.161-69.425h-.025ZM409.497 234.313c.956.281 2.083 1.298 1.446 2.193-.637.894-1.838 1.323-2.316.257-.477-1.054.454-2.573.87-2.45ZM409.813 240.647c-.428 1.274-1.359 1.728-1.653 1.409-.307-.306-1.262-1.445-.613-1.85.649-.404 2.462-.147 2.266.429v.012ZM405.863 240.537c.172.49 1.127 1.776.417 2.156-1.372.735-1.507-.209-1.642-1.127-.147-.919 1.054-1.52 1.225-1.029ZM403.952 240.022c.22.539-.392 1.323-.882 1.544-.478.22-.846-.441-.478-1.201.257-.514 1.127-.882 1.348-.343h.012ZM404.007 237.107c.564.184.478.478.331.919-.135.441-.735 1.115-1.25.441-.514-.674.637-1.446.919-1.36ZM404.791 234.999c.38.123 1.36.527.796 1.103-.563.576-1.323.563-1.629.318-.294-.245-.392-.796-.27-1.053.147-.257.809-.466 1.091-.368h.012ZM407.458 236.494c.612.343 1.237.147.477 1.114-.759.968-1.102 1.605-1.654.883-.551-.723-.735-1.152-.624-1.397.122-.245 1.09-.98 1.788-.6h.013Z" fill="#14549F"/></g><path d="M362.489 154.74c9.213-16.649 20.054-32.403 32.501-46.835 12.496-14.37 26.695-27.295 42.278-38.271 1.899-1.446 3.969-2.647 5.953-3.97 2.01-1.274 3.97-2.621 6.028-3.834l6.211-3.54c1.041-.589 2.07-1.201 3.112-1.765l3.197-1.592 6.407-3.185c2.181-.968 4.386-1.887 6.567-2.83 4.337-1.997 8.918-3.418 13.39-5.084 18.119-6.052 37.205-9.127 56.304-9.372 19.124-.086 38.235 2.94 56.476 8.636 18.181 5.942 35.491 14.518 51.307 25.237 15.754 10.842 30.088 23.693 42.816 37.941 12.68 14.309 23.681 30.063 33.102 46.687 9.408 16.637 17.212 34.156 23.35 52.25 6.113 18.107 10.609 36.74 13.537 55.618 2.952 18.879 4.214 38.002 4.165 57.114-.184 19.111-1.887 38.21-5.182 57.051l-4.643-.82c3.357-18.56 5.133-37.402 5.415-56.268.147-18.879-1.005-37.769-3.822-56.44-2.794-18.67-7.143-37.107-13.084-55.03a301.95 301.95 0 0 0-22.799-51.747c-9.225-16.453-20.006-32.073-32.452-46.271-12.496-14.126-26.584-26.879-42.057-37.66-15.559-10.657-32.563-19.196-50.461-25.15-17.972-5.709-36.789-8.796-55.655-8.808-18.854.147-37.733 3.087-55.68 8.98-4.435 1.617-8.955 3-13.255 4.961-2.181.931-4.362 1.813-6.53 2.769l-6.358 3.124-3.185 1.568c-1.054.551-2.059 1.151-3.1 1.727l-6.174 3.48c-2.046 1.188-3.994 2.51-6.003 3.772-1.973 1.3-4.018 2.475-5.917 3.908-15.51 10.818-29.684 23.571-42.18 37.794-12.434 14.285-23.313 29.904-32.575 46.443-18.584 33.065-30.43 69.756-36.115 107.243-2.854 18.768-4.03 37.757-3.92 56.746a345.967 345.967 0 0 0 5.378 56.647 345.885 345.885 0 0 1-5.66-56.635c-.22-18.989.858-38.026 3.626-56.831 5.501-37.574 17.176-74.436 35.675-107.734l.012-.024Z" fill="#fff" opacity=".55"/><path d="M472.405 178.554c3.124-18.376 6.983-36.654 11.957-54.638 2.499-8.992 5.28-17.911 8.465-26.694 3.222-8.772 6.799-17.433 11.099-25.764 4.3-8.318 9.25-16.404 15.596-23.448 3.197-3.479 6.774-6.7 10.89-9.188 4.104-2.475 8.833-4.202 13.734-4.337 4.888-.232 9.739 1.152 13.978 3.394 4.226 2.303 7.95 5.366 11.209 8.796 6.542 6.873 11.565 14.897 15.914 23.178 8.612 16.65 14.615 34.413 19.626 52.348 4.961 17.972 8.771 36.225 11.846 54.577 3.075 18.364 5.415 36.85 7.155 55.374 3.479 37.058 4.655 74.325 3.932 111.518-.772 37.194-3.467 74.375-8.735 111.201 5.084-36.851 7.571-74.032 8.147-111.213.515-37.181-.845-74.399-4.52-111.396-1.838-18.499-4.264-36.936-7.437-55.239-3.185-18.303-7.056-36.495-12.103-54.357-5.085-17.824-11.173-35.478-19.749-51.857-4.324-8.147-9.323-16-15.668-22.603-3.161-3.295-6.738-6.174-10.683-8.306-3.982-2.07-8.38-3.307-12.814-3.063-4.435.147-8.735 1.728-12.557 4.055-3.835 2.353-7.228 5.428-10.303 8.809-6.089 6.824-10.904 14.762-15.093 22.97-4.178 8.22-7.682 16.808-10.818 25.506-3.111 8.723-5.819 17.58-8.257 26.523-4.851 17.898-8.588 36.091-11.601 54.393-3.026 18.315-5.293 36.741-6.983 55.227-3.381 36.973-4.508 74.142-3.7 111.261.833 37.108 3.602 74.191 8.955 110.894l-4.667.674c-5.194-36.96-7.767-74.215-8.404-111.482-.625-37.267.71-74.57 4.3-111.666 1.801-18.547 4.19-37.046 7.314-55.422l-.025-.025Z" fill="#fff" opacity=".55"/><path d="m286.12 239.795.392 2.487c.27 1.654.478 3.32.809 4.961l1.213 4.876c.22.797.355 1.642.637 2.426l.796 2.377c.564 1.58 1.017 3.185 1.654 4.741 1.36 3.062 2.536 6.198 4.214 9.102.797 1.47 1.519 2.977 2.377 4.41l2.671 4.251c.453.699.857 1.421 1.347 2.107l1.482 2.022 2.953 4.042 3.21 3.847c1.078 1.274 2.119 2.585 3.295 3.761 2.315 2.414 4.545 4.901 7.032 7.13 9.666 9.225 20.447 17.237 31.852 24.208 11.405 6.97 23.411 12.924 35.76 18.07 24.734 10.155 50.632 17.506 76.996 22.075 13.194 2.291 26.45 4.092 39.791 5.232 13.341 1.09 26.731 1.629 40.121 1.678 13.39-.049 26.768-.588 40.109-1.678 13.341-1.14 26.621-2.941 39.803-5.232a370.877 370.877 0 0 0 39.116-8.955c12.851-3.687 25.543-8 37.892-13.133 12.336-5.133 24.354-11.099 35.76-18.07 11.405-6.97 22.186-14.982 31.852-24.195 2.487-2.217 4.717-4.716 7.032-7.13 1.188-1.188 2.23-2.487 3.295-3.761l3.21-3.847 2.953-4.042 1.482-2.022c.49-.673.906-1.408 1.36-2.107l2.67-4.239c.858-1.433 1.581-2.94 2.389-4.41 1.666-2.903 2.842-6.039 4.202-9.102.637-1.544 1.091-3.161 1.654-4.741l.796-2.377c.294-.784.417-1.617.637-2.426l1.213-4.875c.319-1.642.539-3.308.809-4.962l.392-2.487c.086-.833.11-1.678.171-2.511l.319-5.035-.147 5.047c-.025.845-.037 1.691-.086 2.524l-.306 2.511c-.208 1.666-.368 3.357-.625 5.023l-1.041 4.949c-.294 1.666-.821 3.271-1.323 4.888-.515 1.605-.944 3.247-1.544 4.827-1.286 3.124-2.401 6.334-4.018 9.311-.772 1.507-1.458 3.062-2.303 4.532l-2.597 4.362c-.442.723-.846 1.47-1.324 2.18l-1.445 2.083-2.891 4.178-3.149 3.981c-1.053 1.323-2.082 2.683-3.246 3.908-2.279 2.511-4.484 5.096-6.946 7.412-9.617 9.555-20.447 17.825-31.877 25.077-11.442 7.253-23.509 13.476-35.919 18.879-12.41 5.402-25.176 9.959-38.161 13.769a379.639 379.639 0 0 1-39.46 9.372 447.872 447.872 0 0 1-40.195 5.44 513.852 513.852 0 0 1-40.501 1.8 513.9 513.9 0 0 1-40.513-1.8 444.112 444.112 0 0 1-40.195-5.428 379.32 379.32 0 0 1-39.472-9.371c-12.974-3.81-25.751-8.355-38.161-13.758-12.41-5.39-24.477-11.626-35.919-18.878-11.43-7.253-22.26-15.534-31.877-25.078-2.475-2.327-4.68-4.912-6.946-7.411-1.176-1.238-2.193-2.585-3.247-3.908l-3.148-3.982-2.891-4.177-1.446-2.083c-.478-.698-.882-1.446-1.323-2.168l-2.585-4.374c-.833-1.47-1.531-3.014-2.291-4.533-1.617-2.989-2.732-6.199-4.018-9.31-.6-1.581-1.029-3.222-1.543-4.827-.503-1.617-1.03-3.222-1.324-4.888l-1.041-4.95c-.269-1.666-.429-3.356-.637-5.022l-.294-2.512c-.061-.833-.061-1.69-.086-2.523l-.147-5.048.319 5.035c.061.833.086 1.679.171 2.512v-.037ZM359.383 142.428c5.611 7.718 12.667 14.333 20.483 19.834 7.755 5.562 16.122 10.266 24.796 14.309 8.673 4.042 17.604 7.497 26.707 10.437 18.229 5.893 37.046 9.899 56.022 12.557a437.98 437.98 0 0 0 28.594 2.928c9.58.625 19.16.895 28.752.931 9.58-.024 19.16-.294 28.741-.931a437.1 437.1 0 0 0 28.593-2.928c18.976-2.658 37.794-6.652 56.023-12.557 9.114-2.94 18.057-6.407 26.719-10.437 8.661-4.043 17.028-8.747 24.795-14.309 7.804-5.501 14.848-12.104 20.471-19.834 2.671-3.945 5.072-8.11 6.701-12.618 1.605-4.509 2.573-9.25 2.757-14.077.049 4.827-.686 9.654-2.095 14.309-1.482 4.643-3.761 8.98-6.346 13.096-5.439 8.086-12.398 15.093-20.14 20.974-15.547 11.785-33.408 20.054-51.723 26.388-18.352 6.395-37.389 10.536-56.55 13.488-9.604 1.409-19.246 2.377-28.924 3.112-9.666.673-19.368.98-29.046 1.053-9.703-.061-19.393-.367-29.059-1.053-9.666-.723-19.32-1.703-28.912-3.112-19.172-2.952-38.21-7.081-56.562-13.476-18.302-6.334-36.176-14.603-51.722-26.388-7.743-5.893-14.701-12.9-20.129-20.986-2.584-4.116-4.875-8.453-6.358-13.096-1.408-4.655-2.144-9.482-2.082-14.309.184 4.827 1.151 9.568 2.768 14.077 1.63 4.508 4.019 8.685 6.702 12.618h.024ZM498.01 44.214c.87.539 1.838.943 2.818 1.274 1.972.674 4.018 1.151 6.076 1.519 4.129.784 8.331 1.237 12.521 1.617 4.214.319 8.416.637 12.643.735 4.214.184 8.44.27 12.667.233 4.214.037 8.453-.061 12.655-.22 4.226-.11 8.428-.43 12.643-.736 4.189-.392 8.391-.833 12.52-1.617 2.058-.38 4.116-.845 6.076-1.519.98-.33 1.96-.735 2.818-1.274.87-.514 1.691-1.25 1.874-2.328.098 1.115-.649 2.157-1.445 2.892-.821.76-1.764 1.36-2.732 1.898-1.923 1.09-3.969 1.838-6.027 2.56-4.141 1.349-8.38 2.304-12.643 3.027-4.264.76-8.551 1.176-12.851 1.543-4.3.319-8.613.43-12.913.49-4.312-.048-8.624-.159-12.912-.477-4.3-.38-8.6-.784-12.863-1.556-4.264-.71-8.502-1.666-12.631-3.026-2.058-.723-4.116-1.482-6.039-2.56-.956-.527-1.887-1.14-2.708-1.9-.808-.734-1.556-1.776-1.445-2.89.183 1.09 1.004 1.813 1.874 2.327l.024-.012Z" fill="#fff" opacity=".55"/><path d="M551.88 0c148.296 0 268.513 132.504 268.513 295.942 0 163.437-120.217 236.599-268.513 236.599-148.295 0-268.451-73.162-268.451-236.599C283.429 132.504 403.621 0 551.88 0Z" fill="url(#c)" fill-opacity=".8"/><path d="M268.686 650.848 64.808 767.402.002 747.727l219.705-120.768 48.979 23.889Z" fill="url(#d)"/><path d="M324.608 274.407c2.953-3.418 7.118-10.989 6.812-12.998-.062-.012-.098-.024-.16-.024-1.114 0-3.479 2.989-5.586 5.647-1.152 1.458-2.328 2.941-3.393 4.178-.674.784-1.556 1.176-2.61 1.176-2.107 0-4.557-1.568-6.53-2.818-1.176-.747-2.29-1.458-2.817-1.458-5.329 1.936-7.473 8.502-8.76 12.435-.294.894-.551 1.666-.784 2.254-2.143 5.268-21.745 22.627-31.656 30.456-.906.71-.967 2.486-.183 4.753 1.298 3.773 5.329 9.078 10.156 9.078 1.482 0 2.927-.503 4.312-1.507 3.246-2.328 8.232-9.874 13.512-17.874 6.738-10.193 13.697-20.741 17.495-20.741h.11c4.986 0 9.531-2.548 11.748-4.949 1.054-1.127 1.581-2.23 1.519-3.075-.343.086-1.457.6-2.536 1.09-1.739.784-3.699 1.667-4.875 1.667-1.409-.785-.515-1.85 2.401-5.17l1.837-2.107-.012-.013Z" fill="#fff"/><path d="M324.791 274.566c-3.271 3.798-5.611 6.199-5.096 6.677.159.147.392.208.674.208 1.948 0 6.444-2.67 7.46-2.67.135 0 .196.036.209.134.245 3.198-6.897 8.331-12.704 8.331a8.03 8.03 0 0 1-.784-.037h-.147c-6.518 0-23.363 33.175-30.86 38.566-1.507 1.078-3.014 1.543-4.459 1.543-7.351 0-13.158-11.883-10.119-14.26 10.584-8.355 29.548-25.334 31.582-30.345 1.335-3.271 3.112-12.422 9.568-14.799a.565.565 0 0 1 .196-.036c1.507 0 5.954 4.287 9.359 4.287.907 0 1.752-.306 2.426-1.09 3.357-3.847 7.743-10.205 9.115-10.205.061 0 .134.012.183.049 1.532.943-3.319 9.886-6.603 13.684v-.037Zm-.367-.318c3.565-4.116 7.448-11.981 6.738-12.925-.784.172-3.382 3.443-5.293 5.844-1.139 1.446-2.327 2.94-3.405 4.178-.723.833-1.666 1.261-2.794 1.261-2.192 0-4.667-1.58-6.664-2.854-1.09-.698-2.23-1.421-2.72-1.421-5.096 1.874-7.142 8.122-8.502 12.251-.306.894-.551 1.666-.796 2.266-2.156 5.305-21.806 22.713-31.729 30.553-.809.637-.846 2.353-.111 4.484 1.287 3.7 5.219 8.919 9.936 8.919 1.421 0 2.83-.49 4.177-1.446 3.222-2.303 8.429-10.192 13.451-17.812 7.081-10.72 13.77-20.851 17.691-20.851h.183c.245.024.49.024.748.024 4.03 0 8.551-2.523 10.756-4.912.845-.919 1.36-1.789 1.458-2.524-.503.147-1.421.564-2.193.919-1.752.796-3.749 1.69-4.986 1.69-.429 0-.76-.11-1.005-.33-.772-.699.319-1.936 3.222-5.256.564-.637 1.176-1.335 1.838-2.095v.037Z" fill="#14549F"/><path d="M271.416 310.305c-1.446.355-3.21.992-5.464 1.801-7.069 2.56-18.903 6.836-31.729 8.502-20.153 2.634-28.998 7.852-28.655 16.918.27 7.448 5.55 10.768 17.114 10.768 3.186 0 6.689-.245 10.426-.661 13.231-1.458 32.624-4.999 48.121-19.026 1.948-1.764 1.311-4.851.429-7.13-2.181-5.647-7.718-11.172-10.242-11.172Z" fill="#fff"/><path d="M282.031 329.514c-15.644 14.162-34.853 17.8-48.795 19.332-3.785.416-7.326.661-10.56.661-10.842 0-17.996-2.854-18.327-11.944-.392-10.463 9.984-15.583 29.708-18.156 16.82-2.181 31.926-8.906 36.74-10.242.184-.049.392-.073.6-.073 5.17 0 16.551 15.044 10.622 20.41l.012.012Zm-1.507-7.596c-2.156-5.586-7.424-10.401-9.114-10.401-1.127.319-2.867.944-5.048 1.728-7.117 2.572-19.025 6.872-31.986 8.563-24.857 3.247-27.81 10.082-27.614 15.669.172 4.753 2.205 9.604 15.914 9.604 2.928 0 6.285-.208 10.291-.649 13.071-1.433 32.207-4.937 47.435-18.719 1.519-1.384.722-4.227.11-5.807l.012.012ZM208.909 628.616c-1.948 1.899-4.422 12.471-2.671 14.407 1.017 1.127 2.426 1.776 3.847 2.328 11.675 4.471 29.672-11.1 32.649-13.685 2.731-2.364 5.512-7.62 4.006-10.891-1.238-2.695-35.283 5.354-37.819 7.841h-.012Z" fill="#14549F"/><path d="M238.534 618.181c-4.14 0-8.587.808-12.214 2.217-4.349 1.691-15.497 7.914-17.298 9.654-1.813 1.751-3.062 7.742-1.886 9.041.6.673 2.401 1.568 4.594 2.291.49.171 1.09.245 1.825.245 6.162 0 19.111-6.04 26.143-12.214 2.977-2.622 6.53-7.486 5.464-9.813-.22-.466-2.119-1.421-6.615-1.421h-.013Z" fill="#fff"/><path d="M246.255 619.098c1.507 3.271-3.063 8.845-5.77 11.222-6.934 6.076-20.116 12.52-26.939 12.52-.833 0-1.581-.098-2.193-.306-1.421-.478-4.092-1.507-5.109-2.622-1.752-1.936-.147-8.71 1.948-10.732 1.96-1.911 13.341-8.22 17.702-9.898 4.068-1.581 8.784-2.303 12.655-2.303 3.872 0 7.094.759 7.718 2.119h-.012Zm-2.033 1.237c-.282-.245-1.912-.943-5.673-.943s-8.342.796-11.773 2.132c-4.471 1.727-15.338 7.889-16.893 9.396-1.372 1.323-2.414 6.321-1.826 7.375.368.404 1.911 1.237 4.068 1.948.257.085.698.184 1.433.184 5.929 0 18.486-5.905 25.347-11.92 3.185-2.806 5.794-7.032 5.329-8.172h-.012Z" fill="#14549F"/><path d="M222.057 633.75c-.906 0-1.654.956-1.654 2.132 0 1.176.748 2.144 1.654 2.144.907 0 1.654-.968 1.654-2.144 0-1.176-.747-2.132-1.654-2.132ZM208.786 629.888s-3.05 2.904-2.082 10.45c0 0 1.298 2.193 5.084 2.475 0 0-.27-7.645 1.359-9.984l.833-1.544-3.27-4.312-1.924 2.928v-.013Z" fill="#14549F"/><path d="M214.655 623.296c-2.058.563-3.675 1.004-4.434 1.004l-.172.968c-.27 1.544-.539 3.087-.968 4.582.184-.466.846-.723 1.593-.723.539 0 1.041.147 1.47.404 1.102.686 1.642 2.132 1.25 3.381.257-.159.612-.183 1.016-.183h.454c2.536 0 5.035-.846 6.676-1.556 5.317-2.254 7.02-4.9 7.559-6.285.319-.833.392-1.629.159-2.119-.477-1.054-1.776-1.581-3.846-1.581-3.149 0-7.547 1.213-10.744 2.095l-.013.013Z" fill="#fff"/><path d="M229.459 622.671c.674 1.482-.6 5.66-7.84 8.723-2.059.882-4.472 1.568-6.775 1.568a9.65 9.65 0 0 1-1.691-.135c.356-1.127-.147-2.475-1.151-3.099a2.458 2.458 0 0 0-1.348-.368c-.649 0-1.298.221-1.862.539.564-1.899.845-3.883 1.213-5.844.061 0 .122.013.196.013 1.923 0 10.045-3.112 15.178-3.112 1.961 0 3.492.453 4.068 1.715h.012Zm-.429.196c-.429-.943-1.666-1.433-3.638-1.433-3.112 0-7.485 1.2-10.683 2.082-1.911.527-3.442.944-4.3 1.017l-.135.76c-.22 1.237-.441 2.511-.759 3.749a3.662 3.662 0 0 1 1.127-.172c.588 0 1.127.147 1.605.441 1.029.637 1.604 1.899 1.47 3.099.355.037.735.062 1.115.062 2.499 0 4.961-.833 6.578-1.532 5.427-2.303 7.008-5.071 7.424-6.149.306-.772.368-1.495.172-1.936l.024.012Z" fill="#14549F"/><path d="M208.013 416.05c-14.272 10.793-14.174 36.568-13.451 45.046.661 7.644 5.721 49.309 7.926 62.393-1.201 4.815-2.609 15.216-1.544 27.025 1.299 14.321 5.17 72.672 5.17 72.672 14.407 5.574 22.003-1.495 22.003-1.495s4.422-66.815 5.415-92.469c.624-15.301 18.094-91.599-.772-108.027-10.683-9.286-21.304-7.767-24.747-5.145ZM240.524 644.1c-1.947 1.899-4.422 12.471-2.67 14.395 1.004 1.127 2.425 1.788 3.834 2.327 11.675 4.472 29.672-11.099 32.661-13.684 2.732-2.364 5.513-7.62 4.006-10.891-1.238-2.695-35.27 5.354-37.818 7.841l-.013.012Z" fill="#14549F"/><path d="M270.147 633.677c-4.128 0-8.575.808-12.214 2.217-4.324 1.666-15.46 7.89-17.286 9.654-1.813 1.752-3.062 7.755-1.886 9.041.686.759 2.805 1.703 4.594 2.291.49.171 1.102.257 1.837.257 6.163 0 19.099-6.064 26.131-12.226 2.977-2.622 6.53-7.473 5.464-9.813-.22-.453-2.119-1.421-6.628-1.421h-.012Z" fill="#fff"/><path d="M277.88 634.584c1.507 3.271-3.063 8.833-5.77 11.221-6.934 6.077-20.103 12.521-26.915 12.521-.845 0-1.592-.098-2.217-.307-1.434-.477-4.092-1.506-5.109-2.621-1.752-1.948-.147-8.711 1.948-10.72 1.96-1.899 13.341-8.22 17.69-9.898 4.08-1.581 8.784-2.303 12.655-2.303 3.871 0 7.093.759 7.718 2.119v-.012Zm-2.034 1.249c-.269-.245-1.923-.943-5.684-.943s-8.33.796-11.785 2.144c-4.435 1.715-15.301 7.865-16.882 9.384-1.372 1.323-2.401 6.321-1.837 7.363.392.428 2.021 1.274 4.092 1.96.245.086.698.183 1.445.183 5.917 0 18.474-5.904 25.322-11.919 3.186-2.794 5.795-7.032 5.329-8.147v-.025Z" fill="#14549F"/><path d="M253.661 649.247c-.906 0-1.654.956-1.654 2.132 0 1.176.748 2.131 1.654 2.131.907 0 1.642-.955 1.642-2.131 0-1.176-.748-2.132-1.642-2.132ZM240.395 645.387s-3.05 2.904-2.083 10.45c0 0 1.311 2.193 5.084 2.463 0 0-.257-7.645 1.373-9.985l.833-1.543-3.271-4.325-1.936 2.94Z" fill="#14549F"/><path d="M246.198 638.782c-2.046.564-3.663 1.005-4.423 1.005l-.147.919c-.269 1.556-.551 3.111-.992 4.618.184-.465.845-.723 1.605-.723.551 0 1.041.147 1.47.405 1.103.686 1.642 2.144 1.25 3.393.257-.171.612-.184 1.016-.184h.429c2.561 0 5.047-.845 6.689-1.543 5.537-2.34 7.13-5.17 7.559-6.285.318-.821.38-1.617.147-2.119-.478-1.054-1.764-1.58-3.847-1.58-3.161 0-7.559 1.212-10.768 2.107l.012-.013Z" fill="#fff"/><path d="M261.037 638.158c.686 1.507-.6 5.66-7.828 8.735-2.058.882-4.484 1.568-6.787 1.568a9.359 9.359 0 0 1-1.666-.134c.355-1.127-.147-2.487-1.152-3.112a2.561 2.561 0 0 0-1.335-.368c-.649 0-1.311.221-1.875.539.564-1.911.858-3.883 1.213-5.843.062 0 .123.012.184.012 1.911 0 10.058-3.112 15.191-3.112 1.96 0 3.491.454 4.055 1.715Zm-.429.196c-.429-.943-1.654-1.433-3.626-1.433-3.124 0-7.51 1.213-10.719 2.095-1.961.539-3.418.943-4.264 1.005l-.134.735c-.221 1.237-.441 2.523-.76 3.785.343-.11.723-.184 1.139-.184a2.97 2.97 0 0 1 1.593.441c1.029.637 1.605 1.911 1.47 3.112.355.037.723.061 1.09.061 2.524 0 4.974-.82 6.604-1.519 5.451-2.315 7.007-5.072 7.436-6.15.294-.759.355-1.494.147-1.935l.024-.013Z" fill="#14549F"/><path d="M249.303 429.432c-6.358 0-12.336 3.234-14.872 5.146-12.937 9.776-11.761 22.553-10.977 31.006l.135 1.47c.6 6.983 7.203 50.62 10.07 68.274l.098.612-.441.441c-.784 1.924-1.715 16.245-.417 30.713 1.213 13.292 4.839 67.232 5.317 74.399 2.34.821 4.631 1.237 6.812 1.237 8.416 0 12.777-6.064 12.949-6.321-.172-.098 4.422-70.148 5.17-93.094.196-3.32.6-8.024 1.078-13.672 2.401-28.25 7.387-87.017-3.774-96.193-3.246-2.682-7.007-4.03-11.16-4.03l.012.012Z" fill="#fff"/><path d="M261.236 432.531c13.818 11.357 4.41 89.909 3.148 110.833-.772 23.24-5.403 93.755-5.403 93.755s-4.753 6.836-13.941 6.836c-2.364 0-5.023-.453-7.963-1.592 0 0-4.067-60.825-5.366-75.147-1.298-14.321-.465-28.96.723-31.643 0-.013.024-.037.037-.049-2.928-18.009-9.495-61.426-10.095-68.36-.723-8.477-2.94-22.762 11.332-33.542 2.23-1.691 8.502-5.391 15.595-5.391 3.896 0 8.049 1.115 11.92 4.3h.013Zm-1.532 1.863c-3.026-2.487-6.529-3.749-10.401-3.749-6.027 0-11.724 3.087-14.137 4.9-12.398 9.372-11.295 21.255-10.511 29.941l.134 1.482c.601 6.934 7.204 50.535 10.071 68.188l.122.735-.306.674-.061.135c-.809 2.217-1.789 15.718-.478 30.32 1.164 12.888 4.606 63.913 5.255 73.615 1.961.613 3.847.919 5.66.919 6.505 0 10.401-3.932 11.589-5.329.503-7.62 4.631-71.275 5.342-92.996.196-3.295.6-8.024 1.078-13.684 2.193-25.837 7.314-86.368-3.345-95.139l-.012-.012Z" fill="#14549F"/><path d="M267.399 357.113c0-23.766-36.777-33.028-47.962-33.028-22.639 0-23.632 28.802-20.508 49.848 3.149 21.047-5.856 69.242-5.856 69.242 16.649 19.221 76.568 6.186 76.568 6.186-5.807-24.955-2.242-71.385-2.242-92.236v-.012Z" fill="#30A5FF"/><path d="M256.025 287.65c-.111-1.225-5.758-2.18-12.864-2.18-4.042 0-7.277.33-8.048.821-1.605 1.029-2.72 2.744-3.59 4.287-4.3 7.694-4.435 14.456-4.557 21.611-.062 3.736-.147 7.607-.797 11.834 3.455 1.641 14.015 5.329 18.144 5.978-.11-.171-.306-.514-.49-.87-1.176-2.156-3.614-6.664-2.634-10.768.159 0 1.347.037 1.715.037 3.822 0 6.701-4.876 10.352-11.038l1.47-2.475c1.421-2.364.564-6.199-.098-7.889-.6-1.544.012-3.467.6-5.329.429-1.397.882-2.843.797-4.019Z" fill="#fff"/><path d="M256.269 287.637c.245 2.781-2.413 6.689-1.409 9.286.699 1.801 1.544 5.672.086 8.098-4.41 7.326-7.559 13.635-12.043 13.635-.477 0-.967-.061-1.47-.221-1.323 5.513 3.725 11.859 3.137 11.859h-.025c-3.981-.539-15.032-4.422-18.597-6.297 1.912-12.398-1.176-21.794 5.378-33.518.944-1.666 2.046-3.332 3.664-4.373.869-.552 4.3-.858 8.183-.858 5.954 0 12.937.723 13.084 2.401l.012-.012Zm-.478.037c-.061-.809-4.594-1.96-12.606-1.96-4.606 0-7.338.404-7.926.784-1.568 1.004-2.646 2.695-3.504 4.202-4.275 7.632-4.398 14.37-4.532 21.487-.062 3.651-.147 7.412-.748 11.516 3.614 1.813 13.194 5.17 17.372 5.966-.074-.134-.147-.281-.221-.416-1.188-2.193-3.663-6.75-2.658-10.94a.514.514 0 0 1 .22-.306.56.56 0 0 1 .245-.062c.049 0 .098 0 .135.025.466.135.907.196 1.335.196 3.688 0 6.53-4.815 10.156-10.928.478-.808.968-1.641 1.47-2.474 1.373-2.291.515-6.016-.122-7.669-.613-1.618 0-3.578.6-5.489.429-1.372.882-2.805.772-3.92l.012-.012Z" fill="#14549F"/><path d="M249.96 272.536a6.418 6.418 0 0 0-3.197.857l-1.875 1.078.062-2.156c.024-.907-.331-1.752-1.054-2.511-1.433-1.483-4.128-2.426-6.885-2.426-3.259 0-6.738 1.384-6.738 5.243v1.397l-1.384-.208a8.188 8.188 0 0 0-1.237-.086c-3.1 0-6.101 1.605-7.841 4.202-1.776 2.658-1.985 6.015-.576 9.445l.233.539-.282.502c-1.96 3.578 1.14 8.674 4.129 13.611 2.082 3.418 4.043 6.652 4.422 9.531 1.409.319 4.362.907 7.106.907 1.96 0 3.467-.307 4.337-.895 3.969-2.646 5.414-7.387 6.37-12.116.919-4.459 2.867-5.721 4.3-6.639 1.249-.797 1.997-1.275 1.997-4.092v-.772l.698-.331a3.908 3.908 0 0 1 1.703-.404c1.311 0 2.352.735 3.099 1.654 1.703-4.386 1.556-8.674-.477-12.03-1.605-2.659-4.251-4.313-6.898-4.313l-.012.013Z" fill="#fff"/><path d="M257.437 291.561s-1.017-3.124-3.198-3.124c-.367 0-.759.086-1.188.294 0 6.934-4.692 3.026-6.321 10.964-.993 4.876-2.536 9.985-6.885 12.888-1.213.821-3.063 1.091-4.999 1.091-3.944 0-8.244-1.152-8.244-1.152 0-6.713-12.361-17.555-8.466-24.685-3.601-8.772 2.953-15.314 9.531-15.314.478 0 .944.037 1.421.098 0-4.533 3.884-6.456 7.963-6.456 4.509 0 9.262 2.377 9.139 6.187a7.551 7.551 0 0 1 3.798-1.017c6.775 0 13.329 9.016 7.473 20.226h-.024Zm-1.605-14.088c-1.397-2.304-3.639-3.725-5.868-3.725-.907 0-1.789.233-2.597.699l-3.749 2.131.135-4.312c.024-.576-.221-1.115-.723-1.629-1.188-1.238-3.602-2.059-6.003-2.059-1.666 0-5.537.392-5.537 4.031v2.805l-2.769-.416a7.795 7.795 0 0 0-1.066-.074c-2.658 0-5.329 1.446-6.824 3.663-1.09 1.63-2.07 4.411-.465 8.319l.429 1.065-.552 1.017c-1.629 2.965 1.421 7.975 4.092 12.398 1.948 3.21 3.81 6.272 4.423 9.151 1.506.307 3.859.711 6.052.711 2.192 0 3.27-.429 3.663-.686 3.601-2.414 4.949-6.873 5.855-11.357 1.029-4.961 3.32-6.431 4.839-7.411 1.115-.711 1.446-.919 1.446-3.075v-1.532l1.384-.661a5.232 5.232 0 0 1 2.218-.515c.992 0 1.837.282 2.536.735.943-3.418.637-6.676-.931-9.273h.012ZM244.02 323.987c-8.992-4.582-12.729-5.317-16.943-5.55a3.746 3.746 0 0 0-3.332 1.691l-2.524 3.871 27.613 8.808c.074-3.895-2.572-7.681-4.802-8.82h-.012Z" fill="#14549F"/><path d="M298.178 452.202c-.796-.588-1.47-1.09-1.47-1.751 0-.392.257-.748.76-1.103 1.065-.76 2.781-1.507 4.422-2.242 1.581-.686 3.565-1.556 3.675-1.997-.379-.87-1.31-1.09-2.634-1.09-2.107 0-4.888.527-7.277 1.372h-.208c-2.291 0-4.153-1.874-5.525-3.246-.441-.429-.821-.809-1.09-1.03-9.225-7.142-30.198-38.589-30.407-38.908l-14.541 11.173c.38 0 23.84 23.619 34.437 33.432 2.242 2.083 4.63 5.133 3.344 7.963-1.372 4.263-.171 8.098 1.299 8.661 2.83 1.091 8.085 2.904 11.577 2.904 1.127 0 1.984-.184 2.523-.576.601-.416.735-2.609.833-4.226.123-1.924.184-2.708.686-2.708.294 0 .613.196 1.458 2.72 1.679 4.912 5.476 8.943 6.358 9.053-.722-3.651-3.773-12.532-6.652-16.943-.367-.563-.98-1.004-1.58-1.458h.012Z" fill="#fff"/><path d="M299.959 453.538c2.989 4.581 5.991 13.537 6.677 16.82.073.343 0 .502-.184.502-.98 0-4.925-4.263-6.615-9.225-.625-1.849-1.005-2.548-1.238-2.548-.673 0-.159 6.028-1.372 6.885-.624.441-1.556.625-2.658.625-3.675 0-9.237-1.985-11.663-2.916-1.715-.649-2.793-4.765-1.47-8.869.098-.331 1.899-3.014-3.234-7.792-10.756-9.96-34.425-33.812-34.425-33.812l14.885-11.111s21.059 31.643 30.357 38.847c1.115.87 3.859 4.324 5.991 4.324.208 0 .404-.036.6-.098 2.45-.869 5.293-1.384 7.363-1.384 1.874 0 3.124.429 2.867 1.397-.27 1.004-5.893 2.732-8.196 4.373-2.046 1.446 1.249 2.303 2.34 3.982h-.025Zm6.162 16.685c-.784-3.528-3.761-12.116-6.566-16.416-.331-.514-.931-.968-1.507-1.396-.808-.601-1.568-1.176-1.556-1.948 0-.466.282-.882.858-1.299 1.09-.772 2.805-1.519 4.471-2.254 1.421-.625 3.345-1.47 3.541-1.838.037-.147 0-.22-.037-.281-.196-.245-.919-.515-2.364-.515-2.083 0-4.839.515-7.204 1.36-.233.086-.49.135-.759.135-1.789 0-3.774-1.973-5.219-3.418-.429-.429-.809-.809-1.066-1.005-8.784-6.799-27.54-34.584-30.174-38.541l-14.027 10.475c3.136 3.148 24.147 24.256 34.021 33.407 3.271 3.051 4.459 5.893 3.369 8.294-1.287 3.982-.172 7.767 1.176 8.282 2.817 1.078 8.048 2.891 11.491 2.891 1.078 0 1.886-.184 2.389-.539.502-.355.637-2.744.723-4.031.122-2.021.183-2.94.918-2.94.503 0 .858.417 1.703 2.879 1.47 4.325 4.631 7.951 5.819 8.735v-.037Z" fill="#14549F"/><path d="M254.35 339.643c-10.976-2.695-15.313 7.951-17.984 23.681-2.242 13.267-3.932 31.937 5.023 50.081 3.528 7.154 20.189-4.962 20.238-9.752.037-4.79-.723-15.754 1.666-31.827 2.818-18.879.809-29.77-8.93-32.171l-.013-.012Z" fill="#14549F"/><defs><linearGradient id="a" x1="390.52" y1="470.41" x2="303.812" y2="699.128" gradientUnits="userSpaceOnUse"><stop stop-color="#30A5FF"/><stop offset="1" stop-color="#30A5FF" stop-opacity="0"/></linearGradient><linearGradient id="c" x1="551.911" y1="0" x2="551.911" y2="532.541" gradientUnits="userSpaceOnUse"><stop stop-color="#30A5FF" stop-opacity="0"/><stop offset="1" stop-color="#30A5FF"/></linearGradient><linearGradient id="d" x1="220.526" y1="638.363" x2="134.344" y2="767.402" gradientUnits="userSpaceOnUse"><stop stop-color="#30A5FF"/><stop offset="1" stop-color="#30A5FF" stop-opacity="0"/></linearGradient></defs></svg>