<svg width="112" height="24" viewBox="0 0 112 24" fill="none" xmlns="http://www.w3.org/2000/svg">
<path d="M5.09899 15.5314C5.09899 16.0335 5.36588 16.4051 5.89966 16.6461C6.43344 16.8871 7.13578 17.0076 8.00669 17.0076C9.21471 17.0076 10.198 16.7565 10.9565 16.2544C11.7431 15.7524 12.1365 15.1097 12.1365 14.3264H12.9371C12.9371 16.0938 12.3191 17.5197 11.0829 18.6042C9.84682 19.6887 8.21739 20.2309 6.19465 20.2309C4.39665 20.2309 2.90769 19.8594 1.72776 19.1163C0.57592 18.3532 0 17.3791 0 16.1942C0 15.1097 0.449498 14.2562 1.34849 13.6336C2.24749 12.9909 3.65217 12.4687 5.56254 12.0671L12.1365 10.7717V13.1214L7.33244 14.0854C5.84348 14.3867 5.09899 14.8687 5.09899 15.5314ZM17.2354 19.5983H12.1365L13.5271 16.1339L12.1365 15.6821V10.4403C12.1365 9.79766 11.8274 9.28553 11.2094 8.90395C10.5913 8.52237 9.77658 8.33158 8.76521 8.33158C7.72575 8.33158 6.86889 8.57258 6.19465 9.05458C5.5204 9.51649 5.12709 10.119 5.01471 10.8621L0 10.3801C0.30903 8.83366 1.25017 7.56841 2.82341 6.58433C4.39665 5.60024 6.40535 5.1082 8.84949 5.1082C11.3217 5.1082 13.3304 5.5902 14.8756 6.5542C16.4488 7.5182 17.2354 8.70312 17.2354 10.109V19.5983Z" fill="#EFEFEF"/>
<path d="M37.5334 6.31837H52.5497V9.94627H47.4463V19.7381H42.6368V9.94627H37.5334V6.31837Z" fill="#EFEFEF"/>
<path d="M65.5669 6.31837H70.6821L64.2263 19.9964C63.5678 21.3975 62.7094 22.415 61.6511 23.049C60.5928 23.683 59.4286 24 58.1586 24C57.1787 24 56.3007 23.8787 55.5246 23.636C54.7563 23.4012 54.0077 23.0216 53.2786 22.4972V19.1745C54.0234 19.6442 54.7171 19.9807 55.36 20.1842C56.0028 20.3878 56.7084 20.4895 57.4766 20.4895C58.1743 20.4895 58.7623 20.3408 59.2405 20.0434C59.7187 19.7459 60.1106 19.2372 60.4164 18.517L60.4281 18.4818H58.3233L52.6084 6.31837H57.9117L61.6981 15.4762L65.5669 6.31837Z" fill="#EFEFEF"/>
<path d="M82.2493 15.394L85.6947 6.31837H92.9148V19.7381H88.4111V10.0285L84.4247 19.7381H80.0386L76.064 10.0989V19.7381H71.5603V6.31837H78.7804L82.2493 15.394Z" fill="#EFEFEF"/>
<path d="M99.8176 15.2883L105.826 6.31837H112V19.7381H107.261V10.5098L101.076 19.7381H95.0904V6.31837H99.8176V15.2883Z" fill="#EFEFEF"/>
<path d="M26.5087 2.44464C28.3426 2.46907 31.9034 2.1634 32.2693 0C32.3087 1.13473 32.2478 2.31944 32.1469 3.44597C32.0615 4.11377 31.8503 4.6684 31.5133 5.10987C31.1508 5.551 30.5988 5.87811 29.8573 6.09121C29.116 6.28716 28.0705 6.37615 26.7207 6.35817L24.1995 6.32458L24.2517 2.41457L26.5087 2.44464Z" fill="#EFEFEF"/>
<path d="M24.1624 15.2882L30.1713 6.31824H36.3448V19.738H31.6059V10.5097L25.4206 19.738H19.4353V6.31824H24.1624V15.2882Z" fill="#EFEFEF"/>
</svg>
