<svg xmlns="http://www.w3.org/2000/svg" width="672" height="606" fill="none"><path fill="#14549F" d="M629.335 225.211c0 120.138-96.736 217.527-216.062 217.527-119.329 0-216.064-97.389-216.064-217.527 0-120.135 96.735-217.525 216.064-217.525 119.326 0 216.062 97.39 216.062 217.525Z"/><path fill="#fff" d="M366.425 30.032c3.345 0 5.679.554 7.543 5.43 1.06 2.777.957 8.374.848 14.3-.122 6.638-.261 14.162 1.325 17.809 2.043 4.7 4.93 7.923 7.539 8.414 1.212.229 2.342-.17 3.348-1.184 1.636-1.648 2.507-4.76 3.348-7.77 1.093-3.902 2.222-7.937 5.152-9.547 8.103-4.45 22.017-13.958 22.752-21.366.898-9.043-5.957-14.666-19.821-16.261-12.226-1.407-34.981-4.025-41.637 5.803-.053.088-.069.556.342 1.288.817 1.445 2.867 3.133 5.963 3.133.649 0 1.255-.014 1.828-.026.51-.012 1-.023 1.47-.023Zm17.918 47.687c-.321 0-.643-.031-.971-.092-3.195-.602-6.47-4.112-8.764-9.39-1.729-3.98-1.593-11.364-1.461-18.505.106-5.76.206-11.2-.738-13.674-1.706-4.46-3.374-4.423-7.418-4.334-.582.013-1.202.027-1.864.027-3.917 0-6.483-2.217-7.49-4.115-.606-1.143-.679-2.204-.199-2.912 7.226-10.667 30.636-7.974 43.213-6.526 19.861 2.285 21.864 12.311 21.292 18.084-.991 9.973-21.299 21.397-23.61 22.666-2.318 1.272-3.351 4.963-4.348 8.533-.9 3.216-1.831 6.54-3.771 8.496-1.143 1.15-2.467 1.742-3.871 1.742ZM300.019 223.212a5.38 5.38 0 0 0-2.745 4.944c.285 6.795-2.278 25.977-8.55 32.288-5.728 5.772-5.126 15.424-4.728 21.815.099 1.58.185 2.944.162 4.033-.232 10.822.755 15.391 12.139 20.484 1.649.739 3.159 1.381 4.54 1.964 8.556 3.636 12.464 5.291 13.259 14.881.208 2.536.44 6.689.735 11.944.927 16.679 2.331 41.884 4.96 49.821 3.364 10.16 10.748 27.431 14.669 31.378 1.917 1.931 5.162 3.368 6.745 2.345.778-.5 2.268-2.504-.682-10.265-.427-1.123-.841-2.202-1.238-3.239-4.914-12.795-7.623-19.844-1.262-27.957 6.404-8.169 17.331-27.414 18.196-34.809.937-7.993 5.162-12.529 8.937-13.48 3.44-.867 10.689-3.483 12.682-5.887 1.096-1.325-.212-5.07-1.477-8.692-.844-2.411-1.715-4.901-2.199-7.345-1.341-6.755-1.334-11.252 10.077-16.768 3.791-1.831 5.675-4.954 5.311-8.795-.473-4.96-5.166-11.418-14.348-13.865-15.546-4.142-24.752-12.851-22.907-21.672.976-4.672-2.719-5.964-8.828-7.682-2.696-.758-5.484-1.543-7.822-2.868-3.38-1.914-5.132-4.298-6.827-6.606-1.885-2.563-3.663-4.98-7.636-6.493-9.964-3.797-17.007-1.808-21.163.526Zm39.872 197.903c-2.209 0-4.818-1.364-6.616-3.175-4.149-4.176-11.573-21.471-15.07-32.027-2.699-8.149-4.109-33.487-5.043-50.256-.282-5.036-.523-9.387-.732-11.897-.709-8.583-3.851-9.918-12.249-13.484a232.255 232.255 0 0 1-4.566-1.977c-12.252-5.48-13.371-10.659-13.129-22.04.023-1.02-.06-2.354-.156-3.897-.417-6.686-1.049-16.792 5.209-23.093 5.49-5.527 8.384-23.494 8.066-31.044a7.042 7.042 0 0 1 3.596-6.47c4.467-2.51 12.01-4.657 22.577-.632 4.43 1.688 6.44 4.424 8.384 7.066 1.593 2.166 3.238 4.404 6.305 6.142 2.165 1.226 4.854 1.981 7.453 2.712 5.583 1.573 11.355 3.196 10.01 9.633-1.625 7.772 7.299 15.881 21.703 19.719 8.53 2.275 14.937 8.573 15.579 15.321.431 4.517-1.847 8.328-6.245 10.454-10.579 5.113-10.417 8.639-9.165 14.937.46 2.331 1.311 4.765 2.135 7.123 1.547 4.43 2.885 8.255 1.186 10.305-2.391 2.89-10.169 5.589-13.56 6.443-3.113.785-6.848 4.891-7.685 12.057-.908 7.781-11.868 27.136-18.54 35.643-5.779 7.367-3.342 13.705 1.506 26.328.398 1.04.815 2.119 1.242 3.245 2.483 6.546 2.493 10.672.026 12.262-.645.417-1.407.602-2.221.602ZM484.649 232.645c6.834 0 11.811 1.431 14.864 4.285 3.983 3.722 3.49 8.709 3.305 10.586-.023.229-.043.404-.043.517l-.007.678c-.212 22.832 1.745 27.858 2.596 28.961 3.57 4.616 10.715 17.076.033 32.977-8.464 12.596-7.189 37.743-1.689 44.104 1.196 1.384 2.461 1.731 3.858 1.059 5.02-2.407 10.176-8.722 15.633-15.407 4.874-5.967 9.914-12.143 15.543-16.504 12.301-9.523 27.835-49.484 21.434-61.087-4.858-8.801 1.348-16.639 6.331-22.937 2.49-3.149 4.845-6.123 5.573-8.762 2.335-8.46 1.152-12.353-2.195-17.406v-.001c-2.586-3.906-5.242-12.661 6.023-27.405 1.841-2.412 2.589-5.005 2.222-7.709-.805-5.929-6.609-11.123-10-13.691a2.033 2.033 0 0 1-.739-2.166 2.055 2.055 0 0 1 1.759-1.503c5.95-.678 20.45 1.164 26.669 32.836 4.235 21.572 7.03 26.479 8.629 26.797.947.185 2.219-1.732 3.245-3.275.602-.907 1.225-1.846 1.884-2.582 1.494-1.669 1.166-4.051.749-7.067-.6-4.33-1.341-9.718 3.39-15.186 4.858-5.614 7.255-13.96 8.411-20.04-15.348-62.102-56.871-113.811-114.051-142.092-.112 5.181-1.298 15.035-8.275 20.026-5.321 3.809-12.914 4.006-22.559.586a.932.932 0 0 1-.08-.033c-.043-.021-4.579-2.112-8.133.456-2.933 2.121-6.016 8.04-4.039 24.198 1.377 11.25 3.778 13.383 5.089 13.652 3.398.698 8.305-7.72 11.242-12.75 1.957-3.354 2.854-4.853 3.656-5.257 2.185-1.1 4.232-1.102 5.761-.004 3.199 2.298 3.971 8.953 2.351 20.347.004.034-.165 2.475-2.582 4.543-2.742 2.346-7.14 3.242-13.067 2.665-6.192-.604-10.894.37-13.589 2.818a7.644 7.644 0 0 0-2.54 5.627c0 .413.016.901.036 1.454.166 4.595.471 13.149-6.765 19.578-4.821 4.282-5.559 13.045-2.761 16.95 1.539 2.147 3.91 2.394 6.861.716 4.728-2.692 8.871-8.149 12.874-13.426 4.881-6.432 9.49-12.508 15.023-13.569 4.954-.95 9.577 1.588 14.05 4.044 4.653 2.555 9.047 4.967 13.471 3.409 4.861-1.714 5.665-7.465 6.314-12.087.523-3.744.977-6.977 3.639-6.977 2.702 0 6.775 2.664 9.908 6.479 3.043 3.706 4.43 7.625 3.811 10.752-.639 3.213-3.646 5.609-6.556 7.925-3.951 3.147-7.361 5.864-5.477 10.128 1.881 4.262 4.861 5.381 7.745 6.464 2.411.904 4.904 1.84 6.083 4.685.805 1.95.066 4.084-2.037 5.855-3.937 3.321-13.288 5.601-21.755.273-5.854-3.683-8.821-2.303-11.437-1.084-2.096.977-4.265 1.988-7.083-.374-2.043-1.716-3.434-4.09-4.656-6.185-2.483-4.245-4.089-6.563-8.308-4.815-3.688 1.529-6.708 3.851-9.91 6.309-3.431 2.636-7.322 5.624-12.636 8.057-11.57 5.294-17.941 11.119-17.941 16.402 0 2.301.497 4.736 1.02 7.314.94 4.628 2.007 9.875.811 16.489-2.295 12.703-.824 21.811 4.371 27.072 4.636 4.693 12.298 6.179 22.772 4.424 4.43-.745 8.391-1.116 11.871-1.116Zm21.586 125.167c-1.361 0-2.662-.665-3.792-1.967-5.933-6.864-7.423-32.745 1.567-46.126 10.076-15 3.381-26.696.033-31.027-2.633-3.407-3.053-18.192-2.944-29.997l.003-.662c0-.146.024-.378.053-.682.179-1.808.596-6.044-2.781-9.203-4.209-3.933-12.729-4.854-25.322-2.741-11.043 1.851-19.195.205-24.235-4.898-5.599-5.669-7.222-15.272-4.825-28.541 1.136-6.299.106-11.378-.804-15.86-.543-2.663-1.053-5.178-1.053-7.647 0-7.657 10.285-13.971 18.914-17.92 5.146-2.354 8.791-5.155 12.315-7.863 3.288-2.527 6.397-4.914 10.288-6.527 5.762-2.389 8.113 1.628 10.387 5.515 1.212 2.074 2.467 4.218 4.289 5.748 2.003 1.678 3.245 1.1 5.304.14 2.706-1.259 6.408-2.984 13.033 1.184 7.669 4.826 16.342 2.772 19.789-.135.887-.747 2.268-2.253 1.569-3.94-.9-2.176-2.765-2.875-5.126-3.761-2.907-1.091-6.523-2.448-8.688-7.353-2.401-5.442 2.043-8.984 5.967-12.108 2.672-2.129 5.437-4.331 5.957-6.944.523-2.635-.739-6.049-3.464-9.367-2.745-3.346-6.45-5.869-8.616-5.869-1.212 0-1.589 2.69-1.987 5.538-.672 4.803-1.592 11.38-7.41 13.43-5.133 1.809-10.064-.901-14.832-3.52-4.212-2.313-8.566-4.706-12.93-3.867-4.904.94-9.328 6.768-14.007 12.938-4.106 5.411-8.351 11.007-13.381 13.868-3.696 2.104-6.99 1.669-9.043-1.194-3.252-4.538-2.504-14.276 3.01-19.172 6.649-5.907 6.361-13.949 6.205-18.27a45.972 45.972 0 0 1-.036-1.513c0-1.222.301-4.337 3.086-6.864 3.099-2.813 8.102-3.904 14.874-3.244 5.348.52 9.421-.252 11.775-2.236 1.894-1.594 2.046-3.405 2.053-3.482 1.974-13.924-.195-17.763-1.666-18.818-1.281-.92-2.9-.432-4.036.14-.45.296-1.785 2.586-2.967 4.606-3.566 6.113-8.457 14.484-13.02 13.544-3.192-.657-5.228-5.45-6.407-15.085-1.669-13.635-.08-22.303 4.728-25.763 4.209-3.027 9.219-.876 9.775-.621 9.083 3.213 16.146 3.084 20.994-.384 7-5.009 7.632-15.651 7.583-19.994a.832.832 0 0 1 1.198-.761c28.282 13.774 53.769 34.047 73.713 58.627 20.15 24.84 34.835 54.346 42.468 85.329a.937.937 0 0 1 .01.354c-1.183 6.298-3.673 15.053-8.825 21.003-4.235 4.896-3.579 9.661-3 13.864.44 3.17.851 6.164-1.156 8.409-.579.648-1.169 1.536-1.741 2.394-1.437 2.161-2.924 4.393-4.961 3.989-2.387-.477-5.248-4.212-9.94-28.114-5.951-30.309-19.355-32.127-24.842-31.499a.382.382 0 0 0-.337.285.356.356 0 0 0 .139.394c3.596 2.724 9.758 8.27 10.646 14.797.43 3.16-.431 6.171-2.55 8.948-7.884 10.318-10 19.363-5.957 25.469 4.056 6.126 4.642 10.687 2.41 18.773-.817 2.967-3.274 6.069-5.874 9.354-4.92 6.219-10.497 13.265-6.175 21.096 7.304 13.236-10.034 54.044-21.875 63.213-5.48 4.245-10.457 10.341-15.272 16.239-5.579 6.834-10.847 13.288-16.205 15.858-.689.331-1.381.493-2.053.493ZM258.12 75.039c.152 8.985-1.798 17.092-5.794 24.101-12.398 21.742-12.982 33.09-14.041 53.69-.089 1.731-.181 3.522-.284 5.386-1.325 24.007 28.741 65.297 35.559 69.333 1.639.97 2.974 1.172 3.97.603 1.53-.871 3.351-4.063 3.351-14.321 0-7.423-2.516-16.758-7.477-27.745-3.771-8.355-4.811-15.226-3.092-20.421.712-2.15 2.457-3.704 4.669-4.156 2.417-.496 4.963.456 6.808 2.545 3.42 3.873 11.407 6.977 14.887 4.843 2.815-1.724 3.159-7.252 3.437-11.693.179-2.842.332-5.297 1.02-6.857.815-1.846 2.987-3.335 5.5-5.059 3.385-2.321 7.596-5.209 9.815-9.93 4.196-8.915 11.596-12.64 18.752-16.242 2.858-1.439 5.58-2.581 7.984-3.589 3.821-1.604 7.122-2.99 7.824-4.402.484-.974.474-2.777.464-4.865-.017-3.014-.037-6.765 1.235-10.863.708-2.275 1.722-4.669 2.702-6.984 1.917-4.535 3.901-9.225 2.636-11.263-.689-1.111-2.699-3.777-6.428-4.517-3.831-.76-8.327.692-13.367 4.315-8.087 5.813-12.01 7.625-14.991 6.927-2.394-.561-3.837-2.74-5.043-5.013-1.837-3.47-.973-9.293 2.156-14.489 4.02-6.682 10.52-10.515 17.828-10.515 11.305 0 17.351-2.86 17.974-8.502.374-3.386-4.05-7.514-8.931-8.332-2.712-.455-4.132.248-8.841 2.578-3.669 1.816-9.215 4.561-18.699 8.38-10.877 4.382-16.897 1.275-21.735-1.221-1.725-.891-3.361-1.736-5.057-2.18-9.48 7.092-26.116 21.407-34.791 30.458Zm18.179 155.103c-1.087 0-2.289-.384-3.59-1.156-8.245-4.884-37.671-47.385-36.376-70.862.103-1.862.195-3.651.284-5.379 1.037-20.171 1.664-32.345 14.258-54.432 3.897-6.832 5.768-14.766 5.569-23.583a.847.847 0 0 1 .232-.594c8.755-9.196 25.99-24.02 35.553-31.13a.831.831 0 0 1 .682-.145c2.037.461 3.875 1.41 5.825 2.416 4.768 2.461 10.176 5.252 20.345 1.157 9.424-3.796 14.934-6.524 18.583-8.329 4.811-2.381 6.612-3.273 9.857-2.728 5.878.985 10.792 5.83 10.315 10.162-.732 6.629-7.338 9.99-19.636 9.99-9.527 0-14.643 6.787-16.398 9.705-2.791 4.639-3.658 9.921-2.109 12.847 1.394 2.63 2.537 3.838 3.947 4.168 2.408.563 6.103-1.24 13.633-6.657 5.43-3.904 10.364-5.452 14.669-4.597 4.374.868 6.719 3.978 7.523 5.275 1.719 2.773-.245 7.416-2.52 12.794-.963 2.277-1.96 4.633-2.642 6.828-1.195 3.853-1.176 7.46-1.162 10.359.013 2.396.023 4.288-.636 5.616-.977 1.97-4.205 3.325-8.676 5.2-2.377.997-5.073 2.128-7.881 3.541-8.48 4.269-14.314 7.651-17.987 15.462-2.414 5.131-6.834 8.16-10.384 10.595-2.301 1.58-4.291 2.945-4.917 4.357-.566 1.287-.719 3.715-.881 6.286-.314 5.079-.675 10.836-4.229 13.013-4.612 2.827-13.5-1.183-17.013-5.161-1.464-1.66-3.371-2.394-5.222-2.015a4.52 4.52 0 0 0-3.417 3.045c-1.583 4.785-.566 11.247 3.03 19.209 5.059 11.205 7.622 20.771 7.622 28.432 0 9.006-1.371 14.165-4.192 15.775a4.108 4.108 0 0 1-2.059.536ZM618.788 265.196c-.692 0-1.132.98-1.847 2.93-.808 2.209-1.818 4.957-4.414 5.832-3.954 1.324-5.543 3.198-4.517 10.781 1.09 8.057-.609 18.997-5.341 23.365-.805.745-1.682 1.46-2.53 2.152-3.834 3.129-7.798 6.361-8.083 14.063-.364 9.944-9.152 19.626-15.272 23.322-5.327 3.218-13.381 8.083-13.381 16.083l-.003 1.51c-.01 4.483-.023 9.953.785 14.457 28.663-28.385 48.779-64.008 58.223-103.137-1.726-10.835-3.371-11.321-3.441-11.338a.832.832 0 0 0-.179-.02Zm-55.113 117.001a.83.83 0 0 1-.811-.645c-1.159-4.927-1.146-11.245-1.133-16.322l.004-1.506c0-8.941 8.881-14.305 14.185-17.51 5.633-3.404 14.13-12.736 14.467-21.958.312-8.453 4.765-12.089 8.696-15.295.867-.708 1.685-1.374 2.453-2.086 4.275-3.944 5.828-14.444 4.818-21.911-1.165-8.602 1.083-11.063 5.64-12.589 1.837-.619 2.659-2.851 3.38-4.821.772-2.103 1.643-4.484 3.957-3.967 1.315.294 3.04 2.02 4.752 12.871a.882.882 0 0 1-.013.324c-9.62 39.994-30.302 76.362-59.812 105.177a.825.825 0 0 1-.583.239v-.001Z"/><path fill="#fff" d="M413.273 8.521c-118.677 0-215.23 97.207-215.23 216.69 0 119.485 96.552 216.692 215.23 216.692 118.677 0 215.228-97.207 215.228-216.692 0-119.483-96.551-216.69-215.228-216.69Zm0 435.051c-57.938 0-112.406-22.712-153.373-63.958-40.966-41.242-63.527-96.077-63.527-154.403 0-58.325 22.561-113.159 63.527-154.402 40.967-41.244 95.434-63.958 153.373-63.958 57.934 0 112.406 22.714 153.37 63.958 40.967 41.243 63.527 96.077 63.527 154.402 0 58.326-22.56 113.161-63.527 154.403-40.964 41.246-95.436 63.958-153.37 63.958ZM109.66 520.705H87.682v46.852h21.978v-46.852Z"/><path fill="#14549F" d="M78.224 544.418c0 12.782 3.98 23.139 8.89 23.139s8.89-10.357 8.89-23.139c0-12.778-3.984-23.302-8.89-23.139-7.293.241-8.89 10.361-8.89 23.139Z"/><path fill="#fff" d="M87.222 522.113h-.083c-5.59.185-8.082 7.066-8.082 22.304 0 13.345 4.164 22.305 8.054 22.305 3.89 0 8.055-8.96 8.055-22.305 0-9.45-2.216-17.947-5.513-21.136-.803-.774-1.62-1.168-2.431-1.168Zm-.11 46.282c-5.454 0-9.725-10.534-9.725-23.978 0-11.695 1.152-23.689 9.697-23.973 1.309-.047 2.563.506 3.73 1.639 3.658 3.536 6.022 12.304 6.022 22.334 0 13.444-4.272 23.978-9.725 23.978Z"/><path fill="#14549F" d="M82.383 545.305c0 8.844 2.186 16.013 4.883 16.013 2.696 0 4.883-7.169 4.883-16.013 0-8.845-2.187-16.013-4.883-16.013-2.697 0-4.883 7.168-4.883 16.013Z"/><path fill="#fff" d="M87.264 530.126c-1.69 0-4.047 5.775-4.047 15.179s2.357 15.179 4.047 15.179c1.69 0 4.049-5.775 4.049-15.179s-2.358-15.179-4.049-15.179Zm0 32.027c-3.753 0-5.717-8.477-5.717-16.848 0-8.374 1.964-16.848 5.718-16.848s5.718 8.474 5.718 16.848c0 8.371-1.965 16.848-5.719 16.848ZM174.817 498.368h181.809l-.169-192.274-181.814-6.431.173 198.704.001.001ZM108.047 573.144h23.184v-53.909h-23.752l.568 53.909Z"/><path fill="#14549F" d="M98.07 546.189c0 14.888 4.468 26.955 9.978 26.955s9.977-12.067 9.977-26.955c0-14.887-4.467-26.954-9.977-26.954-5.51 0-9.978 12.067-9.978 26.954Z"/><path fill="#fff" d="M108.046 520.069c-4.415 0-9.142 10.497-9.142 26.12 0 15.623 4.727 26.12 9.142 26.12 4.415 0 9.143-10.497 9.143-26.12 0-15.623-4.728-26.12-9.143-26.12Zm0 53.908c-6.063 0-10.812-12.205-10.812-27.788s4.749-27.789 10.812-27.789 10.813 12.206 10.813 27.789c0 15.583-4.75 27.788-10.813 27.788ZM119.855 546.924c0 14.481 4.468 26.22 9.978 26.22s9.977-11.739 9.977-26.22c0-14.48-4.467-26.218-9.977-26.218-5.51 0-9.978 11.738-9.978 26.218Z"/><path fill="#14549F" d="M102.849 546.358c0 9.523 2.134 17.245 4.767 17.245 2.632 0 4.767-7.722 4.767-17.245 0-9.524-2.135-17.246-4.767-17.246-2.633 0-4.767 7.722-4.767 17.246Z"/><path fill="#fff" d="M107.614 529.947c-1.603 0-3.931 6.394-3.931 16.411 0 10.017 2.328 16.411 3.931 16.411 1.604 0 3.932-6.394 3.932-16.411 0-10.017-2.328-16.411-3.932-16.411Zm0 34.491c-3.677 0-5.601-9.096-5.601-18.08 0-8.984 1.924-18.08 5.601-18.08 3.678 0 5.602 9.096 5.602 18.08 0 8.984-1.924 18.08-5.602 18.08ZM199.419 518.189h-49.371v72.955h49.371v-72.955Z"/><path fill="#14549F" d="M160.283 555.272c0 19.812-4.583 35.871-10.237 35.871s-10.237-16.059-10.237-35.871c0-19.815 4.583-35.875 10.237-35.875s10.237 16.06 10.237 35.875ZM209.824 555.272c0 19.812-4.583 35.871-10.237 35.871s-10.237-16.059-10.237-35.871c0-19.815 4.583-35.875 10.237-35.875s10.237 16.06 10.237 35.875Z"/><path fill="#14549F" d="M161.25 554.667c0 19.811-5.55 36.477-11.204 36.477-5.654 0-10.237-16.06-10.237-35.871 0-19.815 4.583-35.875 10.237-35.875s11.204 15.457 11.204 35.269Z"/><path fill="#fff" d="M150.046 520.231c-4.447 0-9.403 14.391-9.403 35.041 0 20.646 4.956 35.036 9.403 35.036 4.795 0 10.369-15.569 10.369-35.642 0-19.709-5.474-34.435-10.369-34.435Zm0 71.746c-7.192 0-11.072-18.911-11.072-36.705 0-17.799 3.88-36.71 11.072-36.71 6.526 0 12.039 16.534 12.039 36.104 0 19.878-5.626 37.311-12.039 37.311Z"/><path fill="#14549F" d="M155.762 558.745c0 12.759-2.448 23.103-5.467 23.103-3.02 0-5.468-10.344-5.468-23.103 0-12.761 2.448-23.106 5.468-23.106 3.019 0 5.467 10.345 5.467 23.106Z"/><path fill="#fff" d="M150.295 536.474c-1.889 0-4.633 8.676-4.633 22.272 0 13.593 2.744 22.268 4.633 22.268 1.889 0 4.632-8.675 4.632-22.268 0-13.596-2.743-22.272-4.632-22.272Zm0 46.209c-4.138 0-6.303-12.043-6.303-23.937 0-11.898 2.165-23.941 6.303-23.941s6.302 12.043 6.302 23.941c0 11.894-2.164 23.937-6.302 23.937ZM221.885 525.58h-49.37v72.286h49.37V525.58Z"/><path fill="#14549F" d="M182.753 561.723c0 19.96-4.583 36.143-10.237 36.143s-10.238-16.183-10.238-36.143c0-19.961 4.584-36.143 10.238-36.143s10.237 16.182 10.237 36.143Z"/><path fill="#fff" d="M232.293 561.723c0 19.96-4.583 36.143-10.237 36.143s-10.238-16.183-10.238-36.143c0-19.961 4.584-36.143 10.238-36.143s10.237 16.182 10.237 36.143Z"/><path fill="#14549F" d="M183.082 562.325c0 19.961-4.913 35.541-10.567 35.541s-10.648-16.183-10.648-36.143c0-19.961 4.994-36.832 10.648-36.832s10.567 17.474 10.567 37.434Z"/><path fill="#fff" d="M172.514 525.725c-4.632 0-9.813 15.394-9.813 35.997 0 20.209 5.181 35.309 9.813 35.309 4.603 0 9.732-14.252 9.732-34.706 0-20.613-5.231-36.6-9.732-36.6Zm0 72.974c-6.332 0-11.483-16.586-11.483-36.977 0-18.113 4.39-37.666 11.483-37.666 7.043 0 11.402 19.865 11.402 38.269 0 20.397-5.008 36.374-11.402 36.374Z"/><path fill="#14549F" d="M176.956 561.275c0 13.521-2.788 24.481-6.228 24.481s-6.229-10.96-6.229-24.481c0-13.52 2.789-24.48 6.229-24.48s6.228 10.96 6.228 24.48Z"/><path fill="#fff" d="M170.726 537.629c-2.252 0-5.394 8.997-5.394 23.646 0 14.65 3.142 23.646 5.394 23.646 2.252 0 5.394-8.996 5.394-23.646 0-14.649-3.142-23.646-5.394-23.646Zm0 48.961c-4.637 0-7.064-12.735-7.064-25.315 0-12.579 2.427-25.315 7.064-25.315 4.637 0 7.064 12.736 7.064 25.315 0 12.58-2.427 25.315-7.064 25.315ZM335.854 523.259h-49.372v71.746h49.372v-71.746Z"/><path fill="#14549F" d="M296.721 559.13c0 19.811-4.583 35.874-10.239 35.874-5.652 0-10.235-16.063-10.235-35.874 0-19.812 4.583-35.872 10.235-35.872 5.656 0 10.239 16.06 10.239 35.872Z"/><path fill="#fff" d="M346.263 559.13c0 19.811-4.583 35.874-10.239 35.874-5.652 0-10.235-16.063-10.235-35.874 0-19.812 4.583-35.872 10.235-35.872 5.656 0 10.239 16.06 10.239 35.872Z"/><path fill="#14549F" d="M298.512 559.59c0 19.811-6.374 35.414-12.03 35.414-5.652 0-10.235-16.063-10.235-35.874 0-19.812 4.583-35.872 10.235-35.872 5.656 0 12.03 16.52 12.03 36.332Z"/><path fill="#fff" d="M286.483 524.093c-4.447 0-9.401 14.388-9.401 35.037s4.954 35.04 9.401 35.04c4.457 0 11.196-13.791 11.196-34.58 0-20.593-6.689-35.497-11.196-35.497Zm0 71.746c-7.192 0-11.073-18.914-11.073-36.709s3.881-36.709 11.073-36.709c6.732 0 12.865 17.715 12.865 37.169 0 18.971-6.133 36.249-12.865 36.249Z"/><path fill="#14549F" d="m44.237 549.868 13.124-1.444 3.017-21.874-17.043 2.838.902 20.48Z"/><path fill="#fff" d="m44.203 530.09.83 18.851 11.59-1.275 2.773-20.106-15.193 2.53Zm.035 20.613a.84.84 0 0 1-.544-.199.84.84 0 0 1-.29-.599l-.902-20.481a.833.833 0 0 1 .697-.857l17.042-2.841a.834.834 0 0 1 .965.937l-3.017 21.878a.837.837 0 0 1-.736.715L44.329 550.7c-.03.003-.061.003-.091.003Z"/><path fill="#14549F" d="m174.643 310.835 186.406 7.785.51-12.322-186.408-7.788-.508 12.325Z"/><path fill="#fff" d="M13.905 562.217H34.06v-44.028H13.41l.495 44.028Z"/><path fill="#fff" d="M24.169 540.802c0 11.828 3.883 21.414 8.673 21.414s8.673-9.586 8.673-21.414c0-11.825-3.883-21.414-8.673-21.414s-8.673 9.589-8.673 21.414Z"/><path fill="#14549F" d="M6.496 540.802c0 12.159 2.618 21.415 7.408 21.415 4.79 0 8.673-9.855 8.673-22.014 0-12.159-3.883-22.014-8.673-22.014s-7.408 10.454-7.408 22.613Z"/><path fill="#fff" d="M13.905 519.024c-3.808 0-6.573 9.159-6.573 21.778 0 12.312 2.642 20.58 6.573 20.58 3.785 0 7.838-8.51 7.838-21.179 0-12.669-4.053-21.179-7.838-21.179Zm0 44.027c-6.077 0-8.243-11.494-8.243-22.249 0-10.818 2.159-23.45 8.243-23.45 5.332 0 9.508 10.036 9.508 22.851 0 12.811-4.176 22.848-9.508 22.848Z"/><path fill="#14549F" d="M9.385 540.342c0 7.778 1.855 14.083 4.143 14.083 2.29 0 4.145-6.305 4.145-14.083 0-7.782-1.856-14.087-4.144-14.087-2.289 0-4.144 6.305-4.144 14.087Z"/><path fill="#fff" d="M13.529 527.09c-1.155 0-3.309 4.55-3.309 13.252 0 8.698 2.154 13.248 3.309 13.248 1.155 0 3.308-4.55 3.308-13.248 0-8.702-2.153-13.252-3.308-13.252Zm0 28.169c-3.269 0-4.98-7.503-4.98-14.917s1.711-14.921 4.98-14.921 4.979 7.507 4.979 14.921-1.71 14.917-4.98 14.917Z"/><path fill="#14549F" d="m173.339 520.285-24.005.139-8.757 21.291.093 17.875-17.077-.206-1.245-29.139-2.472-7.182-1.297-2.778-35.45 2.341-4.73 25.798H56.982v-35.156l115.53-3.053.826 10.07Z"/><path fill="#fff" d="m124.393 558.557 15.437.188-.088-17.026a.831.831 0 0 1 .062-.322l8.757-21.291a.839.839 0 0 1 .768-.517l23.103-.136-.687-8.384-113.928 3.01v33.511h19.884l4.605-25.113a.833.833 0 0 1 .767-.682l35.45-2.345a.845.845 0 0 1 .812.48l1.296 2.778a.897.897 0 0 1 .033.083l2.473 7.182a.872.872 0 0 1 .045.236l1.21 28.348h.001Zm16.277 1.867h-.011l-17.077-.205a.838.838 0 0 1-.824-.801l-1.239-29.017-2.419-7.027-1.036-2.219-34.232 2.262-4.613 25.159a.835.835 0 0 1-.822.686H56.982a.836.836 0 0 1-.834-.838v-35.156c0-.454.36-.825.812-.834l115.53-3.054a.84.84 0 0 1 .854.765l.826 10.07a.839.839 0 0 1-.827.904l-23.449.139-8.482 20.62.092 17.708a.834.834 0 0 1-.835.838h.001Z"/><path fill="#14549F" d="m43.491 528.342 13.87-1.755 1.108-89.885-15.307 6.03.329 85.61Z"/><path fill="#fff" d="m43.998 443.3.323 84.095 12.214-1.547 1.082-87.915-13.619 5.368v-.001Zm-.508 85.875a.834.834 0 0 1-.835-.831l-.329-85.61a.833.833 0 0 1 .529-.778l15.306-6.033c.26-.1.552-.067.78.089a.84.84 0 0 1 .362.699l-1.107 89.885a.833.833 0 0 1-.73.818l-13.871 1.755c-.035.003-.07.006-.105.006Z"/><path fill="#14549F" d="m43.214 461.142.36 87.372H21.618s2.732-30.722-9.427-28.6c-6.7 1.169-5.057 28.6-5.057 28.6H.835l1.55-73.438s9.058-13.918 11.833-13.911c8.464.02 28.996-.023 28.996-.023Z"/><path fill="#fff" d="M22.52 547.68h20.215l-.352-85.704c-3.939.01-20.768.04-28.167.023-1.379.004-6.768 6.858-11 13.335l-1.528 72.345h4.564c-.263-5.331-.94-27.411 5.795-28.586 2.174-.381 4.069.152 5.63 1.589 5.93 5.451 5.133 22.769 4.843 26.997v.001Zm21.054 1.669H21.618a.832.832 0 0 1-.832-.908c.02-.208 1.788-20.99-4.239-26.53-1.175-1.079-2.553-1.464-4.213-1.175-4.345.761-4.984 17.41-4.367 27.728a.83.83 0 0 1-.834.885H.835a.838.838 0 0 1-.596-.249.837.837 0 0 1-.239-.602l1.55-73.439a.837.837 0 0 1 .135-.437c2.183-3.354 9.534-14.291 12.532-14.291h.003c8.368.02 28.787-.023 28.993-.023.435.019.834.371.836.831l.36 87.372a.835.835 0 0 1-.835.838ZM43.162 442.731c7.518-3.576 13.821-5.861 13.821-5.861l-13.82 5.861Z"/><path fill="#fff" d="M43.162 443.569a.84.84 0 0 1-.755-.477.833.833 0 0 1 .396-1.112c7.468-3.553 13.83-5.871 13.895-5.894a.835.835 0 0 1 .57 1.569c-.063.023-6.356 2.315-13.748 5.831a.81.81 0 0 1-.358.083Z"/><path fill="#14549F" d="M43.161 442.731c-9.832 4.679-21.744 11.567-24.356 18.438l24.409-.027-.053-18.411Z"/><path fill="#fff" d="M42.33 444.058c-12.003 5.831-19.628 11.418-22.225 16.275l22.271-.026-.046-16.249Zm-23.525 17.947a.836.836 0 0 1-.78-1.132c2.725-7.169 14.979-14.232 24.778-18.894a.835.835 0 0 1 1.193.751l.053 18.408a.84.84 0 0 1-.243.593.842.842 0 0 1-.591.245l-24.41.029ZM43.49 529.176a.835.835 0 0 1-.104-1.665l13.143-1.659a.835.835 0 1 1 .21 1.655l-13.144 1.663a1.26 1.26 0 0 1-.106.006ZM18.623 475.41c-3.37 0-8.409.454-8.595 3.139-.295 4.268-.337 14.716-.342 19.007a1.182 1.182 0 0 0 1.188 1.189h9.94a1.19 1.19 0 0 0 1.188-1.189v-20.894c0-.63-.488-1.149-1.11-1.186a38.113 38.113 0 0 0-2.269-.066Zm2.19 25.004h-9.94a2.843 2.843 0 0 1-2.022-.838 2.835 2.835 0 0 1-.835-2.02c.005-4.311.048-14.802.346-19.123.322-4.649 8.05-4.894 12.628-4.626a2.858 2.858 0 0 1 2.682 2.855v20.894a2.861 2.861 0 0 1-2.859 2.858Z"/><path fill="#fff" d="M22.648 496.612h2.281a1.73 1.73 0 0 0 1.731-1.731v-12.13a1.73 1.73 0 0 0-1.731-1.731h-3.97c-1.075 0-1.946.87-1.946 1.947v10.01a3.636 3.636 0 0 0 3.634 3.635ZM28.587 529.086h5.425v-8.738h-5.425v8.738Zm6.26 1.669h-7.095a.835.835 0 0 1-.835-.834v-10.408c0-.46.374-.834.835-.834h7.095c.461 0 .835.374.835.834v10.408c0 .46-.374.834-.835.834Z"/><path fill="#14549F" d="m57.361 513.268 117.457-3.007-.967-211.751L58.085 400.969l-.723 112.299Z"/><path fill="#fff" d="m58.916 401.347-.715 111.064 115.777-2.964-.955-209.089L58.916 401.347Zm-1.555 112.756a.835.835 0 0 1-.836-.841l.724-112.299a.84.84 0 0 1 .282-.62l115.765-102.458a.836.836 0 0 1 1.389.623l.967 211.751a.834.834 0 0 1-.814.837l-117.457 3.007h-.02Z"/><path fill="#fff" d="M164.824 501.182a.834.834 0 0 1-.835-.834l-.001-179.188a.835.835 0 0 1 1.67 0l.001 179.188c0 .46-.374.834-.835.834ZM150.843 501.543a.835.835 0 0 1-.835-.834V333.266a.835.835 0 0 1 1.67 0v167.443c0 .46-.373.834-.835.834ZM136.865 501.964a.835.835 0 0 1-.835-.835l-.001-155.757a.836.836 0 1 1 1.67 0l.001 155.757c0 .46-.374.835-.835.835ZM108.905 502.807a.836.836 0 0 1-.836-.837V369.58a.835.835 0 0 1 1.671 0v132.39a.836.836 0 0 1-.835.837ZM122.884 502.384a.835.835 0 0 1-.835-.834V357.475a.835.835 0 0 1 1.67 0V501.55c0 .46-.374.834-.835.834ZM95.123 503.222a.836.836 0 0 1-.835-.835l-.197-120.697a.834.834 0 0 1 .834-.837c.462 0 .835.374.836.834l.197 120.697a.835.835 0 0 1-.834.838h-.001ZM80.946 503.649a.835.835 0 0 1-.835-.835V393.793a.835.835 0 0 1 1.67 0v109.021a.835.835 0 0 1-.835.835ZM66.78 504.076h-.001a.837.837 0 0 1-.834-.838l.185-97.343c0-.46.374-.831.835-.831h.001c.461 0 .835.374.834.834l-.184 97.343a.837.837 0 0 1-.835.835Z"/><path fill="#14549F" d="M356.627 498.367H174.329v11.063h182.298v-11.063Z"/><path fill="#fff" d="M175.163 508.596h180.628v-9.394H175.163v9.394Zm181.463 1.669H174.328a.835.835 0 0 1-.835-.834v-11.063c0-.461.374-.835.835-.835h182.298c.46 0 .834.374.834.835v11.063c0 .46-.374.834-.834.834Z"/><path fill="#14549F" d="M305.069 528.47h-79.187v15.742h79.187V528.47Z"/><path fill="#fff" d="M226.718 543.378h77.518v-14.073h-77.518v14.073Zm78.352 1.668h-79.187a.835.835 0 0 1-.835-.834V528.47c0-.464.374-.838.835-.838h79.187c.46 0 .835.374.835.838v15.742c0 .46-.375.834-.835.834Z"/><path fill="#14549F" d="m191.16 585.593 34.043-.169c4.769 0 7.524-3.907 7.524-8.307 0 0 .218-17.796-.036-24.64-.519-13.937-4.836-20.971-4.836-20.971h-48.227s2.367 9.332 3.648 20.11c.74 6.228-.628 26.467-.628 26.467 0 4.401 3.744 7.51 8.512 7.51ZM314.351 585.593l32.938-.169c4.768 0 7.523-3.907 7.523-8.307 0 0 .218-17.796-.037-24.64-.519-13.937-4.834-20.971-4.834-20.971h-48.229s2.715 9.007 2.838 19.858c.063 5.679.182 22.967.182 22.967v3.752c0 4.401 4.851 7.51 9.619 7.51Z"/><path fill="#14549F" d="m177.131 530.06 2.035 3.546h177.46V509.43l-183.288.831.833 14.616 2.96 5.183ZM361.56 318.216v-11.918l-188.049-7.47v13.374l188.049 6.014Z"/><path fill="#fff" d="M361.56 319.054a.834.834 0 0 1-.834-.837V307.1l-186.379-7.4v12.503a.836.836 0 0 1-1.67 0v-13.374c0-.225.092-.444.256-.603a.84.84 0 0 1 .612-.232l188.049 7.471a.832.832 0 0 1 .801.834v11.918a.835.835 0 0 1-.834.837h-.001ZM339.299 586.465c-5.411 0-11.428-.037-16.199-.087l-.831-.006c-6.418-.063-11.484-.109-14.408-1.954-2.453-1.546-3.917-4.351-4.119-7.897-.199-3.504-.132-7.59-.063-11.918.05-2.96.099-6.016.076-9.188-.083-10.557-1.665-18.699-2.155-20.974h-70.722a.835.835 0 0 1 0-1.672h71.39c.385 0 .719.264.812.639.023.092 2.245 9.371 2.344 21.993.027 3.192-.026 6.262-.073 9.229-.073 4.295-.139 8.354.057 11.795.175 3.036 1.331 5.315 3.344 6.583 2.523 1.589 7.626 1.635 13.533 1.695l.831.007c7.974.079 19.415.125 25.696.029h.013a.836.836 0 0 1 .014 1.669c-2.534.04-5.901.057-9.54.057Z"/><path fill="#14549F" d="m356.626 498.897 73.359.504V305.667l-72.524 12.953-.835 180.278v-.001Z"/><path fill="#fff" d="m357.463 498.069 71.687.49V306.667l-70.859 12.655-.828 178.748v-.001Zm72.521 2.169h-.003l-73.362-.506a.834.834 0 0 1-.828-.838l.834-180.277c0-.401.292-.746.689-.818l72.524-12.954a.834.834 0 0 1 .683.182.83.83 0 0 1 .301.639V499.4c0 .222-.09.437-.249.593a.83.83 0 0 1-.589.245Z"/><path fill="#14549F" d="m356.626 509.431-183.288.831v13.722s3.787 3.844 6.099 9.503c1.303 3.189 2.924 10.424 3.839 18.13.74 6.228-.627 26.467-.627 26.467 0 4.401 3.743 7.51 8.512 7.51l34.043-.169c4.769 0 7.524-3.907 7.524-8.308 0 0 .218-17.795-.037-24.639-.355-9.544-2.49-15.845-3.801-18.871h73.378c.798 3.278 2.192 10.049 2.281 17.758.063 5.679.182 22.967.182 22.967v3.752c0 4.401 4.851 7.51 9.62 7.51l32.937-.169c4.768 0 7.523-3.907 7.523-8.308 0 0 .219-17.795-.036-24.639-.354-9.544-2.49-15.845-3.801-18.871h5.652v-24.176Z"/><path fill="#fff" d="M228.891 532.768h73.378c.384 0 .718.265.811.639.821 3.371 2.215 10.189 2.305 17.951.066 5.679.185 22.967.185 22.967v3.758c0 3.994 4.54 6.676 8.782 6.676l32.93-.172c4.603 0 6.696-3.871 6.696-7.47 0-.189.215-17.865-.036-24.607-.355-9.477-2.491-15.705-3.736-18.573a.84.84 0 0 1 .769-1.169h4.817v-22.5l-181.618.824v12.557c.89.963 3.999 4.533 6.038 9.523 1.424 3.487 3.025 11.03 3.895 18.345.74 6.235-.568 25.795-.624 26.623.002 3.811 3.231 6.619 7.679 6.619l34.039-.172c4.6 0 6.693-3.871 6.693-7.47.002-.189.215-17.865-.036-24.607-.353-9.477-2.491-15.705-3.733-18.573a.834.834 0 0 1 .766-1.169Zm85.464 53.66c-5.053 0-10.457-3.351-10.457-8.345v-3.751s-.119-17.279-.182-22.958c-.083-7.132-1.292-13.457-2.106-16.934h-71.475c1.298 3.338 3.071 9.381 3.392 18.007.252 6.785.039 24.501.037 24.679 0 4.534-2.871 9.133-8.359 9.133l-34.039.169c-5.332 0-9.351-3.586-9.351-8.345.015-.258 1.356-20.288.633-26.367-.853-7.183-2.409-14.55-3.782-17.911-2.218-5.431-5.886-9.199-5.922-9.236a.833.833 0 0 1-.24-.586v-13.722c0-.46.371-.831.831-.834l183.289-.831h.003c.219 0 .431.086.59.241a.846.846 0 0 1 .245.593v24.176c0 .46-.375.834-.835.834h-4.407c1.298 3.338 3.069 9.381 3.391 18.007.251 6.785.039 24.501.036 24.679 0 4.534-2.871 9.133-8.358 9.133l-32.934.169Z"/><path fill="#fff" d="M173.339 511.096a.833.833 0 0 1-.835-.834v-11.894a.835.835 0 0 1 1.67 0v11.894a.833.833 0 0 1-.835.834ZM356.625 534.441h-5.652a.835.835 0 0 1 0-1.672h4.818v-33.872a.835.835 0 0 1 1.669 0v34.709a.835.835 0 0 1-.835.835ZM260.362 370.416a.834.834 0 0 1-.39-1.573l97.1-50.961a.834.834 0 0 1 1.126.351.837.837 0 0 1-.351 1.129l-97.097 50.961a.868.868 0 0 1-.388.093Z"/><path fill="#14549F" d="M263.45 445.241v51.067l20.659.623c.08.086.216.026.216-.093v-56.312s-20.577 4.732-20.875 4.715Z"/><path fill="#fff" d="m264.287 495.496 19.203.579v-54.504c-13.183 3.03-17.646 4.023-19.203 4.348v49.577Zm19.908 2.311a.98.98 0 0 1-.288-.046l-20.48-.62a.837.837 0 0 1-.812-.834V445.24a.837.837 0 0 1 .762-.831c.821-.132 12.831-2.874 20.762-4.699a.83.83 0 0 1 1.02.815v56.312a.966.966 0 0 1-.964.97Z"/><path fill="#14549F" d="m284.323 496.974 57.037-.206c-.122.13-.043-56.404-.043-56.404l-56.994.162v56.448Z"/><path fill="#fff" d="M285.158 441.356v54.779l55.345-.202c-.006-.404-.01-.927-.016-1.599-.007-1.547-.014-3.752-.02-6.401-.01-5.288-.01-12.338-.01-19.388.003-12.06.02-24.116.023-27.344l-55.322.155Zm-.834 56.451a.835.835 0 0 1-.835-.834v-56.448c0-.46.371-.834.831-.838l56.995-.159c.218.033.437.086.592.245a.823.823 0 0 1 .245.59c-.026 18.828-.053 54.62.033 56.279a.834.834 0 0 1-.821.96l-57.037.205h-.003Z"/><path fill="#14549F" d="M328.328 453.231h-30.871v30.871h30.871v-30.871Z"/><path fill="#fff" d="M298.291 483.268h29.202v-29.199h-29.202v29.199Zm30.037 1.669h-30.871a.836.836 0 0 1-.835-.835v-30.868c0-.463.374-.838.835-.838h30.871c.46 0 .834.375.834.838v30.868c0 .46-.374.835-.834.835Z"/><path fill="#fff" d="M323.862 476.096h-21.937v3.705h21.937v-3.705ZM320.651 459.333h-3.706v12.723h3.706v-12.723Z"/><path fill="#fff" d="m323.709 461.791-4.914-4.911-4.91 4.911h9.824ZM308.841 459.333h-3.705v12.723h3.705v-12.723Z"/><path fill="#fff" d="m311.901 461.791-4.914-4.911-4.911 4.911h9.825Z"/><path fill="#14549F" d="m263.448 332.18-.083 56.692 20.742-5.003c.08.083.216.023.216-.093v-56.315s-20.577 4.732-20.875 4.719Z"/><path fill="#fff" d="m264.284 332.858-.08 54.951 19.286-4.649v-54.65c-13.186 3.03-17.65 4.024-19.206 4.348Zm-.917 56.849a.843.843 0 0 1-.517-.179.845.845 0 0 1-.318-.659l.083-56.693c0-.228.096-.447.262-.606a.832.832 0 0 1 .5-.225c.818-.132 12.831-2.874 20.761-4.699a.834.834 0 0 1 1.02.815v56.315a.967.967 0 0 1-.609.901c-.152.059-.318.079-.473.059l-20.514 4.948a.794.794 0 0 1-.195.023Z"/><path fill="#14549F" d="m284.323 383.909 57.037-.205c-.122.132-.043-56.402-.043-56.402l-56.994.159v56.448Z"/><path fill="#fff" d="M285.158 328.296v54.775l55.345-.198c-.01-.408-.01-.927-.016-1.6-.007-1.546-.017-3.755-.02-6.4-.01-5.292-.013-12.342-.01-19.388.003-12.06.02-24.116.023-27.345l-55.322.156Zm-.834 56.451a.835.835 0 0 1-.835-.838v-56.448c0-.46.371-.831.831-.834l56.995-.159a.796.796 0 0 1 .592.242.847.847 0 0 1 .245.592c-.026 18.825-.053 54.62.033 56.279a.828.828 0 0 1-.821.957l-57.037.209h-.003Z"/><path fill="#14549F" d="M328.328 340.169h-30.871v30.872h30.871v-30.872Z"/><path fill="#fff" d="M298.291 370.207h29.202v-29.203h-29.202v29.203Zm30.037 1.669h-30.871a.836.836 0 0 1-.835-.835V340.17c0-.46.374-.835.835-.835h30.871c.46 0 .834.375.834.835v30.871c0 .46-.374.835-.834.835Z"/><path fill="#fff" d="M323.862 363.031h-21.937v3.708h21.937v-3.708ZM320.649 346.273h-3.709v12.719h3.709v-12.719Z"/><path fill="#fff" d="m323.709 348.729-4.914-4.914-4.91 4.914h9.824ZM308.841 346.273h-3.705v12.719h3.705v-12.719Z"/><path fill="#fff" d="m311.901 348.729-4.914-4.914-4.911 4.914h9.825Z"/><path fill="#14549F" d="M205.726 445.32v51.067l20.658.623c.08.086.216.026.216-.093v-56.312s-20.576 4.732-20.874 4.715Z"/><path fill="#fff" d="m206.559 495.58 19.203.576v-54.504c-13.183 3.03-17.646 4.023-19.203 4.348v49.58Zm19.91 2.308a.957.957 0 0 1-.29-.047l-20.481-.619a.834.834 0 0 1-.809-.834v-51.067c0-.229.094-.447.26-.606a.814.814 0 0 1 .501-.225c.82-.136 12.832-2.875 20.76-4.699a.833.833 0 0 1 1.023.814v56.312a.962.962 0 0 1-.609.901.963.963 0 0 1-.355.07Z"/><path fill="#14549F" d="m226.599 497.053 57.036-.205c-.123.129-.043-56.405-.043-56.405l-56.993.162v56.448Z"/><path fill="#fff" d="M227.434 441.436v54.779l55.343-.202c-.006-.404-.01-.927-.013-1.599-.01-1.547-.016-3.752-.023-6.401-.01-5.288-.01-12.338-.01-19.388.007-12.059.02-24.116.023-27.344l-55.32.155Zm-.835 56.451a.838.838 0 0 1-.835-.834v-56.448a.84.84 0 0 1 .832-.838l56.993-.159h.003c.222 0 .434.086.589.245a.823.823 0 0 1 .245.59c-.026 18.828-.053 54.62.033 56.279a.841.841 0 0 1 0 .265.837.837 0 0 1-.821.695l-57.037.205h-.002Z"/><path fill="#14549F" d="M270.472 453.314H239.73v30.788h30.742v-30.788Z"/><path fill="#fff" d="M240.566 483.268h29.072v-29.12h-29.072v29.12Zm29.907 1.669h-30.741a.835.835 0 0 1-.836-.835v-30.788c0-.464.374-.838.836-.838h30.741c.46 0 .834.374.834.838v30.788a.835.835 0 0 1-.834.835Z"/><path fill="#fff" d="M256.996 480.595a2.734 2.734 0 0 1-2.728-2.732v-20.208c0-.464.374-.838.834-.838.46 0 .834.374.834.838v20.208c0 .587.477 1.063 1.06 1.063.586 0 1.06-.476 1.06-1.063v-1.486a.835.835 0 1 1 1.672 0v1.486a2.734 2.734 0 0 1-2.732 2.732Z"/><path fill="#14549F" d="M245.239 469.171a.834.834 0 0 1-.824-.937c.53-4.351 5.112-7.752 10.686-7.752 5.576 0 10.155 3.401 10.686 7.752a.835.835 0 0 1-.825.937h-19.723Z"/><path fill="#fff" d="M255.102 461.317c-5.048 0-9.378 3.083-9.857 7.017h19.718c-.483-3.934-4.811-7.017-9.861-7.017Zm9.861 8.689H245.24a1.669 1.669 0 0 1-1.653-1.871c.589-4.838 5.54-8.487 11.515-8.487 5.977 0 10.928 3.649 11.517 8.484a1.69 1.69 0 0 1-.411 1.315 1.666 1.666 0 0 1-1.245.559Z"/><path fill="#14549F" d="M263.365 388.873v51.067l20.659.622c.08.086.216.027.216-.092v-56.316s-20.577 4.732-20.875 4.719Z"/><path fill="#fff" d="m264.204 439.128 19.203.579v-54.504c-13.183 3.03-17.646 4.024-19.203 4.348v49.577Zm19.908 2.311a.948.948 0 0 1-.288-.046l-20.48-.619a.838.838 0 0 1-.812-.835v-51.067a.832.832 0 0 1 .762-.831c.821-.136 12.831-2.877 20.762-4.699a.821.821 0 0 1 .705.159.839.839 0 0 1 .315.653v56.315a.966.966 0 0 1-.964.97Z"/><path fill="#14549F" d="m284.242 440.605 57.037-.205c-.122.129-.043-56.405-.043-56.405l-56.994.159v56.451Z"/><path fill="#fff" d="M285.076 384.988v54.779l55.345-.202c-.006-.404-.01-.927-.016-1.6-.007-1.546-.017-3.751-.02-6.4-.01-5.288-.013-12.338-.01-19.388.003-12.06.02-24.116.023-27.345l-55.322.156Zm-.834 56.451a.835.835 0 0 1-.835-.834v-56.451c0-.461.371-.832.831-.835l56.994-.159c.193.013.434.086.593.245a.835.835 0 0 1 .245.59c-.026 18.824-.053 54.62.033 56.279a.835.835 0 0 1-.821.96l-57.037.205h-.003Z"/><path fill="#14549F" d="M329.256 392.588h-30.742v30.789h30.742v-30.789Z"/><path fill="#fff" d="M299.349 422.542h29.069v-29.12h-29.069v29.12Zm29.907 1.672h-30.742a.836.836 0 0 1-.834-.838v-30.788c0-.46.374-.835.834-.835h30.742c.461 0 .835.375.835.835v30.788a.836.836 0 0 1-.835.838Z"/><path fill="#fff" d="M315.779 419.873a2.734 2.734 0 0 1-2.728-2.735v-20.209a.835.835 0 0 1 1.669 0v20.209c0 .586.473 1.063 1.059 1.063.583 0 1.06-.477 1.06-1.063v-1.487a.835.835 0 0 1 1.669 0v1.487a2.736 2.736 0 0 1-2.729 2.735Z"/><path fill="#14549F" d="M304.02 408.446a.832.832 0 0 1-.821-.937c.527-4.352 5.109-7.752 10.686-7.752 5.573 0 10.155 3.4 10.685 7.752a.834.834 0 0 1-.824.937H304.02Z"/><path fill="#fff" d="M313.885 400.592c-5.05 0-9.378 3.083-9.858 7.02h19.719c-.484-3.937-4.815-7.02-9.861-7.02Zm9.861 8.689h-19.722c-.477 0-.931-.206-1.245-.56a1.681 1.681 0 0 1-.411-1.311c.589-4.838 5.54-8.487 11.517-8.487 5.977 0 10.924 3.649 11.513 8.487a1.667 1.667 0 0 1-1.652 1.871Z"/><path fill="#14549F" d="m208.18 394.638-.098 49.563 18.035-4.04c.07.077.19.024.19-.082v-49.61s-17.864 4.182-18.127 4.169Z"/><path fill="#fff" d="m209.015 395.316-.096 47.842 16.553-3.706v-47.931c-11.078 2.593-15.016 3.487-16.457 3.795Zm-.933 49.719a.842.842 0 0 1-.523-.182.842.842 0 0 1-.312-.652l.099-49.564a.832.832 0 0 1 .756-.831c.754-.126 11.155-2.543 18.015-4.149.249-.06.51 0 .709.159a.83.83 0 0 1 .316.652v49.61a.95.95 0 0 1-1.06.947l-17.817 3.99a.814.814 0 0 1-.183.02Z"/><path fill="#14549F" d="m226.308 440.198 50.248-.182c-.11.115-.04-49.69-.04-49.69l-50.208.143v49.729Z"/><path fill="#fff" d="M227.143 391.303v48.057l48.555-.176c-.007-.344-.007-.774-.01-1.308-.01-1.364-.017-3.308-.02-5.639-.01-4.662-.01-10.871-.01-17.079.003-10.507.017-21.007.02-23.994l-48.535.139Zm-.835 49.729a.836.836 0 0 1-.835-.834v-49.729c0-.461.372-.835.832-.835l50.207-.142c.245.016.437.089.593.245a.827.827 0 0 1 .245.592c-.023 16.557-.046 48.047.03 49.567a.834.834 0 0 1-.821.957l-50.249.179h-.002Z"/><path fill="#14549F" d="M264.96 401.665h-27.082v27.126h27.082v-27.126Z"/><path fill="#fff" d="M238.712 427.956h25.413v-25.454h-25.413v25.454Zm26.248 1.669h-27.083a.836.836 0 0 1-.835-.835v-27.126c0-.46.374-.834.835-.834h27.083c.459 0 .834.374.834.834v27.126c0 .46-.375.835-.834.835Z"/><path fill="#fff" d="M253.089 425.8a2.508 2.508 0 0 1-2.506-2.507v-17.805a.835.835 0 0 1 1.67 0v17.805c0 .464.374.838.836.838a.835.835 0 0 0 .831-.838v-1.308a.835.835 0 0 1 1.672 0v1.308a2.509 2.509 0 0 1-2.503 2.507Z"/><path fill="#14549F" d="M242.728 415.634a.732.732 0 0 1-.725-.824c.466-3.831 4.503-6.828 9.414-6.828 4.912 0 8.948 2.997 9.412 6.828a.731.731 0 0 1-.725.824h-17.376Z"/><path fill="#fff" d="M242.847 414.8h17.175c-.46-3.325-4.222-5.984-8.605-5.984-4.35 0-8.086 2.62-8.57 5.984Zm17.258 1.669h-17.376c-.447 0-.874-.192-1.17-.527a1.564 1.564 0 0 1-.384-1.232c.524-4.311 4.928-7.563 10.242-7.563 5.317 0 9.717 3.252 10.244 7.563a1.57 1.57 0 0 1-1.556 1.759Z"/><path fill="#14549F" d="m173.512 497.284 35.857.02c-.108.133-.038-56.474-.038-56.474l-50.209.159s14.39 56.372 14.39 56.295Z"/><path fill="#fff" d="m174.155 496.45 34.359.02c-.008-.408-.011-.927-.015-1.596-.008-1.55-.015-3.759-.019-6.408-.009-5.298-.01-12.357-.008-19.414.003-12.079.017-24.152.021-27.384l-48.299.152c1.831 7.172 12.527 49.067 13.961 54.63Zm35.212 1.692-35.804-.02c-.685.083-.702.007-1.485-3.046l-13.767-53.878a.836.836 0 0 1 .806-1.044l50.208-.162h.003a.84.84 0 0 1 .835.838c-.023 18.878-.046 54.756.031 56.362a.837.837 0 0 1-.827.95Z"/><path fill="#fff" d="M180.775 448.151h7.145v-4.864h-7.145v4.864Zm7.98 1.669h-8.815a.836.836 0 0 1-.836-.834v-6.533c0-.464.375-.835.836-.835h8.815c.461 0 .834.371.834.835v6.533c0 .46-.373.834-.834.834Z"/><path fill="#14549F" d="M208.182 344.313v50.325l18.126-4.169v-50.322s-17.864 4.182-18.126 4.166Z"/><path fill="#fff" d="M209.017 344.991v48.597l16.456-3.782V341.2c-11.076 2.589-15.014 3.483-16.456 3.791Zm-.835 50.481a.834.834 0 0 1-.835-.834v-50.326a.84.84 0 0 1 .26-.606.85.85 0 0 1 .495-.225c.753-.126 11.155-2.543 18.016-4.149a.838.838 0 0 1 1.025.815v50.322c0 .39-.268.728-.647.814l-18.127 4.169a.914.914 0 0 1-.187.02Z"/><path fill="#14549F" d="m226.308 390.469 50.208-.143v-50.322l-50.208.143v50.322Z"/><path fill="#fff" d="M227.143 340.978v48.653l48.538-.136v-48.653l-48.538.136Zm-.835 50.332a.836.836 0 0 1-.835-.835v-50.328c0-.464.372-.835.832-.838l50.207-.139c.239-.027.437.086.593.242.156.159.245.37.245.592v50.325a.838.838 0 0 1-.834.838c-.043 0-.08 0-.119-.003l-49.994.139c-.031.003-.063.007-.095.007Z"/><path fill="#fff" d="M247.962 346.345h7.143v-4.079h-7.143v4.079Zm7.981 1.669h-8.816a.835.835 0 0 1-.835-.834v-5.749c0-.46.374-.834.835-.834h8.816c.46 0 .835.374.835.834v5.749c0 .46-.375.834-.835.834Z"/><path fill="#14549F" d="m140.822 395.575.587 45.56 17.35-.037c.07.077.19.024.19-.082v-49.61s-17.864 4.182-18.127 4.169Z"/><path fill="#fff" d="m141.665 396.25.567 44.047 15.881-.033v-47.805c-11.054 2.586-14.998 3.483-16.448 3.791Zm-.257 45.719a.835.835 0 0 1-.835-.824l-.587-45.56a.84.84 0 0 1 .756-.842c.752-.125 11.155-2.543 18.015-4.149.249-.059.51 0 .709.159.2.156.317.398.317.653v49.61a.95.95 0 0 1-.599.887.94.94 0 0 1-.601.03l-17.174.036h-.001Z"/><path fill="#14549F" d="m158.948 441.135 50.248-.182c-.109.115-.039-49.69-.039-49.69l-50.209.143v49.729Z"/><path fill="#fff" d="M159.783 392.237v48.06l48.556-.176c-.007-.344-.009-.775-.012-1.308-.009-1.364-.015-3.308-.019-5.639a8257.46 8257.46 0 0 1-.008-17.083c.003-10.503.016-21.003.02-23.99l-48.537.136Zm-.836 49.732a.833.833 0 0 1-.835-.834v-49.73c0-.46.373-.834.833-.834l50.209-.142h.002a.837.837 0 0 1 .835.837c-.023 16.557-.046 48.047.03 49.567a.837.837 0 0 1-.823.957l-50.248.179h-.003Z"/><path fill="#fff" d="M180.601 397.604h7.144v-4.076h-7.144v4.076Zm7.979 1.673h-8.814a.836.836 0 0 1-.835-.838v-5.745c0-.464.374-.838.835-.838h8.814c.461 0 .835.374.835.838v5.745a.836.836 0 0 1-.835.838Z"/><path fill="#14549F" d="m140.822 346.445.587 45.56 17.35-.036c.07.072.19.023.19-.083v-49.61s-17.864 4.182-18.127 4.169Z"/><path fill="#fff" d="m141.665 347.12.567 44.047 15.881-.033v-47.805c-11.053 2.586-14.998 3.483-16.448 3.791Zm-.257 45.719a.835.835 0 0 1-.835-.824l-.587-45.56a.83.83 0 0 1 .756-.841c.755-.13 11.156-2.547 18.015-4.153a.849.849 0 0 1 .709.159.84.84 0 0 1 .317.656v49.61a.944.944 0 0 1-1.201.917l-17.173.036h-.001Z"/><path fill="#14549F" d="m158.948 392.005 50.248-.182c-.109.116-.039-49.69-.039-49.69l-50.209.143v49.729Z"/><path fill="#fff" d="M159.783 343.107v48.06l48.556-.175c-.007-.345-.009-.775-.012-1.312-.009-1.361-.015-3.304-.019-5.636-.009-4.662-.01-10.874-.008-17.083.003-10.503.016-21.003.02-23.99l-48.537.136Zm-.836 49.732a.833.833 0 0 1-.835-.834v-49.729c0-.461.373-.835.833-.835l50.209-.142h.002a.837.837 0 0 1 .835.838c-.023 16.556-.046 48.047.03 49.566a.832.832 0 0 1-.823.954l-50.248.182h-.003Z"/><path fill="#fff" d="M180.601 348.474h7.144v-4.076h-7.144v4.076Zm7.979 1.669h-8.814a.833.833 0 0 1-.835-.834v-5.748c0-.461.374-.835.835-.835h8.814c.461 0 .835.374.835.835v5.748a.833.833 0 0 1-.835.834Z"/><path fill="#14549F" d="m173.512 497.284-58.22-1.947V290.616l58.219 20.686.001 185.982Z"/><path fill="#fff" d="m116.126 494.529 56.55 1.895V311.891l-56.55-20.093v202.731Zm57.385 3.593c-.009 0-.019 0-.028-.003l-58.22-1.947a.836.836 0 0 1-.807-.835V290.616a.834.834 0 0 1 1.115-.784l58.22 20.685c.332.12.555.434.555.785v185.983a.838.838 0 0 1-.835.837ZM538.483 482.433c-1.016 3.696 4.679 8.62 12.438 10.756 7.761 2.139 15.172.821 16.192-2.875 1.016-3.692-4.679-8.619-12.437-10.755-7.759-2.136-15.173-.821-16.193 2.874Zm19.732 13.471c-2.384 0-5.016-.354-7.738-1.103-8.927-2.46-14.904-8.086-13.603-12.811 1.301-4.726 9.315-6.5 18.245-4.04 8.928 2.457 14.904 8.083 13.603 12.808-.904 3.288-5.06 5.146-10.507 5.146Z"/><path fill="#14549F" d="m580.673 520.258-68.954 6.951 29.824-94.843 39.13-.433v88.325Zm-78.359 15.421 86.088-8.851V425.89l-51.461-.199-34.627 109.989v-.001Z"/><path fill="#fff" d="m542.154 433.194-29.258 93.055 66.938-6.745v-86.727l-37.68.418v-.001Zm-30.437 94.849a.834.834 0 0 1-.795-1.086l29.822-94.843a.843.843 0 0 1 .788-.586l39.13-.43h.009a.83.83 0 0 1 .587.242.83.83 0 0 1 .248.592v88.326a.834.834 0 0 1-.752.831l-68.951 6.951c-.03 0-.056.003-.086.003Zm25.831-101.515-34.056 108.191 84.074-8.646v-99.349l-50.017-.195-.001-.001Zm-35.235 109.985a.834.834 0 0 1-.795-1.086l34.623-109.985a.838.838 0 0 1 .798-.586h.003l51.461.199a.833.833 0 0 1 .831.834v100.938a.836.836 0 0 1-.748.831l-86.087 8.851c-.03.004-.056.004-.086.004Z"/><path fill="#14549F" d="M669.858 502.136h-55.709l-68.792 2.596-2.808 21.391h27.802l1.649 8.47 74.51-5.573 23.348-26.884Z"/><path fill="#fff" d="M543.503 525.288h26.848a.83.83 0 0 1 .818.675l1.506 7.742 73.432-5.493 21.921-25.242h-53.879l-68.053 2.569-2.593 19.749Zm28.494 10.139a.832.832 0 0 1-.818-.676l-1.517-7.794h-27.113a.84.84 0 0 1-.828-.944l2.808-21.391a.836.836 0 0 1 .798-.725l68.789-2.596h55.743a.833.833 0 0 1 .629 1.381l-23.348 26.884a.82.82 0 0 1-.566.285l-74.511 5.576h-.066Z"/><path fill="#14549F" d="M575.484 530.487v-28.206h-12.749l-8.354 31.577 21.103-3.371ZM562.734 501.969l-48.053-1.327-10.136 21.361 50.269 2.699 7.92-22.733Z"/><path fill="#fff" d="m505.834 521.235 48.398 2.6 7.338-21.06-46.368-1.282-9.368 19.742Zm48.981 4.302h-.044l-50.268-2.699a.85.85 0 0 1-.676-.407.837.837 0 0 1-.036-.785l10.136-21.361a.829.829 0 0 1 .778-.477l48.053 1.328a.835.835 0 0 1 .765 1.109l-7.92 22.732a.831.831 0 0 1-.788.56Z"/><path fill="#14549F" d="M586.447 566.854c0-17.718-11.352-32.079-25.352-32.079-2.324 0-6.715.023-6.715.023v-11.646l21.315-1.59-.252 11.66 73.104-7.716-.014 17.408-10.145 28.434-53.355 6.069a39.85 39.85 0 0 0 1.414-10.563Z"/><path fill="#fff" d="M561.095 533.94c14.44 0 26.185 14.765 26.185 32.914 0 3.262-.38 6.484-1.135 9.597l51.633-5.872 9.92-27.808.01-16.338-72.179 7.62a.829.829 0 0 1-.653-.216.837.837 0 0 1-.268-.632l.229-10.742-19.62 1.464v10.033c1.388-.01 4.182-.02 5.878-.02Zm23.937 44.312a.838.838 0 0 1-.805-1.056 38.958 38.958 0 0 0 1.385-10.342c0-17.228-10.997-31.245-24.517-31.245-2.325 0-6.709.023-6.709.023h-.003a.837.837 0 0 1-.838-.834v-11.646c0-.437.338-.798.775-.831l21.311-1.59a.839.839 0 0 1 .636.225.847.847 0 0 1 .262.626l-.232 10.709 72.16-7.616a.838.838 0 0 1 .649.209.837.837 0 0 1 .275.622l-.014 17.411a.792.792 0 0 1-.046.278l-10.146 28.434a.835.835 0 0 1-.692.55l-53.355 6.066c-.033.003-.063.007-.096.007Z"/><path fill="#fff" d="M551.467 540.136h9.629c11.659 0 21.113 11.963 21.113 26.719 0 14.755-9.454 26.715-21.113 26.715h-9.629c-11.659 0-21.11-11.96-21.11-26.715 0-14.756 9.451-26.719 21.11-26.719Z"/><path fill="#14549F" d="M539.984 566.855c0 14.755 9.454 26.715 21.113 26.715 11.659 0 21.113-11.96 21.113-26.715 0-14.755-9.454-26.716-21.113-26.716-11.659 0-21.113 11.961-21.113 26.716Z"/><path fill="#fff" d="M561.097 540.974c-11.179 0-20.279 11.609-20.279 25.881 0 14.271 9.1 25.881 20.279 25.881 11.182 0 20.278-11.61 20.278-25.881 0-14.272-9.096-25.881-20.278-25.881Zm0 53.431c-12.103 0-21.948-12.358-21.948-27.55 0-15.193 9.845-27.554 21.948-27.554 12.102 0 21.947 12.361 21.947 27.554 0 15.192-9.845 27.55-21.947 27.55Z"/><path fill="#fff" d="M561.096 580.649c6.023 0 10.904-6.175 10.904-13.795 0-7.619-4.881-13.798-10.904-13.798-6.02 0-10.901 6.179-10.901 13.798 0 7.62 4.881 13.795 10.901 13.795ZM646.259 544.702h6.715c8.133 0 14.726 8.345 14.726 18.636 0 10.292-6.593 18.636-14.726 18.636h-6.715c-8.136 0-14.729-8.344-14.729-18.636 0-10.291 6.593-18.636 14.729-18.636Z"/><path fill="#14549F" d="M638.246 563.338c0 10.292 6.596 18.636 14.729 18.636 8.132 0 14.725-8.344 14.725-18.636 0-10.291-6.593-18.636-14.725-18.636-8.133 0-14.729 8.345-14.729 18.636Z"/><path fill="#fff" d="M652.974 545.537c-7.659 0-13.891 7.986-13.891 17.801 0 9.815 6.232 17.802 13.891 17.802s13.891-7.987 13.891-17.802-6.232-17.801-13.891-17.801Zm0 37.272c-8.579 0-15.563-8.736-15.563-19.471s6.984-19.47 15.563-19.47c8.58 0 15.56 8.735 15.56 19.47s-6.98 19.471-15.56 19.471Z"/><path fill="#fff" d="M645.369 563.338c0 5.314 3.404 9.622 7.606 9.622 4.199 0 7.603-4.308 7.603-9.622 0-5.315-3.404-9.623-7.603-9.623-4.202 0-7.606 4.308-7.606 9.623Z"/><path fill="#14549F" d="m551.35 520.202-37.232-3.053 29.116-87.084 37.219-1.712-29.103 91.849Zm-48.891 5.771 53.822 4.133 34.623-109.988-53.65 2.222-34.795 103.633Z"/><path fill="#fff" d="m515.247 516.404 35.507 2.91 28.54-90.074-35.45 1.632-28.597 85.531v.001Zm36.103 4.632-.069-.003-37.229-3.05a.843.843 0 0 1-.629-.374.833.833 0 0 1-.096-.725l29.116-87.084a.838.838 0 0 1 .752-.57l37.219-1.711a.834.834 0 0 1 .834 1.086l-29.103 91.849a.835.835 0 0 1-.795.582Zm-47.758 4.189 52.093 3.997 34.067-108.22-51.892 2.145-34.268 102.078Zm52.689 5.715c-.02 0-.043 0-.063-.003l-53.822-4.129a.835.835 0 0 1-.632-.374.826.826 0 0 1-.096-.726l34.795-103.636a.837.837 0 0 1 .755-.57l53.653-2.219a.837.837 0 0 1 .831 1.087l-34.623 109.985a.834.834 0 0 1-.798.586v-.001Z"/><path fill="#14549F" d="m511.741 585.232 7.857 2.924-71.842 10.153-.033 6.824-9.47-4.039v-5.583l73.488-10.279Z"/><path fill="#fff" d="m439.09 600.541 7.805 3.331.026-5.566a.84.84 0 0 1 .719-.824l68.58-9.689-4.573-1.702-72.557 10.149v4.301Zm8.633 5.427a.877.877 0 0 1-.328-.066l-9.47-4.04a.84.84 0 0 1-.507-.768v-5.583c0-.414.308-.768.719-.824l73.487-10.282a.851.851 0 0 1 .407.047l7.858 2.923a.83.83 0 0 1 .537.871.835.835 0 0 1-.712.739l-71.127 10.049-.026 6.103a.85.85 0 0 1-.378.696.851.851 0 0 1-.46.135Z"/><path fill="#14549F" d="M493.837 581.974h12.252V378.65l13.51.364v-18.785l-25.762-1.927v223.672Z"/><path fill="#fff" d="M494.674 581.139h10.58V378.65a.833.833 0 0 1 .857-.835l12.653.342v-17.153l-24.09-1.801V581.14v-.001Zm11.414 1.669h-12.252a.835.835 0 0 1-.834-.834V358.302c0-.232.096-.454.268-.609a.834.834 0 0 1 .629-.222l25.762 1.927a.834.834 0 0 1 .772.831v18.785a.852.852 0 0 1-.252.6.847.847 0 0 1-.606.235l-12.652-.341v202.466c0 .46-.374.835-.835.835v-.001Z"/><path fill="#fff" d="M485.982 581.388V358.952l7.855-.649v223.671l-7.855-.586Z"/><path fill="#fff" d="m486.816 580.613 6.186.461V359.209l-6.186.51v220.894Zm7.02 2.196c-.02 0-.039 0-.059-.004l-7.858-.582a.837.837 0 0 1-.772-.835V358.951c0-.437.332-.798.765-.834l7.858-.646a.836.836 0 0 1 .904.831v223.672a.845.845 0 0 1-.268.613.841.841 0 0 1-.57.222ZM511.741 586.775V353.713l7.858-.646v235.089l-7.858-1.381Z"/><path fill="#fff" d="m512.575 586.073 6.189 1.089V353.974l-6.189.507v231.592Zm7.023 2.917a.711.711 0 0 1-.145-.013l-7.855-1.381a.834.834 0 0 1-.692-.821V353.712c0-.434.335-.798.768-.831l7.855-.646a.849.849 0 0 1 .636.216c.169.159.268.38.268.616v235.089a.832.832 0 0 1-.835.834Z"/><path fill="#14549F" d="m634.637 515.711-68.952 5.921 29.825-94.842 39.127-.57v89.491Zm-78.356 14.395 86.087-7.825V420.177l-51.464-.059-34.623 109.988Z"/><path fill="#fff" d="m596.127 427.618-29.269 93.077 66.945-5.748v-87.879l-37.676.55Zm-30.441 94.849a.829.829 0 0 1-.795-1.083l29.822-94.843a.838.838 0 0 1 .784-.586l39.13-.569c.229.01.437.082.599.241a.833.833 0 0 1 .249.593v89.491a.833.833 0 0 1-.765.831l-68.951 5.924h-.073v.001Zm25.831-101.515-34.06 108.206 84.078-7.639V421.011l-50.018-.06v.001ZM556.282 530.94a.833.833 0 0 1-.649-.312.827.827 0 0 1-.146-.774l34.623-109.989a.831.831 0 0 1 .795-.582h.003l51.461.059c.463 0 .834.374.834.835v102.104c0 .43-.327.791-.758.831l-86.087 7.824c-.023.004-.05.004-.076.004Z"/><path fill="#14549F" d="m642.369 535.679 27.491-2.971v-29.487l-27.491 2.348v30.11Z"/><path fill="#fff" d="M643.203 506.334v28.415l25.822-2.792v-27.828l-25.822 2.205Zm-.834 30.18a.832.832 0 0 1-.835-.835v-30.11c0-.433.331-.798.765-.834l27.487-2.348c.239-.02.467.06.636.219a.824.824 0 0 1 .272.616v29.487a.833.833 0 0 1-.745.828l-27.491 2.973c-.03.004-.06.004-.089.004Z"/><path fill="#14549F" d="M592.464 531.427v-19.513l49.904-4.368v18.613l-49.904 5.268Z"/><path fill="#fff" d="M593.298 512.679v17.818l48.235-5.09v-16.95l-48.235 4.222Zm-.835 19.583a.838.838 0 0 1-.834-.835v-19.513c0-.431.331-.792.761-.832l49.905-4.367a.816.816 0 0 1 .636.215.838.838 0 0 1 .271.616v18.613a.83.83 0 0 1-.748.828l-49.901 5.268c-.03.003-.06.007-.09.007Z"/><path fill="#14549F" d="M519.599 588.156v-235.09l25.758 2.464v18.782l-13.506-.901.069 217.404-84.196 13.808v-6.315l71.875-10.152Z"/><path fill="#fff" d="M448.561 599.034v4.606l82.524-13.534-.069-216.695a.84.84 0 0 1 .261-.609.837.837 0 0 1 .626-.222l12.62.838v-17.129l-24.09-2.305v234.172a.837.837 0 0 1-.719.827l-71.153 10.05v.001Zm-.838 6.424a.84.84 0 0 1-.54-.199.84.84 0 0 1-.294-.636v-6.315c0-.417.308-.768.718-.827l71.157-10.05V353.067c0-.235.099-.46.271-.619a.85.85 0 0 1 .643-.212l25.758 2.464a.83.83 0 0 1 .755.831v18.781a.835.835 0 0 1-.89.831l-12.617-.837.073 216.51c0 .41-.298.758-.702.824l-84.196 13.808a.862.862 0 0 1-.136.01Z"/><path fill="#14549F" d="m486.006 577.835 7.857 3.438-69.785 7.599-.033 4.272-9.471-3.534v-4.049l71.432-7.726Z"/><path fill="#fff" d="m415.41 589.03 7.811 2.914.024-3.079a.835.835 0 0 1 .741-.825l66.673-7.258-4.784-2.092-70.465 7.619v2.721Zm8.636 4.948a.802.802 0 0 1-.291-.053l-9.471-3.534a.829.829 0 0 1-.543-.781v-4.05c0-.427.321-.784.745-.831l71.432-7.722a.853.853 0 0 1 .424.063l7.857 3.441a.833.833 0 0 1-.245 1.592l-69.047 7.517-.027 3.53a.83.83 0 0 1-.834.828Z"/><path fill="#14549F" d="m506.184 583.934-82.14 9.209v-4.272l82.071-8.98.069 4.043Z"/><path fill="#fff" d="M424.879 589.62v2.589l80.458-9.02-.043-2.367-80.415 8.798Zm-.835 4.357a.836.836 0 0 1-.834-.834v-4.272c0-.427.321-.785.742-.831l82.07-8.98a.845.845 0 0 1 .643.205.85.85 0 0 1 .284.613l.07 4.04a.83.83 0 0 1-.742.844l-82.139 9.212c-.03.003-.063.003-.093.003h-.001Z"/><path fill="#14549F" d="m623.805 467.992-19.09 1.02-6.858 34.209 25.749-1.086.199-34.143Z"/><path fill="#fff" d="m605.408 469.814-6.523 32.527 23.891-1.007.189-32.461-17.557.941Zm-7.55 34.242a.84.84 0 0 1-.635-.292.84.84 0 0 1-.182-.708l6.857-34.206a.835.835 0 0 1 .772-.672l19.093-1.02a.84.84 0 0 1 .619.229c.169.158.262.38.258.609l-.198 34.143a.838.838 0 0 1-.802.831l-25.745 1.086h-.037Z"/><path fill="#14549F" d="m617.417 467.992-19.092.51-6.858 34.719 25.749-1.086.201-34.143Z"/><path fill="#fff" d="m599.017 469.32-6.523 33.021 23.891-1.007.192-32.484-17.56.47Zm-7.55 34.736a.833.833 0 0 1-.817-.997l6.857-34.719a.838.838 0 0 1 .798-.672l19.09-.51a.798.798 0 0 1 .606.238.84.84 0 0 1 .252.6l-.202 34.143a.834.834 0 0 1-.798.831l-25.749 1.086h-.037ZM542.186 520.284a.837.837 0 0 1-.795-1.089l10.613-33.077a.834.834 0 1 1 1.589.51l-10.612 33.077a.833.833 0 0 1-.795.579Z"/><path fill="#14549F" d="m514.986 516.543-60.881 8.312-41.338-8.944 59.53-6.351 42.689 6.983Z"/><path fill="#fff" d="m432.852 520.01 5.742 1.01 50.613-7.563-4.884-.716-51.471 7.269Zm5.732 2.688a.702.702 0 0 1-.146-.013l-11.069-1.944a.83.83 0 0 1-.689-.834.838.838 0 0 1 .718-.815l56.809-8.02c.08-.01.159-.01.239 0l10.596 1.55c.407.06.712.411.712.825a.831.831 0 0 1-.712.824l-56.336 8.417a.743.743 0 0 1-.122.01Z"/><path fill="#14549F" d="M454.105 598.703v-73.849l61.067-7.805v71.803l-61.067 9.851Z"/><path fill="#fff" d="M454.939 525.589v72.133l59.395-9.583v-70.143l-59.395 7.593Zm-.834 73.951a.822.822 0 0 1-.54-.202.825.825 0 0 1-.294-.635v-73.849c0-.421.311-.775.728-.828l61.067-7.805a.834.834 0 0 1 .94.828v71.802a.838.838 0 0 1-.702.825l-61.067 9.851a.591.591 0 0 1-.132.013Z"/><path fill="#fff" d="M471.492 538.858v33.302l28.98-4.709v-32.219l-28.98 3.626Zm-.835 35.12a.838.838 0 0 1-.838-.834V538.12c0-.421.315-.775.732-.828l30.653-3.834a.841.841 0 0 1 .655.201.84.84 0 0 1 .282.626v33.879c0 .41-.295.758-.702.824l-30.649 4.98a.85.85 0 0 1-.133.01Z"/><path fill="#fff" d="M489.431 566.332h-.116c-1.056-.02-2.043-.467-2.791-1.259a4.35 4.35 0 0 1-1.179-3.01v-20.798c0-.546.397-1.013.904-1.063a.971.971 0 0 1 .761.252c.219.199.345.483.345.785l.006 20.854c0 .583.212 1.126.596 1.533.374.398.868.62 1.394.626.004-.003.01-.003.014-.003.533 0 1.036-.219 1.414-.623.387-.407.599-.953.599-1.533l-.003-.741c0-.275.102-.534.288-.729a.98.98 0 0 1 .718-.315c.553 0 1.004.467 1.004 1.04l.003.712a4.364 4.364 0 0 1-1.179 3.013 3.924 3.924 0 0 1-2.778 1.259Z"/><path fill="#14549F" d="M495.646 552.195a1.092 1.092 0 0 0 .914-1.324c-1.248-5.497-5.993-7.344-11.139-6.623-4.947.696-8.795 4.411-10.192 9.209-.222.765.401 1.51 1.185 1.401l19.232-2.663Z"/><path fill="#fff" d="M487.521 544.931c-.632 0-1.294.049-1.98.145-4.434.623-8.165 4.004-9.51 8.613a.279.279 0 0 0 .053.262c.04.043.103.096.215.079l19.236-2.659a.26.26 0 0 0 .212-.314c-.891-3.921-3.908-6.126-8.226-6.126Zm-11.258 10.771a1.9 1.9 0 0 1-1.44-.662 1.938 1.938 0 0 1-.395-1.818c1.527-5.238 5.799-9.086 10.881-9.801 6.226-.874 10.848 1.91 12.067 7.265a1.935 1.935 0 0 1-1.613 2.338l-19.235 2.662c-.086.01-.176.016-.265.016Z"/><path fill="#14549F" d="m454.083 598.292.02-73.438-42.093-8.348v65.848l42.073 15.938Z"/><path fill="#fff" d="m412.846 581.779 40.404 15.305.02-71.544-40.424-8.017v64.256Zm41.239 17.348a.835.835 0 0 1-.295-.053l-42.073-15.938a.832.832 0 0 1-.54-.778v-65.852a.834.834 0 0 1 .996-.818l42.094 8.345c.39.079.672.421.672.821l-.02 73.438a.835.835 0 0 1-.358.689.85.85 0 0 1-.476.146Z"/><path fill="#fff" d="M422.696 555.722v4.206l21.242 6.682v-4.613l-21.242-6.275ZM442.915 548.017l-4.384-6.888-4.361 4.653 2.238.573v10.841l4.242 1.086v-10.845l2.265.58ZM432.468 545.354l-4.388-7.006-4.357 4.765 2.238.569v10.828l4.242 1.1v-10.852l2.265.596Z"/><path fill="#fff" d="m420.117 563.361 26.401 8.567V540l-26.401-6.543v29.904Zm27.236 10.553a.803.803 0 0 1-.259-.042l-28.066-9.11a.84.84 0 0 1-.58-.795v-31.576a.837.837 0 0 1 1.037-.812l28.07 6.954c.37.093.632.427.632.811v33.733a.83.83 0 0 1-.834.837ZM430.022 526.529l6.056 1.222v-4.924l-6.056-1.268v4.97Zm6.891 3.077a.737.737 0 0 1-.166-.017l-7.728-1.556a.84.84 0 0 1-.669-.822v-6.678a.834.834 0 0 1 1.006-.818l7.729 1.619a.83.83 0 0 1 .662.818v6.619a.834.834 0 0 1-.834.835Z"/><path fill="#fff" d="m417.385 516.728 36.726 7.335 55.328-7.116-37.169-6.543-54.885 6.324Zm36.696 9.013a.685.685 0 0 1-.162-.016l-42.07-8.398a.839.839 0 0 1-.673-.854.837.837 0 0 1 .742-.795l60.282-6.947a.836.836 0 0 1 .239.007l42.693 7.517c.407.072.698.43.688.841a.83.83 0 0 1-.725.808l-60.908 7.831c-.036.003-.07.006-.106.006ZM664.859 304.137a4.867 4.867 0 0 0-2.983 1.019 4.86 4.86 0 0 0-1.868 3.252 4.912 4.912 0 0 0 4.232 5.497 4.907 4.907 0 0 0 5.494-4.235 4.912 4.912 0 0 0-4.232-5.494 5.372 5.372 0 0 0-.643-.039Zm.017 11.477c-.281 0-.566-.017-.851-.053-3.596-.467-6.139-3.772-5.676-7.365a6.529 6.529 0 0 1 2.51-4.364 6.543 6.543 0 0 1 4.855-1.311c3.596.467 6.142 3.768 5.675 7.364a6.584 6.584 0 0 1-6.513 5.729ZM627.056 396.949a.833.833 0 0 1-.659-1.348c16.407-21.113 27.653-45.07 33.424-71.203a.833.833 0 0 1 .997-.635c.45.099.735.543.636.993-5.828 26.381-17.18 50.56-33.739 71.872a.833.833 0 0 1-.659.321ZM619.665 382.362a.826.826 0 0 1-.497-.165.832.832 0 0 1-.175-1.166c37.143-50.169 40.716-128.356 40.749-129.14a.842.842 0 0 1 .867-.802c.461.02.822.408.802.868-.033.791-3.623 79.477-41.074 130.068a.834.834 0 0 1-.672.338v-.001ZM73.23 223.093c-8.84 0-16.033 7.192-16.033 16.033 0 8.841 7.193 16.033 16.034 16.033 8.84 0 16.033-7.192 16.033-16.033 0-8.841-7.193-16.033-16.033-16.033Zm0 33.735c-9.76 0-17.703-7.94-17.703-17.702s7.942-17.702 17.704-17.702 17.703 7.94 17.703 17.702-7.941 17.702-17.703 17.702ZM143.656 45.72a.835.835 0 0 1-.835-.835v-6.478a.835.835 0 1 1 1.67 0v6.478c0 .461-.373.835-.835.835ZM143.656 60.81a.835.835 0 0 1-.835-.834v-6.478a.835.835 0 1 1 1.67 0v6.478a.835.835 0 0 1-.835.835ZM139.349 50.026h-6.478a.835.835 0 0 1 0-1.67h6.478a.835.835 0 0 1 0 1.67ZM154.44 50.026h-6.478a.835.835 0 0 1 0-1.67h6.478a.835.835 0 0 1 0 1.67ZM317.627 204.057c-5.901 0-10.682-4.815-10.682-10.753 0-5.94 4.781-10.755 10.682-10.755 5.897 0 10.679 4.815 10.679 10.755 0 5.938-4.782 10.753-10.679 10.753Zm0-34.273c-12.904 0-23.361 10.53-23.361 23.52 0 3.247 1.457 7.788 3.649 12.774 5.52 12.566 15.679 27.954 18.785 32.554a1.114 1.114 0 0 0 1.851 0c4.334-6.418 22.434-33.895 22.434-45.328 0-12.99-10.457-23.52-23.358-23.52Z"/><path fill="#14549F" d="M279.043 51.657c.036-.011.069-.026.106-.038.838-.264-16.57 5.242-16.57 5.242-7.705 2.437-24.199 13.045-22.301 19.045 1.895 5.991 21.49 5.187 29.195 2.75 0 0 15.997-4.864 16.418-4.997 3.791-1.2 5.308-7.092 3.387-13.159-1.904-6.009-6.464-9.933-10.235-8.843Z"/><path fill="#fff" d="M275.981 64.71c1.92 6.068 6.457 10.044 10.129 8.881 3.669-1.163 5.089-7.024 3.169-13.09-1.924-6.068-6.457-10.044-10.129-8.881-3.673 1.162-5.09 7.023-3.169 13.09Z"/><path fill="#fff" d="M241.318 73.33c-.367.892-.449 1.672-.242 2.324 1.649 5.217 20.352 4.672 28.147 2.206l12.619-3.99c-1.576-.802-3.092-2.213-4.367-4.107l-12.58 3.979c-5.023 1.589-15.095 1.84-23.577-.412Zm13.647 8.004c-7.278 0-14.272-1.352-15.482-5.176-.391-1.235-.176-2.65.639-4.207a.835.835 0 0 1 .969-.416c8.315 2.368 18.377 2.172 23.297.615l13.189-4.172a.838.838 0 0 1 .964.357c1.781 2.883 4.162 4.647 6.308 4.62a.844.844 0 0 1 .838.7.837.837 0 0 1-.573.93l-15.384 4.868c-3.438 1.086-9.186 1.881-14.765 1.881Z"/><path fill="#fff" d="m279.213 52.476-16.378 5.18c-3.98 1.259-9.941 4.57-14.499 8.055-5.247 4.01-7.961 7.727-7.261 9.943.7 2.212 5.057 3.69 11.657 3.953 5.732.23 12.517-.49 16.491-1.747.169-.052 16.007-4.866 16.417-4.996 3.292-1.042 4.59-6.589 2.841-12.112-1.751-5.534-5.884-9.253-9.205-8.292a.857.857 0 0 1-.063.016ZM254.885 81.32c-.752 0-1.494-.014-2.22-.043-5.343-.213-11.966-1.274-13.182-5.118-1.218-3.849 3.591-8.527 7.839-11.774 4.695-3.588 10.867-7.01 15.007-8.32l15.887-5.024c.182-.058.355-.113.517-.156a.34.34 0 0 1 .043-.016c.007-.002.013.001.02 0v-.008l.102-.037.004.007c4.235-1.149 9.129 2.965 11.172 9.418 2.093 6.607.368 12.847-3.93 14.208-.418.133-15.772 4.8-16.425 4.999-3.622 1.146-9.467 1.864-14.834 1.864Z"/><path fill="#14549F" d="M271.24 83.537 202.042.834l-9.17 3.464s23.404 65.317 25.371 74.136c1.967 8.82 1.557 24.478 1.557 24.478l51.44-19.375Z"/><path fill="#fff" d="M198.025 3.245c9.762 17.809 31.478 57.758 33.727 64.727 2.375 7.363 3.477 19.557 3.771 23.314l31.339-11.68-65.08-77.78-3.757 1.419Zm36.747 90.047a.834.834 0 0 1-.833-.78c-.01-.155-1.066-15.626-3.777-24.027-2.304-7.14-26.655-51.772-34.063-65.28a.836.836 0 0 1 .437-1.183l5.211-1.968a.836.836 0 0 1 .936.245l66.218 79.141a.835.835 0 0 1-.35 1.319l-33.487 12.48a.84.84 0 0 1-.292.053Z"/><path fill="#fff" d="M193.935 4.79c2.766 7.73 23.26 65.11 25.123 73.463 1.667 7.473 1.653 19.544 1.6 23.444l49.188-18.526-68.064-81.345-7.847 2.964Zm25.865 98.958a.837.837 0 0 1-.835-.857c.004-.156.385-15.658-1.537-24.274-1.933-8.668-25.108-73.384-25.342-74.036a.836.836 0 0 1 .491-1.063l9.17-3.464a.836.836 0 0 1 .936.245l69.199 82.703a.838.838 0 0 1-.348 1.317l-51.439 19.375a.84.84 0 0 1-.295.054Z"/><path fill="#fff" d="m84.588 142.525 2.074 6.558 69.178-5.234a277.67 277.67 0 0 0 56.996-10.387c49.175-14.407 134.52-39.573 153.626-46.243 29.047-10.136 27.848-18.587 27.454-21.365-.517-3.621-9.811-6.913-13.351-7.876a.855.855 0 0 1-.212-.09c-15.51-9.324-34.153-2.754-34.338-2.686l-216.176 61.907a.854.854 0 0 1-.426.009L50.948 98.23l-16.39 5.185 60.089 32.555a.833.833 0 0 1-.021 1.479l-10.038 5.076Zm1.478 8.275a.834.834 0 0 1-.796-.583l-2.489-7.864a.835.835 0 0 1 .42-.997l9.248-4.678-60.415-32.732a.836.836 0 0 1 .146-1.53l18.486-5.848c.145-.046.3-.051.448-.016l78.477 18.891 215.907-61.83c.143-.052 19.454-6.859 35.617 2.784 1.854.512 13.708 3.99 14.453 9.222.769 5.404-1.357 13.686-28.556 23.177-19.14 6.682-104.518 31.857-153.707 46.269a279.281 279.281 0 0 1-57.34 10.449l-69.836 5.284c-.022.002-.043.002-.064.002Z"/><path fill="#14549F" d="m95.262 135.091-9.426-41.235 8.342-2.893 26.211 34.756-25.127 9.372Z"/><path fill="#fff" d="m86.82 94.4 9.046 39.575 23.184-8.647-25.17-33.377-7.06 2.449Zm8.444 41.526a.837.837 0 0 1-.813-.649l-9.427-41.235a.836.836 0 0 1 .54-.975l8.343-2.893a.835.835 0 0 1 .94.286l26.211 34.756a.835.835 0 0 1-.375 1.285l-25.126 9.372a.841.841 0 0 1-.293.053Z"/><path fill="#14549F" d="m274.447 129.888.106-.038-16.57 5.241c-7.704 2.437-24.199 13.045-22.301 19.045 1.895 5.991 21.49 5.188 29.198 2.75 0 0 15.997-4.863 16.415-4.996 3.791-1.201 5.308-7.092 3.387-13.16-1.904-6.009-6.464-9.933-10.235-8.842Z"/><path fill="#fff" d="M271.386 142.94c1.92 6.068 6.457 10.043 10.129 8.88 3.669-1.162 5.09-7.023 3.169-13.091-1.924-6.067-6.457-10.043-10.129-8.88-3.672 1.163-5.09 7.024-3.169 13.091Z"/><path fill="#fff" d="M236.722 151.56c-.367.892-.449 1.672-.242 2.324 1.65 5.217 20.356 4.672 28.147 2.206l12.619-3.991c-1.576-.801-3.092-2.213-4.367-4.107l-12.58 3.98c-5.023 1.589-15.094 1.84-23.577-.412Zm13.648 8.004c-7.279 0-14.273-1.353-15.483-5.177-.39-1.234-.176-2.649.639-4.206a.835.835 0 0 1 .969-.416c8.316 2.368 18.377 2.171 23.297.614l13.189-4.171a.837.837 0 0 1 .964.357c1.781 2.883 4.185 4.644 6.308 4.619.404-.019.772.292.838.701a.837.837 0 0 1-.573.93l-15.385 4.867c-3.437 1.087-9.185 1.882-14.763 1.882Z"/><path fill="#fff" d="m274.614 130.706-16.374 5.181c-3.981 1.258-9.941 4.57-14.5 8.054-5.247 4.01-7.961 7.727-7.26 9.943.7 2.212 5.057 3.69 11.656 3.953 5.733.228 12.517-.489 16.491-1.747.172-.052 16.007-4.866 16.417-4.997 1.55-.49 2.716-1.97 3.279-4.166.602-2.337.447-5.158-.437-7.945-1.752-5.534-5.881-9.253-9.203-8.292a.859.859 0 0 1-.069.016Zm-24.325 28.843c-.752 0-1.494-.014-2.219-.043-5.343-.213-11.967-1.274-13.183-5.119-1.217-3.848 3.591-8.526 7.839-11.773 4.695-3.588 10.868-7.01 15.007-8.32l15.887-5.025c.183-.058.355-.112.514-.155l.043-.016c.006-.002.016.001.023 0l-.003-.007c.016-.006.089-.033.106-.037l.003.007c4.232-1.151 9.129 2.963 11.172 9.416.977 3.082 1.143 6.231.464 8.866-.715 2.774-2.275 4.672-4.394 5.342-.417.133-15.772 4.801-16.424 5-3.623 1.146-9.467 1.864-14.835 1.864Z"/><path fill="#14549F" d="m129.609 116.306 216.121-61.89s17.391-6.29 32.931 1.582c1.484.752 14.63 4.708 16.083 9.739 1.394 4.824-1.506 13.023-28.007 22.27-19.374 6.764-107.634 32.77-153.666 46.257a277.861 277.861 0 0 1-57.168 10.417l-69.837 5.285-2.487-7.865 10.67-5.397-61.816-33.492 18.486-5.847 78.691 18.941h-.001Z"/><path fill="#fff" d="m34.572 103.411 59.926 32.077 32.119-8.675-83.598-26.074-8.446 2.672Zm59.824 33.804a.826.826 0 0 1-.394-.099l-61.964-33.168a.834.834 0 0 1 .142-1.532l10.585-3.348a.833.833 0 0 1 .5-.001l86.589 27.007a.835.835 0 0 1-.03 1.603l-35.21 9.509a.848.848 0 0 1-.218.029ZM85.34 144.898l1.323 4.185 69.178-5.234a277.615 277.615 0 0 0 56.996-10.387c49.175-14.407 134.521-39.572 153.626-46.243 26.574-9.272 28.623-17.294 27.481-21.25-.682-2.356-4.596-4.597-8.278-6.262.92.902 1.705 1.903 2.159 2.969.231.543.4 1.43-.103 2.57-1.248 2.82-6.013 5.74-13.778 8.444-66.657 23.235-130.153 41.6-188.725 54.586-54.612 12.107-87.399 15.633-99.88 16.622h.001Zm.727 5.903a.835.835 0 0 1-.796-.583l-1.84-5.82a.834.834 0 0 1 .733-1.084c11.077-.83 113.296-9.874 289.23-71.201 10.096-3.516 12.315-6.447 12.802-7.544.208-.474.241-.891.092-1.239-1.41-3.31-7.053-6.129-7.877-6.526-.047-.022-.09-.042-.126-.061a.833.833 0 0 1 .725-1.503c.02.008.063.028.126.06.281.123.864.34 1.526.587 4.404 1.642 13.567 5.058 14.885 9.619 1.596 5.525-2.057 14.052-28.534 23.29-19.139 6.683-104.518 31.857-153.707 46.269a279.272 279.272 0 0 1-57.339 10.449l-69.837 5.285-.063.002Z"/><path fill="#fff" d="M368.558 52.68a43.58 43.58 0 0 0-7.39-.642c3.718 2.194 6.993 5.258 6.897 7.227-.119 2.48-4.99 6.323-7.576 8.194a2.048 2.048 0 0 0-.533 2.754l1.198 1.913a2.052 2.052 0 0 0 2.908.599c6.553-4.581 11.457-9.49 10.953-12.72-.49-3.13-3.616-5.646-6.457-7.325Z"/><path fill="#fff" d="m84.588 142.526 2.074 6.557 69.178-5.234a277.67 277.67 0 0 0 56.996-10.387c49.175-14.407 134.52-39.573 153.626-46.243 26.573-9.272 28.623-17.294 27.481-21.25-1.086-3.753-10.371-7.214-13.865-8.517-.9-.336-1.496-.557-1.795-.71-15.043-7.62-32.099-1.602-32.268-1.54l-216.176 61.907a.832.832 0 0 1-.426.009L50.948 98.23l-16.39 5.185 60.089 32.555a.835.835 0 0 1-.021 1.479l-10.038 5.077Zm1.478 8.275a.835.835 0 0 1-.796-.584l-2.489-7.865a.835.835 0 0 1 .42-.996l9.249-4.677-60.416-32.733a.836.836 0 0 1 .146-1.53l18.486-5.848a.831.831 0 0 1 .448-.015l78.477 18.89 215.907-61.829c.673-.244 17.858-6.305 33.541 1.64.215.109.867.352 1.622.633 4.404 1.642 13.566 5.058 14.884 9.618 1.596 5.526-2.056 14.052-28.533 23.29-19.139 6.683-104.518 31.858-153.707 46.27a279.269 279.269 0 0 1-57.34 10.449l-69.837 5.284a.673.673 0 0 1-.063.003Z"/><path fill="#14549F" d="m63.016 187.337 10-2.496 38.445-40.201-26.293 2.488-22.152 40.209Z"/><path fill="#fff" d="m85.688 147.918-21.016 38.145 7.908-1.974 36.73-38.407-23.622 2.236Zm-22.671 40.253a.836.836 0 0 1-.732-1.238l22.153-40.208a.834.834 0 0 1 .653-.428l26.292-2.489a.835.835 0 0 1 .682 1.408L73.62 185.418a.833.833 0 0 1-.401.233l-10 2.495a.824.824 0 0 1-.202.025Z"/><path fill="#14549F" d="M273.229 109.998 160.964 242.997l-16.656 2.517s49.514-74.873 55.781-85.419c6.267-10.546 13.25-33.767 13.25-33.767l59.89-16.33Z"/><path fill="#fff" d="M220.982 154.417c-3.036 5.071-16.95 23.946-31.68 43.93-12.885 17.479-26.182 35.52-32.234 44.394l3.461-.523 110.326-130.704-36.493 10.011c-2.37 7.287-8.122 24.11-13.38 32.892Zm-65.669 90.268a.838.838 0 0 1-.704-.384.836.836 0 0 1 .009-.911c5.449-8.199 19.628-27.433 33.34-46.035 14.706-19.95 28.596-38.794 31.591-43.796 5.277-8.813 11.104-25.998 13.364-32.978a.832.832 0 0 1 .573-.548l39.521-10.841a.83.83 0 0 1 .924.355.828.828 0 0 1-.066.988L161.602 243.536a.83.83 0 0 1-.513.288l-5.651.854c-.041.007-.084.007-.125.007Z"/><path fill="#fff" d="M214.006 127.012c-1.026 3.357-7.352 23.673-13.197 33.509-5.701 9.593-47.607 73.052-54.767 83.887l14.488-2.189 110.329-130.71-56.854 15.503h.001ZM144.31 246.347a.836.836 0 0 1-.697-1.294c.495-.749 49.575-74.977 55.76-85.386 6.143-10.336 13.098-33.349 13.168-33.58a.837.837 0 0 1 .579-.566l59.889-16.329a.832.832 0 0 1 .923.357.825.825 0 0 1-.066.987l-112.262 133a.83.83 0 0 1-.514.288l-16.656 2.517c-.042.006-.084.006-.125.006h.001ZM64.309 307.606a.836.836 0 0 1-.59-1.427l4.58-4.58a.833.833 0 1 1 1.18 1.179l-4.58 4.583a.837.837 0 0 1-.59.245ZM53.64 318.275a.832.832 0 0 1-.59-1.423l4.58-4.583a.836.836 0 0 1 1.18 1.182l-4.58 4.579a.821.821 0 0 1-.59.245ZM58.22 307.606a.837.837 0 0 1-.59-.245l-4.58-4.583a.833.833 0 0 1 0-1.179.833.833 0 0 1 1.18 0l4.58 4.58a.836.836 0 0 1-.59 1.427ZM68.89 318.275a.821.821 0 0 1-.591-.245l-4.58-4.579a.836.836 0 0 1 1.18-1.182l4.58 4.583a.832.832 0 0 1-.59 1.423ZM660.13 210.88c-2.47 1.109-3.593 4.066-2.503 6.591a4.883 4.883 0 0 0 2.732 2.651 4.736 4.736 0 0 0 3.688-.095c2.471-1.109 3.593-4.066 2.504-6.591a4.883 4.883 0 0 0-2.732-2.651 4.738 4.738 0 0 0-3.689.095Zm1.96 11.239a6.435 6.435 0 0 1-2.337-.44 6.55 6.55 0 0 1-3.659-3.547c-1.451-3.358.053-7.295 3.351-8.775a6.4 6.4 0 0 1 4.98-.129 6.551 6.551 0 0 1 3.659 3.546c1.45 3.359-.056 7.296-3.351 8.776a6.433 6.433 0 0 1-2.643.569ZM568.259 69.473c-5.514 0-9.981-4.5-9.981-10.049 0-5.55 4.467-10.05 9.981-10.05 5.513 0 9.98 4.5 9.98 10.05 0 5.55-4.467 10.05-9.98 10.05Zm0-32.027c-12.057 0-21.828 9.84-21.828 21.978 0 3.035 1.364 7.278 3.41 11.937 5.156 11.742 14.649 26.123 17.554 30.419a1.04 1.04 0 0 0 1.728.002c4.053-6 20.964-31.674 20.964-42.358 0-12.138-9.772-21.978-21.828-21.978ZM506.716 287.491c-5.884 0-10.656-4.802-10.656-10.729 0-5.924 4.772-10.728 10.656-10.728s10.656 4.804 10.656 10.728c0 5.927-4.772 10.729-10.656 10.729Zm0-34.193c-12.871 0-23.305 10.507-23.305 23.464 0 3.242 1.454 7.772 3.639 12.745 5.51 12.537 15.643 27.891 18.742 32.478a1.113 1.113 0 0 0 1.848 0c4.324-6.404 22.384-33.815 22.384-45.223 0-12.957-10.437-23.464-23.308-23.464ZM564.549 119.91a.836.836 0 0 1-.834-.901c.264-3.3.46-6.654.586-9.97a.827.827 0 0 1 .864-.802.835.835 0 0 1 .805.865 241.33 241.33 0 0 1-.59 10.039.834.834 0 0 1-.831.769Zm-2.411 19.89a.832.832 0 0 1-.824-.97 247.94 247.94 0 0 0 1.407-9.886.838.838 0 0 1 .927-.728.837.837 0 0 1 .732.929c-.404 3.311-.881 6.66-1.42 9.955a.835.835 0 0 1-.822.7Zm-4.069 19.618a.836.836 0 0 1-.811-1.039c.807-3.206 1.559-6.48 2.235-9.731a.832.832 0 0 1 .986-.648.832.832 0 0 1 .646.987 237.932 237.932 0 0 1-2.248 9.8.836.836 0 0 1-.808.631Zm-5.722 19.202a.835.835 0 0 1-.788-1.108 235.525 235.525 0 0 0 3.053-9.505.835.835 0 1 1 1.599.476 232.689 232.689 0 0 1-3.076 9.574.832.832 0 0 1-.788.563Zm-7.139 18.733a.833.833 0 0 1-.772-1.148c1.235-3.066 2.474-6.2 3.672-9.315a.834.834 0 1 1 1.557.6 611.02 611.02 0 0 1-3.682 9.34.835.835 0 0 1-.775.523Zm-7.885 18.435a.836.836 0 0 1-.758-1.182c1.288-2.81 2.646-5.89 4.037-9.154a.837.837 0 0 1 1.096-.441.837.837 0 0 1 .44 1.096 372.23 372.23 0 0 1-4.056 9.194.832.832 0 0 1-.759.487Zm-7.301 14.354a.84.84 0 0 1-.427-.115.84.84 0 0 1-.288-1.146 104.68 104.68 0 0 0 2.911-5.285.834.834 0 0 1 1.483.765c-1.053 2.036-2.046 3.844-2.96 5.374a.835.835 0 0 1-.719.407Z"/><path fill="#fff" d="M522.202 247.268a.838.838 0 0 1-.835-.795c-.294-5.692-.645-13.692-.645-19.484a.835.835 0 0 1 1.669 0c0 5.219.288 12.259.562 17.755 2.825-2.294 6.805-5.46 10.669-8.536 1.722-1.371 3.395-2.702 4.888-3.894a.836.836 0 0 1 1.043 1.304c-1.493 1.193-3.169 2.527-4.891 3.898-4.487 3.569-9.129 7.265-11.93 9.56a.84.84 0 0 1-.53.192ZM522.886 90.75l-.043-.002a133.81 133.81 0 0 0-9.954-.12.835.835 0 0 1-.039-1.67c3.473-.082 6.867-.042 10.079.122a.836.836 0 0 1-.043 1.67Zm-29.99 1.515a.835.835 0 0 1-.109-1.663c3.404-.455 6.768-.824 10.006-1.094a.835.835 0 0 1 .139 1.664c-3.208.268-6.549.634-9.924 1.086a.827.827 0 0 1-.112.007Zm-19.742 3.488a.834.834 0 0 1-.176-1.651c3.322-.72 6.643-1.375 9.865-1.947a.835.835 0 1 1 .294 1.644c-3.205.569-6.503 1.22-9.804 1.935a.852.852 0 0 1-.179.02Zm-19.441 4.898a.83.83 0 0 1-.801-.606.832.832 0 0 1 .573-1.032 320.836 320.836 0 0 1 9.705-2.614.835.835 0 0 1 .407 1.62c-3.182.803-6.43 1.678-9.655 2.599a.788.788 0 0 1-.229.033Zm-19.109 6.072a.834.834 0 0 1-.275-1.624 362.133 362.133 0 0 1 9.533-3.18.836.836 0 0 1 .507 1.591c-3.146 1-6.338 2.066-9.491 3.166a.81.81 0 0 1-.274.047Zm-18.752 7.128a.837.837 0 0 1-.318-1.608 375.222 375.222 0 0 1 9.354-3.701.835.835 0 0 1 .593 1.561 375.666 375.666 0 0 0-9.311 3.684.828.828 0 0 1-.318.064Zm-18.332 8.125a.836.836 0 0 1-.357-1.589 369.459 369.459 0 0 1 9.126-4.195.833.833 0 0 1 1.102.425.833.833 0 0 1-.423 1.101 373.99 373.99 0 0 0-9.09 4.177.834.834 0 0 1-.358.081Zm-17.844 9.125a.835.835 0 0 1-.401-1.567 341.873 341.873 0 0 1 8.881-4.703.833.833 0 0 1 1.123.363.834.834 0 0 1-.361 1.124 345.039 345.039 0 0 0-8.842 4.68.82.82 0 0 1-.4.103Zm-17.265 10.189a.835.835 0 0 1-.451-1.54 305.663 305.663 0 0 1 8.577-5.247.837.837 0 0 1 1.145.295c.232.398.1.91-.298 1.144a305.87 305.87 0 0 0-8.526 5.217.828.828 0 0 1-.447.131Zm-16.517 11.36a.83.83 0 0 1-.669-.335.832.832 0 0 1 .169-1.169 256.127 256.127 0 0 1 8.176-5.856.836.836 0 0 1 .947 1.377 249.494 249.494 0 0 0-8.123 5.817.842.842 0 0 1-.5.166Zm-15.49 12.719a.835.835 0 0 1-.56-1.454 198.13 198.13 0 0 1 7.623-6.571.836.836 0 0 1 1.059 1.292 194.819 194.819 0 0 0-7.559 6.516.833.833 0 0 1-.563.217ZM526.665 98.669a.836.836 0 0 1-.375-1.582l1.186-.594c4.242-2.122 7.397-3.703 10.861-5.86-.338-.317-.679-.637-1.017-.958-3.152-2.968-6.41-6.038-9.377-8.177a.836.836 0 0 1 .976-1.355c3.057 2.204 6.355 5.311 9.544 8.317l1.801 1.692c.189.176.288.429.262.685a.84.84 0 0 1-.378.628c-3.907 2.51-7.272 4.192-11.924 6.521l-1.185.594a.838.838 0 0 1-.374.089Z"/></svg>